<?xml version="1.0" encoding="UTF-8"?>
<svg id="Layer_1" xmlns="http://www.w3.org/2000/svg" version="1.1" viewBox="0 0 1920 215.5">
  <!-- Generator: Adobe Illustrator 29.8.2, SVG Export Plug-In . SVG Version: 2.1.1 Build 3)  -->
  <defs>
    <style>
      .st0 {
        fill: #c4dfef;
      }

      .st1 {
        fill: #eff2f4;
      }
    </style>
  </defs>
  <g>
    <path class="st1" d="M1043.4,113.6c0,1.1-.4,2,.9,1.7,0-1.1.4-2-.9-1.7Z"/>
    <path class="st1" d="M1358.7,135.5c0,.5-.3,1.6.4,1.5-.1-1.6,0-3,.3-4.6.2-.8,0-.5-.8-.5,0,1.2,0,2.5,0,3.7Z"/>
    <path class="st1" d="M1870.6,168.2c-5.4-.9-155.1-63-160.4-65.4-1.7-.7-4.6-3.3-5.7-3.5-1.5-.3-2.6,1-4.2.8-.9,0-1.9-.9-2.8-1.1-6.8-1.5-9.9-2.6-15.9-6.2-1.1-.7-5.3-3.9-6-4-.9,0-1.8,1.1-2.7,1.2-.9,0-2.8-1-3.9-1.1-1.5,0-3.5,0-5.1-.1-2.9,0-2.8,5-4.7,7-1,1-3.1,1.7-4.4,1.7-3.1,0-10.3-7-12-6.8-1.1.1-3.2,2.8-4.7,3.6-2.8,1.4-5.7,2.5-8.5,4.1-.9.5-6.4,4.2-6.6,4-3.3-9.8-11.3-17.3-14.3-27.3-1.1-.3-1.7.9-2.7.8-1-.1-2.3-1.8-3.9-2.3-1.5-.4-3,0-4.3-.5-1.5-.5-1.7-2.1-2.8-2.8-.8-.5-2.7-.6-3.1-1-.2-.3-.2-1.2-.6-1.8-1.8-2.9-2.6,1.1-4,1-.8,0-5.5-3.9-7.1-4.6-1.3-.7-7.5-3.2-8.5-3-.6.1-1,.5-1.4.9-4.7.8-9.3,1.7-14,2.5-4.1.7-8.2,1.5-12.1,3-3.6,1.4-6.8,3.4-10.1,5.4-12,7.4-34.7,16.2-45.7,27.6-.4-.4-.8-.8-1.2-1.1-2.6-2.2-6-4.2-8.5-6.3-2.5-2.1-11.2-11.6-13.5-11.7-2.3-.1-5.7,5.4-7.3,5.1-.6,0-4.3-3.1-5.4-3.7-10-6.1-19.8-10.7-28.3-18.9-5.9-5.7-8.8-10.9-15.4-16.2-3.6-3-2-3.8-7.3-1.7-4.1,1.6-12.9,5.8-16.4,8.2-.5.3,0,1.1-.9.8-2-1-3.1-3.1-5-4.1-3-1.6-6.7-1.5-9.9-2.7-4.5-1.8-12.6-7.6-16-10.9-4.5-4.4-9.6-7.5-14.1-12.5-1.4-.2-.8.5-.6,1.3.3,1.1.5,2.1.6,3.3-2,1.1-1.5-1.5-1.8-1.9-.2-.2-1.1,0-1.2,0-.6-.4,0-.7.4-.9,0,0,0,0,0,0,0,0,0,0,0,0,.2,0,.5-.2.5-.2,0-.6-.4-1.3-.5-1.9-1.3-.3-.7.8-.9,1.2-3.7-3.8-7.6-7.5-12.2-10.1-5-2.8-11.2-4-16.6-1.9-4.2,1.6-7.5,5.1-10,8.9l-7.4,5.2c-7.5,8.9-18.6,9.4-28.3,14.1-2,1-15.4,10-16.4,9l.4-1.5,7.4-4.5-14.5,1.7c-3.3.8-8.1-1.6-10.6.6-3.1,2.7-4.2,5.1-8.3,7.8-8.6,5.6-18.9,9.9-27.9,15.5-7.9,4.9-15.3,11-23.2,15.9-3.7,2.3-17.8,10.4-21.2,10.9-.4,0-1.7.3-1.5-.4,7.1-4.3,14.9-7.5,21.8-12.2,5.8-3.9,10.8-9,16.9-12.6,4.3-2.5,10.3-4.6,13.9-8.2.4-.4.8-.6.7-1.3-3-.7-5.5-2.6-8.2-3.7-12.5-5-25.6-4.6-38.8-5.4-7-.4-5.7-2.2-12.1,2.3-2.9,2-8.4,5.9-10.8,8.1-2.9,2.7-2.9,4.9-6.9,7.1-9,5-21.6,8.6-31.2,13-3.9,1.8-8.4,5.6-12.6,7.8-7.3,3.9-15.2,6.9-22.7,10.2-3.6,3.8-6.3,8.9-9.8,12.7-.3.4-.8,1-1.3,1.1,0,.7,0,1.4,0,2.2-2.1-1.1-2.5.7-2.6,2.6,0,.1.7,1.3,0,2.2,1.9.1,4,.7,5.9.8.7,0,1.2-.4,1.7-.4.3,0,.3.7.5.9,1.5.9,7,.7,9,.9,1.7.2,4.9,1.2,6.2,1.2,3.1,0,1-6.3,6-6,.8,0,6,1.7,7,2.1,1.5.6,4.4,3,5.1,3.1,1.5.3,2.9-.4,4.3-.4,2.7,0,11-.5,13,0,.7.2.1,1.9,1.8,2l13.9-2c1.2.8,8.3,1.8,8.8,1.2,0,0,0-1.7.5-2.1-3.7,0-2.2-1.2-2.2-3.9,2.3.7,4.6.3,6.9.4-.7-3.1,2.7-1.8,3-2.2.2-.2-.5-2.5.6-3.5,1.1-1,1.6,1.1,2.2,0,.2-1.6.7-3.5,1.6-4.9.8-1.3,2-.6,1.6-3.1,0-.5-1.6-3.3-.2-3.3,1.2,0,3.9,6.1,4.7,6.8,0,0,2.2,1.3,2.3,1.3.5,0,1.3-.6,1.9-.2.8.6.9,4,1.9,5,1,1,3.8.9,4.1,1.3.4.5-.8,3.3-.4,4.3,2.5,0,5.7.9,8.4.4.5,0,1-.3,1.1-.8-1.4,0-2.8,0-4.1,0-.5,0-1.6.3-1.5-.4,3.9-.3,8.2-3,7.8,3-3.8.5-8-.2-11.9-.4-.7,0-3-.3-3.3.4l12.1,1.7-1.3-.9c-.1-.7.7-.5,1.1-.4,1.5.4,1.4,1.7,2.4,2.4,1.2.8,3.5.8,4.9.6,6.2-.8,12.4-1.2,18.7-2.1,1.1-.2,2.4.2,3.5,0,1.3-.2,2-1.9,3.1-2.5,4.2-2.4,6.4.5,10,1.5,2.2.7,5.8,1.2,8.1,1.4,1.2.1,2.9-.2,3.8,0,.7.2.3,1.6,1,1.8,4.4,1.1,6.7-3,10.4-3.4,1.7-.2,5.6-.5,7.3-.5,5.5,0,10.9,3,16.5,3.5,1.6.2,4.2-.3,5.6,0,.5.1.6,1.9,1.6,2.4.3.1,3,.6,3.3.6,1.2,0,3.1-3.5,2.8-4.7l.4,3,1.3-2.2.2,1.7c.2,0,.5-2.2,1.3,0l.9-1.3c1.4,3.7,2.4.8,2.6.9,1.6.8,1,.4,2.4.7.5,0,.9.6,1.4.6,0,0,1.1-1.1,1.1-1.2.2-.6-.4-1.9.4-1.8.2,1.1-.4,3.4.4,4.1.3.3,1.2-1.1.9,1.5,1.5.3.5-.8.7-1.7.4-1.2,1.1-2.2,1-3.5.8-.1.4,1,.4,1.5,0,1.1,0,2.2,0,3.3l.6-.9c1.1,2.7,1.7-1.8,2-3,.8-.1.2,1,.4,1.3.8,1,.8-1.2,1.3-.9l-.4,3.9c1.4-.6.7-2.7.9-3.9,1.2.4-.6,3.5,1.3,3,0-1.3-.1-4.2,1.3-3l.4-1.3c.1,2.1-1.6,4-.6,6.1.5,0,1-4.8,1.6-5.2.1,0,2.5.3,3,.4.3-.5-.6-3.1.9-3.5.2,1.2-.2,2.6,0,3.7.1.8.9.6.9.9,0,.4-.5.7-.2,1.5.6,1.8.9-1.9,1.5-1.7.1,1.6.7,2.8,0,4.3,1.7.3.5-2.6.9-3.5l.4,2.2,1.3-1.7.4,2.6.4-1.1.9.7.4-2.6.4,1.3,1.7-1.3.2,1.7,1.1-2.6,1.1,3.9,1.9-3.9v5.2s.9-.6.9-.6l-.9,5.4c1.1-.4,1.2-2,1.3-3,2.5.7,1.5,4.6,3.3,0,.2,1.2,1.2,1.4,1.1,0,.6-.3.3,1.7,1.3.7.9-.9,1.5-5.4,1.3-6.7,1.5-.3.6,1,.9,1.9,0,.3,1.3.5.9,1.6l1.3-1.7-.4,5.2.9-.9c-.1,3.7,1.7,1,1.3-1.3.9-.1,1.4,3,2.2,2.2,0,0-.1-.8.1-1.2.2-.3.8-.3,1.1-.9.4-.8,0-2.6,1.4-2.3,0,1.9-.2,2.9.9,4.3l1.5-2.6.2,1.3c.7,0,.3-2.5,1.3-1.3.2.2-.4,1.4.4,1.3l.9-2.2c0,.8.7,5,.9,5.2,0,0,1.1-.6,1.3-.4,0,0-.2,1.8,1.1,1.7.4,0,1-2.7,2.4-2.6.4.5-.8,3,.9,2.6v-3s1.3.4,1.3.4l.4-6.1c.8-.2.3.7.4.9.2.2,1.1-1.1,1.3-.9-.1.7-.9,5.2-.2,5.2,0-1.4,1.2-2.3,1.5-2.9.3-.7.1-2.1.9-2.3v3s1.3-1.3,1.3-1.3c0,1.2,0,2.5,0,3.7,0,.5-.3,1.6.4,1.5v-4.8c1.2.2-.5,2.6,1.3,2.2l.4-3.9,1.7,2.2.4-3v2.6s1.3-2.2,1.3-2.2l.2,1.7.6-.9.4,4.3.9-.9-1.5,6.1,1.1-3,.4,1.3c1.1-.3.9-1.7.9-2.6.6-.2.4,1.7,1.3.9.1-.1.4-1.7.4-2.2l.4,1.4,1.7,2c-.4-1.8.8-2.6,1.4-4,.3-.8.2-1.6.4-2.2.3-.8,1.1-.6,1.2-.7.2-.3.4-.9.4-1.3.9,0-.1,1.3,1.3.4-.7,2.4,0,4.9,0,7.4,2.7.1.6-3.1,3.5-3-.4,1.9-.7,4.4-.5,6.3.1.9,1,.4.9,1.2-.1,1.1-1.4,2.3-.9,3.7,4-3.2,1,.6,1.3.9,9.7,1.3,19.5.4,29.3,1.3,3.6.3,10.2,1.1,13.5,2.1,3.7,1.2,4.8,2.7,9.5,3.1,6.9.5,14.6-.1,21.6.4.5.1.1,1.7,1.4,2.1,4.3.5,9.5.2,13.6,1.6,10.8,3.7,22.7,4.8,34.2,6,.8,0,1.4.6,2.1.7,1.2.2,3.2-.3,4.1.2.6.4,1.1,2.7,1.8.9.6-1.5.8-3.3,1.2-4.9l-.8.7c0-1.4,0-2.7,0-4.1,0-.5-.3-1.6.4-1.5l1.3,1.3c.2.7-.6.3-.8.5-.3.5,0,1.4-.1,2.1l1.7-1.9c-.2,1.3-1.2,2.6-1.3,3.9,0,.9.4,1.6.3,2.5,0,1.1-1.2,2.4-.8,3.8l.9-.9c-.2.8,0,1.9,1.1,1.3.6-.3.4-1.5,1.1-1.3-.2,1.5,3.1,1.9,4.1,1.8.5,0,0-1.1.7-.9-.8,1.9,2.5,1.6,3.3.9.5-.5.3-1.7,1.1-1.7l.7,2.6c.4-1.2.4-.7,1.5-.4v-2.2s.9,1.7.9,1.7l1.3-3c1,0,.7,2.4.9,2.6,1.1-.5,1.7-1.4,3-1.1l-1.3-5c.6-.2.4,1.8,1.3.9,0,0,.4-2,.4-2.3,0-3.8-2.5-9.6-2.9-14,0-.5-.4-2.3.4-2.3l.9,2.6c1.2-.2-.5-2.6,1.3-2.2.2,3.7.2,7.8.9,11.5.3,1.8,1.7,2.2,2.1.8.4-1.4-1.1-4,0-5.8l.9,5.2c2.1,0,1.1-3.3,1.7-4.8.7.4.4,2,.7,2.9.2.6.3,1.3,1,1.4,0-1.7.2-3.6.6-5.2.1-.5.4-2.1,1.1-2.1l.9,6.1.4-3,1.3,2.2v-3.9s1.3,0,1.3,0c-.7,2.3-.8,4.4.4,6.5.6.4,1.4-2.4,1.3-3.3l.4,2c1.2.4,1.6-1.7,1.9-1.7l1.1,1.7.9-1.7c.5,2.9-.6,5.1-1.3,7.8l2.2-3.5-.4,5.2c1.9,0,1.3-3.7,2.2-4.3.6-.4,2,1.2,1.7-.4.6-.1.6.7.6,1.1,0,1.8-1.1,3.9-.6,5.8.8,0,.3-1.1.6-1.8.3-.5,1.6.9,1.1-2.1l.9,1.3.4-3,1.3,1.9v6.3c.8,0,.4-1.3.8-2.1.3-.6.8-1,1.2-1.4.2,3.1,1.1,2.9,1.5,0l1.3.9c0-.5,0-.9.1-1.4.2-.5.6-2,1.2-2.1.5,1.3-.5,3.2-.4,4.1,0,.1,1.3.5.9,1.6,1.2-.9,1.3-3,1.7-4.3.8-.1.4,1,.4,1.5,0,1.1,0,2.2,0,3.3.5-.1,1-.7,1.2-1.2.4-.7.2-2.1,1-2.3-.6,2.7.4,4.9-.9,7.4,3.5.6,8.8,2.2,12.3,1.3.5-.1,0-1.1.7-.9.3,2,1.1.8,2.2.7,1.4,0,4.7.4,4.7-1.2h.4c-.6,1.3,4.2,1,4.3.9.2-.2-.5-2.2.4-2.2-.5,2.3.5,2.7,2.8,2.2,1-.2.6-3.3.7-4.1,0-.2,1.5-.6.9-2l.4,1.3c.8.2.3-.7.5-.8.2-.1,1.1.6,1.3.4-.6-3.3.9-6.7,1.3-10,.7-.1.5,1.1.4,1.5,0,1.2-.5,2.2-.5,3.4,0,.5-.2,1.2.4,1.1.7-1.5,1.4-3,2.8-3.9l2.4-4.3-.9,7.8,2.6-5.2c.4,2-.4,3.4-.8,5.1,0,.4-.4,1.5.3,1.4.5-2.8.6-1.1,2.6-.9,0-3.3,2.8-5.6,3.5-8.7l.6,1.3,1.5-3c0,3.6-2.5,7.1-3.5,10.6,1.4,0,2,.9,1.5,2.4l2-2.2-.2,2.6,1.9-3c.7,2-.7,4-.9,6.1l3.5-3.3c-1.8,2.4-1.9,4.8-2.6,7.6,1.5-.8,1.1-2.9,2.8-3.5l-.7,3.9,1.3-2.6v2.2c.6.6,2.3-1.6,3-1.5l-2.6,2.8c1.4,0,3.2-.3,4.6-.2.7,0,1.3.8,2.1.7.5,0,0-1.1.7-.9,0,.6,0,.7.6.9,1.7.7,4.9.3,6.9.9,3.6,1,7.9,3.1,11.6,4,1.2.3,10.8,1.8,11.3,1.5.2-.2,0-1.9,1.1-1.7.6.2.3,1.9,1.5.9-.1,3.1,1,1.7,2.8,1.7,1.4,0,3.5.3,4.8,0,.9-.2,1.6-1.2,2.7-1.7,5.8-2.5,13.2-3.4,18.8.2,1.9,1.2.5,2.6,3.9,3.1,2.9.5,2.7-1.1,4.9-1.5,2.7-.5,8.1-1.6,10.6-1.4.3,0,.1.7.5.8.1,0,2.8,0,3,0,1.1,0,1.6-.7,2.6-.9.2,3.6,4.7.3,5,.4,0,0,.6,1.5,1,1.6.5.2,1.1-1.3.3,1.8,1.9.6,3.8-.8,5.4-.9,1,0,2,.5,3,.5,2.2,0,4.4-.8,6.7-.5l180.5,19.6-35.2-36.4ZM1142.3,79.4c-.4-.8.4-4.8,1.7-3.5.3.3-.3,3.8-1.7,3.5ZM1145.3,108.9c.2-1.2-.3-3,0-4,.2-.6,1.9-.9,2.1-1.2.2-.3-.9-2.4-.2-3,.5.4.9,1,1,1.6.4,1.7-1.9,7.8-2.9,6.6ZM1191.5,81.1c-1.5,1.4-1.8,3.6-3,5.2-2,2.6-8.8,5-12.1,6.1-2.2.7-4.5,1.2-6.7,1.7l10.2-8.2c5.8-2.8,11.4-6.5,17.6-8.4-1.5,1.9-4.2,2-5.9,3.7ZM1232.1,56.2c-2,1.7-6.4,4.6-8.7,6-.5.3-1,.8-1.7.7l11.7-12.4c.7-.5,4.3-3.3,4.8-2.8.7.7-5.1,7.7-6.1,8.4ZM1325.8,26.2v.3c0-.1-.1-.2-.2-.4,0,0,.1,0,.2,0ZM1318.2,130.5v-.4c.3.1.3.3,0,.4ZM1321.4,134h-.4c-.2-1.8.6-1.8.4,0ZM1324.9,131.4c-.2.3-.7-.3-.4-.9.2-.3.7.3.4.9ZM1325.5,36.9c-.2.4.3,1,.2,1.2-.5.9-5,1.9-4.7-.3l1.3-.6c-1.9-2.6-2.5,1-4.8.6,1.2.6-.9,2.7-1.3,2.2-.4-1.4.8-1,.9-1.9.5-3.4-.7-1.4-1.7-1.2-.9.2-3.9-.6-3.2,2,.1.5,1.1,0,.9.9-.4,1.8-2-1.4-2.2-1.6-.2-.3-.7-.3-.7-.4-.3-.6,0-1.5-.1-1.6-.1-.2-3.7.3-4.3.4-1.8.5-2.4,1.7-3.9,2.4-1,.5-7.9,3.5-8.3,3.2l1.1-2.2-.3-.4c-3.9,1.8-8.3,4.1-12.4,5.3-3.5,1.1-7.8,1.2-11.3,3.3l1.3,1.3-2.2-.4c0,1.9,2.4,4.4,4.3,4.5,1.1,0,3.5-1,3.1.7-6,3.8-11.4,8.9-17.4,12.8-1.8,1.2-8.4,5.1-10.2,5.5-.5,0-1,0-.4-.4,4.2-3.6,8.6-7.1,12.2-11.3.8-1.1-1.2-4.3-.6-5.1.1-.2,3.1-1.5,3.8-2,3.7-2.8,2.5-5,5-8,1.2-1.4,3.1-2.7,4.7-3.5,2.1-1.1,5.5-1.5,7-2.5,2.6-1.7,13-12.5,14.7-15.2.1-.2.5-.8.8-1.4,7.4-3.7,16.6-3.6,24,0-.7.6-.9,2.1,0,3.9.3.6,1.3,1.1,1.7,1.8.5,1,.8,2.5,1.3,3.3.3.4,2.6,2.1,2.8,2.6.8,2.1-.7,1.9-1,2.3ZM1330.1,132.2h-.4v-2.2h.4v2.2ZM1344.2,132.2v-.4c.3.1.3.3,0,.4ZM1347,129.6h-.4v-3h.4v3ZM1351.1,134.4v-.4c.3.1.3.3,0,.4ZM1364.4,134.8h-.4v-2.2h.4v2.2ZM1570.9,76.4c-.5-.5.4-1.3.9-.9.5.5-.4,1.3-.9.9ZM1530.5,149.1c0,0-.3,0-.4,0v-2.6c1.1.1.9,2.1.4,2.6ZM1533.1,153h-.4c-.2-1.8.6-1.8.4,0ZM1535.3,153.5c-.2.3-.7-.3-.4-.9.2-.3.7.3.4.9ZM1547.9,164.3h-.4c-.2-1.8.6-1.8.4,0ZM1551.8,161.7c-.2.3-.7-.3-.4-.9.2-.3.7.3.4.9ZM1566.9,94.2c-1.4,2-3.1,6.7-5.5,7.5-1,.3-2.1,0-3.1.4-6,1.9-13.2,5.2-18.5,8.6-.4.3-5.5,4.4-5.7,4.7-.4.7-.3,2.3-.8,3.3-.4.7-1.5,1.4-2.1,2.2-1.3,1.7-.6,3.5-3.9,2.5-1.1-.3-.8-1.6-1.8-1.7-.7,0-5.8,1.2-6.3,1.6-1.2.8-1.4,4.9-1.8,6.5-.2,1-1,1.9-1.2,2.7-.3,1.6.3,3.5-.3,4.9-.9,2.1-5.2.3-7.3,1.3-5.8-5-14.8-9.1-19.2-15.6-.5-.8-1.2-3-1.5-3.3-.7-.5-2.4.4-3.9,0-2.7-.7-6.4-4-9-5.3-1.7-.9-2.6.2-3.4-2.3-1.2-.3-.4,1.1-.7,1.3-.2.2-1.7-.1-2.1-.3-1.6-.5-4.1-3.8-4.6-5.3-.4-1.3.8-2.7-2-3.3,0-.7.8-1,1.1-1.5.7-1.3-.1-1.7,2.2-2.6.9-.4.8,1.2.6,1.3-.1.1-2,0-2.2,2.2,1.4-.4,1.2,1.2,2.4.9.2,0,.9-1.7,2.8-.9.5-1.6-1.8-.5-2.2-.9.3-.7-.1-3.3,1.3-3-.9,2,.2,1,1.3,2,1.7,1.5.2,1.9,0,3-.1,1.5,1.6,2,2.8,2.4,1-.2-.3-2.6,2.8-1.3-.3-1.7-.3-3.1,0-4.8,2.1.5.8,3.1,3.9,1.7l-.9,3.5c1.9.5,1.5-1.7,1.7-3,1.1-.3,1.5,2.2,2.6,1.3.2-.2-1.5-2.5,1-1.7.1,0,.3,1,1.3.8-.3.4-.5.8-.8,1.2,6,.9,14.3-.3,18.8-5,1.6-1.7,2.7-3.8,4.2-5.6,3.2-3.8,8-5.9,12.6-7.8,11.9-5,23.6-10.2,35.3-15.6-1.9,1.9-3.7,3.9-5.6,5.7-.3,1.2,1.2.3,1.7.7,0,0,.4,1.8,1,2,.5.1,1-.4,1.6-.1.7.3.9,1.7,2.4,1.6,1.4-.1,1.7-1.8-.2-1.3.7-1.6,2.4-.5,3.6-.5.5,0,1.2-.5,1.7-.4.4,0,.5,1.3.9,1.3.2,0,2.8-1.3,2.8-1.5,0-.1-1.3-1.1-.9-1.9.7,0,1.6.2,2.3,0,.5-.1,0-1.1.7-.9l.2,1.7c.6-.2.6-1.7.9-1.7.5,0,1.2.6,2,.4.5,1.7-2.1.1-1.7,1.5,0,.2,1.7,1.4,2.2,1.1l-1.7.9c-.3.3,1,2.6,2.5,1.9.6-.3.6-1.7,1.4-1,.6.5.4,2,3,1.3-1.8,5-6.3,8-9.2,12.2ZM1583.9,168.2h-.4c-.2-1.8.6-1.8.4,0ZM1608.6,170.8c-.4-.4.8-1.7,1.3-1.3,0,0-.6,2-1.3,1.3Z"/>
  </g>
  <g>
    <path class="st0" d="M980.4,101.4l.2,1.3c.1-.4.1-.8-.2-1.3Z"/>
    <path class="st0" d="M703.9,117.4c.4,0,.8,0,1.2,0,.2-2-1.5-1.7-1.2,0Z"/>
    <path class="st0" d="M1910.8,196.1c-1.4,0-2.7-.7-4.1-.7-2.2,0-4.8,2-7.4,1.2,1-4.3.3-2.2-.5-2.5-.5-.2-1.2-2.1-1.3-2.2-.4-.2-6.5,4.3-6.8-.6-1.3.3-2,1.1-3.6,1.2-.3,0-3.9,0-4.1,0-.4,0-.3-1-.6-1.1-3.5-.3-10.8,1.3-14.5,1.9-2.9.5-2.7,2.6-6.6,2-4.6-.7-2.6-2.5-5.3-4.2-7.6-4.9-17.8-3.7-25.6-.3-1.4.6-2.4,2-3.6,2.3-1.8.3-4.6,0-6.5,0-2.5,0-4,1.9-3.8-2.3-1.7,1.4-1.2-.9-2.1-1.2-1.6-.3-1.3,2.1-1.5,2.3-.6.5-13.7-1.6-15.4-2-5-1.2-10.9-4.1-15.8-5.5-2.8-.8-7.1-.3-9.4-1.2-.7-.3-.9-.5-.8-1.3-1-.3-.3,1.2-.9,1.2-1.1.1-1.9-.8-2.9-.9-1.9-.2-4.3.2-6.2.3l3.5-3.8c-1,0-3.3,2.9-4.1,2.1v-2.9s-1.8,3.5-1.8,3.5l.9-5.3c-2.3.7-1.8,3.6-3.8,4.7.9-3.8,1.1-7.1,3.5-10.4l-4.7,4.4c.2-2.8,2.2-5.6,1.2-8.3l-2.7,4.1.3-3.5-2.7,2.9c.7-2-.1-3.2-2.1-3.2,1.3-4.8,4.7-9.5,4.7-14.5l-2.1,4.1-.9-1.8c-.9,4.2-4.7,7.3-4.7,11.8-2.8-.4-2.8-2.7-3.6,1.2-1,.2-.6-1.3-.5-1.9.5-2.3,1.6-4.3,1-6.9l-3.5,7.1,1.2-10.6-3.3,5.9c-2,1.2-2.9,3.3-3.8,5.3-.9.2-.6-.8-.6-1.5,0-1.7.5-3.1.6-4.7,0-.6.4-2.2-.6-2.1-.6,4.5-2.6,9.1-1.8,13.6-.2.2-1.5-.7-1.7-.5-.3.2.4,1.4-.6,1.1l-.4-1.3c.4,1.5-1.3,2-1.3,2.3-.2,1,.4,5.2-1,5.5-3.1.7-4.4.2-3.8-3-1.3,0-.2,2.6-.6,3-.2.2-6.8.6-5.9-1.2h-.6c0,2.1-4.6,1.5-6.4,1.6-1.6.1-2.7,1.7-3.1-1-1-.2-.3,1-1,1.2-4.8,1.2-12-.9-16.8-1.8,1.7-3.3.4-6.4,1.2-10-1,.2-.8,2.1-1.3,3.1-.3.6-.9,1.4-1.6,1.6,0-1.5,0-3,0-4.4,0-.7.4-2.2-.6-2.1-.6,1.8-.7,4.7-2.4,5.9.6-1.4-1.2-2-1.2-2.1,0-1.2,1.2-3.8.6-5.6-.7.2-1.3,2.1-1.6,2.9-.2.6-.2,1.2-.2,1.9l-1.8-1.2c-.6,4-1.8,4.3-2.1,0-.6.6-1.3,1.2-1.6,1.9-.5,1,0,2.7-1,2.8v-8.6l-1.8-2.7-.6,4.1-1.2-1.8c.7,4.2-1.1,2.2-1.5,2.9-.5.9.2,2.5-.9,2.4-.6-2.7.9-5.5.9-8,0-.5-.1-1.7-.9-1.5.4,2.3-1.5,0-2.3.6-1.3.9-.3,5.9-3,5.9l.6-7.1-2.9,4.7c.9-3.7,2.4-6.6,1.8-10.6l-1.2,2.4-1.5-2.4c-.4,0-1.1,2.9-2.7,2.4l-.5-2.7c.1,1.2-1,5-1.8,4.5-1.6-2.9-1.5-5.7-.6-8.9h-1.8s0,5.3,0,5.3l-1.8-3-.6,4.1-1.2-8.3c-.9,0-1.3,2.2-1.5,2.9-.6,2.2-.8,4.8-.9,7.1-.9-.2-1.1-1.1-1.4-1.9-.4-1.3,0-3.5-1-4-.9,2,.4,6.4-2.4,6.5l-1.2-7.1c-1.6,2.4.5,6,0,7.9-.6,1.9-2.5,1.3-2.9-1.1-.9-5-.9-10.6-1.2-15.7-2.4-.6-.2,2.7-1.8,2.9l-1.2-3.5c-1.1,0-.6,2.5-.5,3.2.7,5.9,4,13.9,4,19.1,0,.5-.4,3.1-.5,3.2-1.2,1.2-1-1.5-1.8-1.2l1.8,6.8c-1.8-.4-2.6.8-4.1,1.5-.2-.3.2-3.5-1.2-3.5l-1.8,4.1-1.2-2.4v3c-1.6-.4-1.5-1.1-2.1.6l-.9-3.5c-1.1,0-.8,1.7-1.5,2.4-1,1-5.6,1.4-4.5-1.2-1-.3-.2,1.1-1,1.2-1.3.2-5.8-.4-5.6-2.4-.9-.3-.6,1.3-1.5,1.8-1.5.8-1.7-.7-1.5-1.8l-1.2,1.2c-.6-1.9.9-3.7,1.1-5.2,0-1.1-.5-2.1-.5-3.3.1-1.8,1.5-3.6,1.8-5.4l-2.4,2.7c0-.9-.3-2.1.1-2.8.2-.3,1.3.3,1-.7l-1.8-1.8c-1-.1-.6,1.3-.6,2.1,0,1.9,0,3.8,0,5.6l1.1-1c-.5,2.2-.8,4.5-1.7,6.6-1,2.4-1.6-.7-2.4-1.2-1.2-.8-3.9,0-5.6-.3-1-.2-1.8-.8-2.9-1-15.6-1.6-31.9-3.2-46.6-8.2-5.6-1.9-12.6-1.6-18.5-2.2-1.8-.5-1.3-2.7-2-2.9-9.6-.7-20.1.2-29.5-.6-6.4-.5-7.9-2.6-12.9-4.2-4.6-1.4-13.5-2.4-18.4-2.9-13.3-1.2-26.7,0-40-1.8-.4-.3,3.7-5.6-1.8-1.2-.7-2,1-3.6,1.2-5.1.1-1.1-1.1-.5-1.3-1.7-.3-2.6,0-6.1.6-8.6-3.9,0-1.1,4.3-4.7,4.1,0-3.4-.9-6.8,0-10.1-1.9,1.2-.6-.6-1.8-.6,0,.5-.3,1.4-.6,1.8,1,0,1.3-.4,1.1.7-.4,2.2-.7,4.1-.5,6.3-1,.1-.6-1.3-.6-2.1,0-1.7,0-3.4,0-5-.1.1-1.2-.2-1.7,1-.3.8-.1,2-.6,3-.8,1.9-2.5,3-1.9,5.5l-2.4-2.8-.6-1.9c0,.6-.4,2.8-.6,2.9-1.2,1.2-.9-1.5-1.8-1.2,0,1.3.3,3.1-1.2,3.5l-.6-1.8-1.5,4.1,2.1-8.3-1.2,1.2-.6-5.9-.9,1.2-.3-2.4-1.8,2.9v-3.5s-.6,4.1-.6,4.1l-2.4-3-.6,5.3c-2.4.6-.2-2.7-1.8-3v6.5c-1,.1-.6-1.3-.6-2.1,0-1.7,0-3.4,0-5l-1.8,1.8v-4.1c-1.1.2-.8,2.1-1.2,3.1-.4.8-2.1,2-2,4-.9,0,0-6.1.3-7.1-.3-.3-1.4,1.5-1.8,1.2-.2-.2.5-1.4-.6-1.2l-.6,8.3-1.8-.6v4.1c-2.3.6-.7-2.8-1.2-3.5-1.8-.2-2.8,3.5-3.2,3.5-1.8.1-1.4-2.2-1.5-2.4-.2-.2-1.6.7-1.8.6-.3-.2-1.1-6.1-1.2-7.1l-1.2,3c-1.2.2-.3-1.5-.6-1.8-1.4-1.6-.7,1.9-1.8,1.8l-.3-1.8-2.1,3.5c-1.5-2-1.3-3.4-1.2-5.9-1.9-.5-1.3,2-1.9,3.1-.4.8-1.2.8-1.5,1.2-.4.5,0,1.5-.2,1.6-1,1.1-1.7-3.1-3-3,.5,3.1-2,6.9-1.8,1.8l-1.2,1.2.6-7.1-1.8,2.4c.6-1.5-1.1-1.8-1.2-2.2-.3-1.2.8-3-1.2-2.5.3,1.8-.6,8-1.8,9.2-1.4,1.4-.9-1.3-1.8-.9.1,2-1.1,1.7-1.5,0-2.4,6.3-1,1-4.4,0-.2,1.4-.3,3.5-1.8,4.1l1.2-7.4-1.2.9v-7.1s-2.7,5.3-2.7,5.3l-1.5-5.3-1.5,3.5-.3-2.4-2.4,1.8-.6-1.8-.6,3.5-1.2-.9-.6,1.5-.6-3.5-1.8,2.4-.6-2.9c-.4,1.1,1.1,5.1-1.2,4.7.9-2.1.2-3.8,0-5.9-.9-.3-1.2,4.8-2.1,2.4-.3-1,.3-1.4.3-2,0-.4-1.1,0-1.2-1.2-.2-1.5.3-3.5,0-5.1-2.1.5-.8,4.1-1.2,4.7-.6-.1-3.9-.7-4.1-.6-.7.5-1.4,7.1-2.1,7.1-1.2-2.8,1-5.4.9-8.3l-.6,1.8c-2-1.6-1.8,2.4-1.8,4.1-2.6.6,0-3.6-1.8-4.1-.2,1.7.8,4.4-1.2,5.3l.6-5.3c-.7-.4-.7,2.6-1.8,1.2-.3-.4.6-2-.6-1.8-.3,1.6-1.2,7.9-2.7,4.1l-.9,1.2c0-1.5,0-3,0-4.4,0-.7.4-2.2-.6-2.1.1,1.8-.9,3.1-1.4,4.8-.4,1.2,1.1,2.7-1,2.3.4-3.5-.7-1.7-1.2-2.1-1.2-.9-.4-4.1-.6-5.6-1.2,0-.3,1.7-.6,2.5,0,.1-1.4,1.6-1.5,1.6-.7,0-1.3-.8-2-.9-2-.4-1.2.1-3.3-.9-.3-.1-1.6,3.8-3.5-1.2l-1.2,1.8c-1.1-3.1-1.5,0-1.8,0l-.3-2.4-1.8,3-.6-4.1c.5,1.7-2.2,6.4-3.8,6.5-.5,0-4.1-.7-4.5-.9-1.3-.6-1.5-3.1-2.2-3.3-1.8-.4-5.4.2-7.6,0-7.6-.7-14.9-4.8-22.5-4.8-2.4,0-7.6.4-10,.7-5,.7-8.2,6.2-14.2,4.7-.9-.2-.5-2.2-1.4-2.4-1.3-.3-3.6.2-5.2,0-3.2-.4-8-1-11.1-1.9-5-1.5-7.9-5.3-13.7-2.1-1.5.8-2.5,3.1-4.2,3.5-1.5.3-3.2-.2-4.7,0-8.6,1.2-17,1.8-25.5,2.9-1.9.2-5.1.2-6.7-.9-1.4-.9-1.2-2.7-3.3-3.2-.5-.1-1.6-.3-1.5.6l1.8,1.2-16.6-2.4c.4-1.1,3.5-.7,4.5-.6,5.3.3,11,1.3,16.2.5.6-8.2-5.3-4.5-10.6-4.1-.1,1,1.3.6,2.1.6,1.9,0,3.8,0,5.6,0-.1.8-.8,1-1.5,1.2-3.7.6-8.1-.5-11.5-.6-11.3-.3-21-1.8-32-2.4-3.2-.2-6.3.3-9.5-.6,0,3.7-2.2,5.4,3,5.3-.6.7-.5,2.8-.6,2.9-.7.7-10.5-.6-12.1-1.7l-18.9,2.7c-2.3-.1-1.6-2.6-2.5-2.8-2.7-.7-14,0-17.7,0-2,0-3.8,1-5.9.6-1-.2-4.9-3.4-7-4.3-1.4-.5-8.5-2.8-9.6-2.9-6.8-.4-3.9,8.2-8.1,8.2-1.7,0-6.1-1.4-8.4-1.6-2.8-.3-10.2,0-12.3-1.2-.4-.2-.3-1.2-.7-1.2-.6,0-1.4.6-2.3.6-2.6-.2-5.4-1-8.1-1.1,1-1.2,0-2.8,0-3l-2.1,2.4-.3-1.8c-.2.1-1.3.2-1.8.6.4-.9-.6-2.1-.6-2.4l-1.2.9-.4-3.7c-.3.9-1.3,1.2-1.3,1.4-.2.7.1,2.4,0,2.6,0,.1-2.8,0-2.9,0-.2-.2-.8-5.5-1.3-6.6-.2-.5-1-.5-1.3-1.2-.6-1.4-1.1-3-1-4.6-.7,1.2-.6,1-.6,2.4,0,3.6,1.7,7,1.2,10.6h-20.1c-.7-3.3-64.4-10.9-65.8-2.4-5.2,1.7-10.1-.7-15-1.1-1.6-.1-3.1.1-4.5.3.9-9.5,1.5-24.8,1.7-31.9,0-.6,1.3-.9,1-2.3-.3-1.4-.9-1.5-.9-1.6-.2,0,.8-4.8-.6-5.1-1.3-.3-.6,5.1-1.1,5-3-.9-8.3-3.4-8.7-4-.3-.5-.9-6.6-1.3-8.2-.3-1.3-2.6-3.8-2.9-4.2-.1-.2-.5-.8.3-1.1.9-.3,1.7.1,2-.5.3-.6.4-.9.5-1.7,0-.6.6-.5.7-1.1,0-.4-.4-1.1-.5-1.7,0-.5.2-1,.2-1.2,0-.4.4-.8.4-1.2,0-2.2-6.6-4.8-9.2-.8-4.6-1.1-5.8,6.9-3.2,8.2.1,0,.3,0,.4,0-.2.4-.5.8-1.1,1.1-1.3.6-.8-3.5-3.2-1.8-3,2.1-1.7,5.5-2,6-.6,1,0,2.2-.4,3.2-.4,1.3-2.9,1.1-3.4,4.9-1,7.4,6.2,7.2,6.2,7.2,0,0,1.1,7.2,1,12.5,0,4.6-1.4,7.4-1.4,9.2,0,2.9,1.2,10.5.5,12.4-.6,1.8-10.2,2.4-12.4,3.3h-.6c0,.4,0,.9-.3,1.2-1.1,1.3-6.7.4-10,.2,1.3-10.3,3.8-38.4,5.4-38.7,1.9-.4,1.3-4,1.2-5.6s-.9-.3-1.1-1.2c-.2-.9.3-3.2,0-3.1-.8.2-.7,3.3-1.2,3.7-.8.8-2.1,1.8-3.2,2.1-.8.2-5.2-.9-5.4-1.2-.2-.3-.6-6.1-.9-7.6-.7-2.7-4.7-6.1-4.2-8.3.6-2.5,2.2.5,3-.6.3-.5,1-1.6,1.3-2.2.4-.7.8.1,1.1-.7.2-.5-.3-1.4-.3-2.2,0-.6.3-1.2.4-1.8h2c0,0,1.6-.2.5-.9-1.2-.7-2.5-.6-2.5-.6,0,0-.3-1.9-2.6-3.5-1.7-1.2-5.3-1-7.2,1.5-2.4,1.7-.4,5.8-.9,7.1-.2.4-1.4,1.5-2.2,2.6-.6.8-4.2-4.7-9.2.8-1.6,1.8-4,4.4-2.6,7.2,1.4,2.8.1,2.7-.7,5.6-.8,2.9.2,7.3,1.1,9.2.7,1.6,1.7,3,2.8,3.7.3.2,4.1-.3,4.1-.3,0,0,.4,0,.6,0,.6-.1,1.6-1.5,1.8-1.2.4,1.3-.8,3.4-.5,4.4.2.7,1.4.7,1.7,1.4.2.5,1.7,11,1.7,11.7,0,2.8-2.9,9.2-3.1,11.1-.1,2.2-1.6,5.8-.4,8.1-5.7.7-11.2,2.3-16.6,4.1-.3.4-.7.5-1.2.6-.2,0-.4,0-.6,0-.3,1.1-.4,3.3-1.8,2.1.2-.6,1.1-1.7,1.2-2.1,0-.3,0-.8,0-1.2h-.8c-.7,1.8-1.3,1.6-2.2,0,0,0-1.7,1.3-1.8,1.2l.6-3.3c-2-1.4-1.3,4.1-2.9,5-1.4-3.4-.3-5.7.6-8.9l-3.9,5.9-.3-2.9-1.8,1.8c.2-1.4.4-2.7.6-4.1.1-.9-.1-2,0-3h-.6c-.6,2.1-.8,5.5-3,7.1l.6-9.5c-.5,1.5-.5,3.8-1.8,2.9,0,0,.2-.5-.6-1.2-.2.8-.5,1.6-.6,2.4-2.8-.1-1.5-4.3-1.9-6.7-.2-1.2-1.3-2.4-1.6-3.4v6.5c-1,1.4-2.7-10.6-4.1-10.6l1.2,7.7-2.9-2.1c.5,1.7,1.6,2.9,2.4,4.4.7,1.5,1.7,3.1,1.8,4.7l-3.5-3.3,4.3,7,.7,4-2.7-3.5-.6,5.3c-3.1-1.3-2,.1-3,.8,0,0-1.5.9-1.6.9-1.2.4-2.5,0-3.7.6-.2-.3,1-4.4-.6-4.7l-.2,2.8-2.2,1.9c-.2-1.7.3-3.9,0-5.5,0-.2-1.6-1.2-1.8-2.2h-.6c0,.4.5,7.1-1.2,5.3-.2-.2-.9-4.5-1.8-5.3l-.6,1.8c-1.7-.6-1-2.2-.6-3.5-.3,0-.5-.4-.9-.4l-.3.4c.3,3.4-4.1,3.3-6.8,3.5-1,0-3-.5-3.5-.5-.2,0-1.6,3.4-2.9-1.3-1,.4-.8,2.3-.9,2.4-.3.2-1.1-.5-1.5-.5-.4,0-.2,1.1-.6,1.1-.7,0-2.1-.8-3.5-.7-1.1,0-.8,1.1-1.3,1.2-1.2.3-2.9-.2-4,0-.7.1-.1,1.6-.3,1.8-.3.3-2.1-1.4-3.6.3-.4.4-1,2.9-1.7,1-.5-1.1.8-1-1.2-1.3,0,.9-.5,1.8-.3,2.9l-2.1-.6.6-2.4c-1.5-.9-1.6,3.8-3,2.4-.3-.3.8-2.2.6-2.9l-3.5,2.9-.3-4.7c-.5.9-2.1,1.4-2.5,1.9-.5.6-.7,3.9-1.9,2.8-.7-.6,0-3.8-1.2-4.1v4.1c-1.2-.2-1.4-2.6-2.6-2.3-1.4.3-1.5,3.3-3.3,2.9l1.2-4.7-4.1,3.5v-3.5s-1.2,1.2-1.2,1.2l-.6-1.8c-.3,1.5-.9,3.9-2.4,4.7-.5-1.7,1.3-7.9.6-8.9-1.1-1.4-1,1.5-1.8,1.2v-3.5c-1.2.7-.3,3-1.1,4.3-.5.8-2.1.8-2.7,1.6-.2-2.6.9-5.6-2.7-5.9l-.6,5.3-1.8-2.4-.9,3c-.6,0,0-5-1.5-5.3-.5,1.8-.8,4.8-2.4,5.9-.9-2.3-.5-4.7-.6-7.1,0-.2,0-.4,0-.6-2.8-.4-1.8-3-3.5-4.1.4,1-.1,3.7,0,4.3.1.5,1,.1,1.2,1.2.6,4.9,0,10.8,1.1,15.7l-2.4-4.7v5.3s-1.8-1.8-1.8-1.8c-.4,4.3-1.9,4-2.4,0h-.6s-.6,2.4-.6,2.4l-.3-2.4-2.1-4.1-1.8,5.9-.6-2.4c-1.3-.2.2,2.3-1.5,1.8-.8-.2.5-2.3-1.5-1.8-.3,1.1.2,4.5-1.8,4.1,0-1.1,1.6-4.1,0-4.7-.1,1.5-.1,4-1.8,4.7.9-3.4.9-6,.6-9.5l-.6,5.6-1.2.9c1.1-4.3-2.3-6.6-1.8-10.6l-1.8,2.4-.9-4.7c-2,1.5-.1,3.5.1,5.2.5,3,.8,6,1.3,9l-5.3-9.5c-.7,2.2,3.2,9.3-.6,7.3l-2.4-5.5.6,4.7c-.7-.5-2.9.1-3,0-.5-.6,1-3.5-1.2-3,1.2,2.8.4,5.9.6,8.9l-.9-1.2-1.5,1.2-.6-2.4c.5,3.4-.4,5.9-4.2,5.9.3-2,1.2-3.9,1.6-5.7.2-.6.6-2.1-.5-1.9-.6,1.6-1.3,3.8-2.1,5.3-.4.8-1.2.9-1.4,1.2-.2.2.3,1.2-.3,1.2-.5,0-.4-.9-.3-1.2-.3.6-1.2,2.2-1.8,2.4-.5-2.4,2.5-7.2-1.2-6.5l-1.2,8.3-1.8-2.4c0,1.2,0,2.4-.2,3.7-.1.6-.2,2.3-1,2.2-.7-3.8,1.4-6.9,1.2-10.6-1.4,0-1,3.3-1.2,3.5-1.1,1.3-1-1.5-1.8-1.2l-1.2,2.9c1.2-5.7.1-10.5-1.2-16l-1.2,6.2c.9,2.4-.9,5.1-1.1,6.6-.1,1.1,1.8,3.2,1.1,4.9-.9-.1-1.3-2.2-1.5-2.9-.8-2.7-1.4-6-1.5-8.9-1.7.2-.6,2.2-.6,2.7v10.3c-.9,0-1-2.6-1.1-3.3-.3-2.4,0-4.9-.7-7.3-1-.1-.6,1.3-.6,2.1,0,1.7,0,3.4,0,5l-1.8-4.1c-.3,1.4.3,2.7.4,4,0,.7.7,2-.4,1.9-2.5-3.7-.3-10.4-1.2-13.3-.2-.7-1.4,0-1.8-.7-.3-.6-.4-3-.6-3.2-.3-.3-1.2-.5-1,.7.3,1.9.9,3.8,1,5.8l-1.2-.3c2.2,4.1,3.3,8.6,3,13.3l1.2-1.2c1.6,4.2-1.1,2.9-1.7,3.6-.7.8,1.3,1.9-2.2,2.9-.8.2.4-2.5-.9-2.4-.2.9.3,2.8,0,3.5-1,1.6-19.4,5.1-22.4,5.4v-4.7s-1.2,4.1-1.2,4.1c-.9-5.8-1.9-11.9-.6-17.7l-.9,1.8-.9-1.8v5.3s-1.2-4.1-1.2-4.1c-1.5,0,0,1.7,0,2.1v9.8l-1.8-2.4v5.3h-1.8l-.6-5.9c-.2.8.2,3.2,0,3.5-.3.4-.6.4-.8.2v-3.3c-2.4-.2-4.8-.5-7.2-.8-.1-.1-.2-.2-.3-.3,0,0,0,.2,0,.2-.3,0-.7,0-1-.1l-.8-3.6c0,1,.2,2.4,0,3.5,0,0-.2,0-.3,0-1.1-.2-2.4.2-3.5,0-.2,0-.4-.1-.6-.2l-.9-1.5c0,.2,0,.4,0,.7-.5-.6-1-1.2-1.6-1.5-4.2-2.3-6.4.3-10,1.5l-.8-3-.4,3.3c-2.3.6-5.3,1-7.5,1.2-1.2.1-3-.2-3.9,0-.7.2-.4,1.6-1,1.8-1.1.3-2.2.2-3.1,0,0-.6,0-1.3-.1-1.7-.2-.6-1.4-.6-1.7-1.4-.5-1.6.2-4.4,0-6.1l-1.2,2.4-1.2-3-.6,2.4-.3-3.5c-.7,0-.8,4.6-.9,7.9-.5-.2-1-.3-1.5-.4-1.8-.2-5.7-.5-7.5-.5-5.7,0-11.2,3-16.9,3.6-1.7.2-4.3-.3-5.7,0-.5.1-.7,2-1.6,2.5-.3.1-3,.7-3.4.6-1.2,0-3.2-3.5-2.8-4.9l-.4,3.1-1.3-2.2-.2,1.8c-.2,0-.5-2.3-1.3,0l-.9-1.3c-1.5,3.7-2.5.8-2.7.9-1.6.8-1,.4-2.5.7-.5,0-.9.6-1.5.7,0,0-1.1-1.2-1.1-1.2-.2-.6.4-1.9-.5-1.9-.2,1.1.4,3.5-.4,4.2-.3.3-1.2-1.1-.9,1.6-1.5.3-.5-.8-.7-1.7-.4-1.3-1.2-2.3-1.1-3.6-.8-.1-.4,1-.4,1.5,0,1.1,0,2.2,0,3.3l-.7-.9c-1.1,2.8-1.7-1.9-2-3.1-.9-.1-.2,1.1-.4,1.3-.8,1-.8-1.2-1.3-.9l.4,4c-1.5-.7-.7-2.7-.9-4-1.3.4.6,3.6-1.3,3.1,0-1.3.1-4.3-1.3-3.1l-.4-1.3c-.1,2.1,1.6,4.1.7,6.2-.5,0-1.1-4.9-1.6-5.3-.1,0-2.6.3-3.1.4-.3-.5.7-3.2-.9-3.5-.2,1.2.2,2.7,0,3.8-.1.8-.9.6-.9.9,0,.4.5.8.2,1.5-.6,1.8-.9-2-1.6-1.8-.1,1.6-.7,2.8,0,4.4-1.7.3-.6-2.7-.9-3.5l-.4,2.2-1.3-1.8-.4,2.7-.4-1.1-.9.7-.5-2.7-.4,1.3-1.8-1.3-.2,1.8-1.1-2.7-1.1,4-2-4v5.3s-.9-.7-.9-.7l.9,5.5c-1.1-.5-1.2-2.1-1.3-3.1-2.6.8-1.5,4.7-3.3,0-.3,1.2-1.2,1.5-1.1,0-.6-.3-.3,1.7-1.3.7-.9-.9-1.5-5.5-1.3-6.9-1.5-.3-.6,1-.9,1.9,0,.3-1.3.5-.9,1.6l-1.3-1.8.4,5.3-.9-.9c.1,3.8-1.7,1-1.3-1.3-.9-.1-1.4,3.1-2.2,2.2,0,0,.2-.8-.1-1.2-.2-.3-.8-.3-1.1-.9-.4-.8,0-2.7-1.4-2.4,0,1.9.2,2.9-.9,4.4l-1.5-2.7-.2,1.3c-.8,0-.3-2.5-1.3-1.3-.2.2.4,1.5-.4,1.3l-.9-2.2c0,.8-.7,5.1-.9,5.3,0,0-1.2-.6-1.3-.4,0,0,.2,1.9-1.1,1.8-.4,0-1.1-2.8-2.4-2.7-.4.5.8,3.1-.9,2.7v-3.1s-1.3.4-1.3.4l-.5-6.2c-.8-.2-.3.7-.4.9-.2.2-1.1-1.1-1.3-.9.2.7.9,5.3.2,5.3,0-1.5-1.2-2.4-1.5-3-.3-.7-.1-2.2-.9-2.3v3.1s-1.3-1.3-1.3-1.3c0,1.3,0,2.5,0,3.8,0,.5.3,1.6-.4,1.5v-4.9c-1.2.2.5,2.7-1.3,2.2l-.4-4-1.8,2.2-.4-3.1v2.7s-1.3-2.2-1.3-2.2l-.2,1.8-.7-.9-.5,4.4-.9-.9,1.6,6.2-1.1-3.1-.4,1.3c-1.1-.3-.9-1.7-.9-2.7-.6-.2-.4,1.8-1.3.9-.2-.1-.4-1.8-.5-2.2l-.5,1.5-1.8,2.1c.4-1.8-.8-2.7-1.4-4.1-.3-.8-.2-1.7-.4-2.3-.3-.9-1.2-.6-1.2-.7,0,1.3,0,2.5,0,3.8,0,.5.3,1.6-.4,1.5.2-1.7,0-3.1-.4-4.8-.2-.9,0-.5.8-.6-.2-.3-.4-.9-.5-1.3-.9,0,.1,1.4-1.3.4.7,2.4,0,5,0,7.6-2.7.1-.6-3.1-3.5-3.1.4,1.9.7,4.5.5,6.5-.1.9-1,.4-.9,1.3.1,1.1,1.4,2.3.9,3.8-4.1-3.3-1,.6-1.3.9-9.9,1.4-20,.5-30,1.3-3.7.3-10.4,1.1-13.8,2.1-3.8,1.2-4.9,2.8-9.7,3.2-7.1.5-15-.1-22.2.4-.5.1-.2,1.8-1.5,2.2-4.4.5-9.7.2-13.9,1.6-11.1,3.7-23.3,4.9-35,6.1-.8,0-1.4.6-2.1.7-1.2.2-3.3-.3-4.2.2-.6.4-1.1,2.7-1.8.9-.6-1.6-.8-3.3-1.2-5l.8.7c0-1.4,0-2.8,0-4.2,0-.5.3-1.7-.4-1.5l-1.3,1.3c-.2.7.6.3.8.5.3.6,0,1.5.1,2.1l-1.8-2c.2,1.4,1.2,2.7,1.3,4,0,.9-.4,1.7-.3,2.5,0,1.1,1.2,2.5.8,3.9l-.9-.9c.2.8,0,1.9-1.1,1.3-.7-.3-.4-1.5-1.1-1.3.2,1.5-3.2,1.9-4.2,1.8-.5,0,0-1.1-.7-.9.8,1.9-2.6,1.7-3.4.9-.5-.5-.3-1.8-1.1-1.8l-.7,2.7c-.4-1.3-.4-.7-1.6-.4v-2.2s-.9,1.8-.9,1.8l-1.3-3.1c-1,0-.7,2.4-.9,2.7-1.2-.5-1.7-1.4-3.1-1.1l1.3-5.1c-.6-.2-.4,1.8-1.3.9,0,0-.4-2.1-.4-2.4,0-3.9,2.5-9.9,3-14.3,0-.5.5-2.4-.4-2.4l-.9,2.7c-1.2-.2.5-2.7-1.3-2.2-.2,3.8-.2,8-.9,11.8-.3,1.8-1.7,2.3-2.2.8-.4-1.4,1.2-4.1,0-5.9l-.9,5.3c-2.1,0-1.1-3.4-1.8-4.9-.7.4-.5,2.1-.7,3-.2.6-.3,1.3-1,1.4,0-1.7-.2-3.7-.7-5.3-.1-.5-.5-2.1-1.1-2.2l-.9,6.2-.4-3.1-1.3,2.2v-4s-1.3,0-1.3,0c.7,2.4.8,4.5-.5,6.6-.6.4-1.4-2.5-1.4-3.4l-.4,2c-1.2.4-1.7-1.8-2-1.8l-1.1,1.8-.9-1.8c-.5,3,.6,5.2,1.3,8l-2.2-3.5.4,5.3c-2,0-1.3-3.8-2.2-4.4-.6-.4-2.1,1.3-1.8-.5-.6-.1-.7.7-.7,1.1,0,1.8,1.1,4,.7,6-.8,0-.3-1.1-.6-1.8-.3-.5-1.6,1-1.1-2.2l-.9,1.3-.5-3.1-1.3,2v6.4c-.8,0-.4-1.3-.8-2.1-.3-.6-.8-1-1.2-1.4-.2,3.2-1.1,3-1.6,0l-1.3.9c0-.5,0-1-.1-1.4-.2-.5-.6-2-1.2-2.1-.5,1.3.5,3.3.4,4.2,0,.1-1.4.6-.9,1.6-1.2-.9-1.3-3.1-1.8-4.4-.8-.1-.4,1-.4,1.5,0,1.1,0,2.2,0,3.3-.6-.1-1-.7-1.2-1.2-.4-.8-.2-2.2-1-2.3.6,2.7-.4,5,.9,7.5-3.6.7-9,2.2-12.6,1.3-.5-.1,0-1.1-.7-.9-.3,2.1-1.1.8-2.3.7-1.4,0-4.8.4-4.8-1.2h-.4c.6,1.3-4.3,1.1-4.5.9-.3-.3.5-2.2-.4-2.2.5,2.4-.5,2.8-2.8,2.2-1-.2-.6-3.4-.7-4.2,0-.2-1.3-.6-1-1.7l-.3,1c-.8.2-.3-.7-.5-.8-.2-.1-1.1.6-1.3.4.6-3.3-.9-6.8-1.3-10.2-.7-.1-.5,1.1-.5,1.6,0,1.2.5,2.3.5,3.5,0,.5.2,1.2-.5,1.1-.7-1.5-1.4-3.1-2.9-4l-2.5-4.4.9,8-2.7-5.3c-.4,2,.4,3.5.8,5.2,0,.4.4,1.6-.3,1.4-.5-2.9-.6-1.2-2.7-.9,0-3.4-2.9-5.7-3.6-8.9l-.7,1.3-1.6-3.1c0,3.7,2.6,7.2,3.5,10.9-1.4,0-2,.9-1.5,2.4l-2-2.2.2,2.7-2-3.1c-.8,2,.8,4.1.9,6.2l-3.5-3.3c1.9,2.4,2,4.9,2.7,7.8-1.5-.8-1.1-3-2.9-3.5l.7,4-1.3-2.7v2.2c-.6.6-2.3-1.6-3.1-1.6l2.7,2.9c-1.4,0-3.2-.4-4.7-.2-.8,0-1.4.8-2.2.7-.5,0,0-1.2-.7-.9,0,.6,0,.8-.6,1-1.8.7-5,.3-7.1.9-3.6,1-8.1,3.2-11.9,4.1-1.3.3-11.1,1.9-11.5,1.5-.2-.2,0-1.9-1.2-1.7-.6.2-.3,1.9-1.6.9.1,3.2-1,1.8-2.9,1.8-1.5,0-3.6.3-4.9,0-.9-.2-1.7-1.3-2.7-1.7-5.9-2.5-13.6-3.5-19.2.2-2,1.3-.5,2.6-3.9,3.2-2.9.5-2.8-1.1-5-1.5-2.8-.5-8.3-1.7-10.9-1.4-.3,0-.1.8-.5.8-.2,0-2.8,0-3.1,0-1.1,0-1.7-.7-2.7-.9-.2,3.7-4.8.3-5.1.5,0,0-.6,1.5-1,1.7-.6.2-1.1-1.4-.4,1.9-2,.6-3.9-.9-5.6-.9-1.1,0-2.1.5-3.1.5-2.3,0-4.5-.8-6.9-.5l.3,15.1h559.6s1359.8,0,1359.8,0l.3-20.1c-3.1-.5-6.2.5-9.2.6ZM1750.7,159.4h-.6c-.3-2.5.9-2.5.6,0ZM1635.2,147.5h-.6v-2.9h.6v2.9ZM213.7,162.3h.4v2.2h-.4v-2.2ZM127.5,173.4h-.4c-.2-1.8.7-1.8.4,0ZM124.2,185.8c-.3-.1-.3-.3,0-.4v.4ZM158.6,204.9c-2.1-.4-4.6.4-6.4.4-1.5,0-4.8-.2-6.2-.3-.5,0-2.9-1.9-4.3-2.4-2.3-.7-3.8-.5-6.2-1.3-.6-.2-1.7-.2-2-.4-.7-.5-.4-4.2.4-4.8l-.9-.4c.8,0,1.6,0,2.4,0,3.4.3,18,3.9,20.8,5.4,1.7.9,0,.7-.1,1.1-.1.6,0,1.3,0,1.9.3.4,3.2-.8,2.7.9ZM371.4,153.4h-.4v-1.8h.4v1.8ZM408.3,152.5l-.4-3.1c.8,0,1.4,3,.4,3.1ZM559.8,145.6v-.9h.2c0,0-.2.9-.2.9ZM596.4,139.9v-.6c.4.2.4.4,0,.6ZM598.5,138.1h-.6v-3.5h.6v3.5ZM634,125.7c-.7-1.5.8-2.5,1.7-1.7,0,0,.7,2.2.6,2.3-1,1.1-1.3-2.2-2.4-.6ZM818,109.9c-1.1,0-2.2,1-3.4,1-1.1,0-1.2-.3-1.8-.6-.9-.3-4.1-1.9-4.3-2.5-.6-1.3-.7-8.6-.4-10.2.2-1.7,1.7-3.4,2.2-5.5,1.7-6.8,3.2-15,3.7-22,2.9.3,8.3.6,8.3.6,0,0,1.3.6,1,1.7,0,0-3.3,27.3-4.2,37.5-.4,0-.8,0-1.1,0ZM849.2,44.1c-.1.6-.6,2.2-1,3.4.6-1.9,1.1-3.8,1-3.4ZM853.7,105c-1-.3-4.1-.3-4.6-.7-2.7-1.8.5-12.7,1-15.6.4-2.4.2-5.4.7-7.9.8-.9,3.3,3.3,3.4,3.9-3.2,6.1-.4,13.7-.5,20.3ZM863.3,103.3c-1.4-.4-3.7-.9-3.7-1.6,0-.5-.6-1.5-.6-2.3-.1-5.1.6-7.8,1.1-12.5.7-5.5-1.9-8.9-2.3-13.6-.1-1.6-1.3-4.9-.6-5.4,3.2,2.3,10.8,4.1,10.8,4.1,0,0-1,20.6-1.5,32.3-.7,0-1.4.2-2,.1-1,0-.8-1.1-1.3-1.2ZM1375.9,131.6c-1.3-.1-.5-4.1.6-4.1l-.6,4.1ZM1425.6,132.8h-.6v-2.4h.6v2.4ZM1754.5,175.9v-.6c.4.2.4.4,0,.6Z"/>
  </g>
</svg>