<svg width="130" height="50" viewBox="0 0 130 50" fill="none" xmlns="http://www.w3.org/2000/svg">
<g clip-path="url(#clip0_395_19)">
<path d="M19.7839 7.62355C28.989 7.62355 36.7175 13.3588 38.8861 21.839V1.67135C38.8861 0.883847 38.2456 0.244141 37.4573 0.244141H2.00594C1.21756 0.244141 0.577881 0.883847 0.577881 1.67135V22.2721C2.58968 13.5544 10.4249 7.62355 19.7839 7.62355Z" fill="#1467BD"/>
<path d="M38.6895 32.4406L31.1819 23.0678L28.0158 27.0722L20.2064 16.9531L10.0745 27.7575L6.64568 24.9112L0.786938 32.1075L0.577881 32.3656V48.5737C0.577881 49.3619 1.21756 50.0002 2.00594 50.0002H37.4573C38.2456 50.0002 38.8861 49.3619 38.8861 48.5737V32.6862L38.6895 32.4406Z" fill="#228B22"/>
<path d="M5.038 39.9318V41.3252C5.038 41.6627 5.09468 41.8958 5.20731 42.0244C5.32067 42.1538 5.56506 42.2185 5.94269 42.2185V42.8149H2.1355V42.2185H2.24812C2.61471 42.2185 2.85174 42.1502 2.96142 42.0171C3.0711 41.8825 3.12631 41.6516 3.12631 41.3259V37.0127C3.12631 36.6796 3.06963 36.4465 2.957 36.3156C2.84438 36.1862 2.60808 36.1193 2.24886 36.1193H2.1355V35.5222H6.02881V36.1193H5.9103C5.54666 36.1193 5.31184 36.1877 5.20215 36.3208C5.09247 36.4553 5.038 36.6862 5.038 37.0119V39.0458L7.01447 37.2266C7.35897 36.9112 7.53122 36.6531 7.53122 36.4524C7.53122 36.2303 7.31407 36.1185 6.87976 36.1185V35.5215H10.1106V36.1185C9.81613 36.1185 9.50843 36.1943 9.18454 36.3458C8.86212 36.4958 8.40352 36.8465 7.81168 37.395L7.14918 38.0068L9.1573 40.9869C9.49444 41.4899 9.77417 41.8208 9.99427 41.9796C10.2158 42.1391 10.5103 42.2193 10.8813 42.2193V42.8156H6.68616V42.2193C7.23162 42.2193 7.50472 42.1105 7.50472 41.8913C7.50472 41.7972 7.39357 41.5906 7.17126 41.2671L5.78148 39.2428L5.038 39.9318Z" fill="white"/>
<path d="M15.1133 39.3296V41.1318C15.1133 41.4759 15.1331 41.7002 15.1736 41.8068C15.2127 41.9134 15.3187 42.0002 15.4909 42.07C15.6632 42.1399 15.9252 42.1752 16.2763 42.1752C16.7548 42.1752 17.1052 42.1163 17.3297 41.9972C17.5535 41.8803 17.7552 41.6715 17.9326 41.3737C18.1093 41.0766 18.2388 40.759 18.3176 40.4215H18.9197L18.8719 42.8141H12.1953V42.2178H12.33C12.6922 42.2178 12.9285 42.1494 13.0382 42.0163C13.1478 41.8818 13.2031 41.6509 13.2031 41.3252V37.0009C13.2031 36.6671 13.1456 36.4347 13.0337 36.3046C12.9204 36.1737 12.6856 36.1082 12.3308 36.1082H12.196V35.5215H18.4148L18.5222 37.409H17.9201C17.8119 37.0796 17.6911 36.8163 17.5594 36.6215C17.4254 36.4252 17.2922 36.3002 17.1582 36.245C17.0228 36.1899 16.796 36.1605 16.4766 36.1605H15.1133V38.6781H15.792C16.1151 38.6781 16.3293 38.6178 16.4361 38.4965C16.5413 38.3752 16.6017 38.1333 16.6157 37.7752H17.2237V40.2494H16.6157C16.6201 40.2031 16.6216 40.1693 16.6216 40.1465C16.6216 39.9391 16.5774 39.7516 16.4891 39.5825C16.4015 39.4141 16.1755 39.3288 15.8133 39.3288L15.1133 39.3296Z" fill="white"/>
<path d="M24.1182 39.3296V41.1318C24.1182 41.4759 24.138 41.7002 24.1778 41.8068C24.2175 41.9134 24.3228 42.0002 24.4951 42.07C24.6673 42.1399 24.9294 42.1752 25.2812 42.1752C25.7582 42.1752 26.1094 42.1163 26.3339 41.9972C26.5584 41.8803 26.7593 41.6715 26.9375 41.3737C27.1142 41.0766 27.2437 40.759 27.3217 40.4215H27.9246L27.876 42.8141H21.1995V42.2178H21.3349C21.6971 42.2178 21.9334 42.1494 22.0423 42.0163C22.152 41.8818 22.2072 41.6509 22.2072 41.3252V37.0009C22.2072 36.6671 22.1505 36.4347 22.0379 36.3046C21.9245 36.1737 21.6905 36.1082 21.3356 36.1082H21.2002V35.5215H27.4196L27.5271 37.409H26.9242C26.816 37.0796 26.696 36.8163 26.5643 36.6215C26.4303 36.4252 26.2971 36.3002 26.1616 36.245C26.0276 36.1899 25.8009 36.1605 25.4807 36.1605H24.1182V38.6781H24.7969C25.1193 38.6781 25.3342 38.6178 25.4402 38.4965C25.5462 38.3752 25.6066 38.1333 25.6206 37.7752H26.2286V40.2494H25.6206C25.6243 40.2031 25.6265 40.1693 25.6265 40.1465C25.6265 39.9391 25.5816 39.7516 25.494 39.5825C25.4064 39.4134 25.1804 39.3288 24.8182 39.3288L24.1182 39.3296Z" fill="white"/>
<path d="M33.0839 39.5879V41.3247C33.0839 41.6585 33.1406 41.8909 33.2532 42.021C33.3666 42.1519 33.6022 42.2181 33.9614 42.2181H34.1285V42.8144H30.1719V42.2181H30.3C30.6636 42.2181 30.8992 42.1497 31.0088 42.0166C31.1178 41.882 31.173 41.6511 31.173 41.3254V37.0122C31.173 36.6791 31.117 36.446 31.0037 36.3151C30.8903 36.1857 30.6562 36.1188 30.3007 36.1188H30.124V35.5217L33.0847 35.457C33.8245 35.457 34.3957 35.4769 34.7998 35.5166C35.2047 35.5563 35.5742 35.6644 35.9121 35.8445C36.2492 36.0232 36.5032 36.2607 36.674 36.557C36.8433 36.8534 36.9294 37.1754 36.9294 37.5284C36.9294 38.0041 36.7814 38.4122 36.4855 38.7519C36.1896 39.0894 35.8193 39.3144 35.3755 39.4232C34.9323 39.5328 34.3479 39.5879 33.6228 39.5879H33.0839ZM33.0839 38.9423H33.4395C34.01 38.9423 34.3905 38.8181 34.5812 38.5688C34.7711 38.3188 34.8668 37.9864 34.8668 37.571C34.8668 37.1982 34.7961 36.896 34.6563 36.6644C34.5164 36.4342 34.3383 36.2828 34.1241 36.2136C33.9084 36.1431 33.5617 36.1085 33.0839 36.1085V38.9423Z" fill="white"/>
<path d="M54.9569 16.0068H50.4806V15.4605H50.8435C51.1526 15.4605 51.3632 15.4421 51.4765 15.4039C51.5892 15.3664 51.6451 15.3002 51.6451 15.2046C51.6451 15.0664 51.4824 14.7693 51.1578 14.3134L49.4272 11.873L48.404 12.77V14.5097C48.404 14.8619 48.4857 15.109 48.6484 15.2487C48.8111 15.3892 49.1202 15.4597 49.5759 15.4597V16.0061H45.5449V15.4597C45.8902 15.4597 46.1434 15.4237 46.309 15.3524C46.4732 15.2818 46.5806 15.1803 46.63 15.0494C46.6793 14.9186 46.7043 14.7384 46.7043 14.509V9.44945C46.7043 9.2193 46.6822 9.04063 46.6366 8.91268C46.5902 8.78327 46.4835 8.68254 46.3149 8.60901C46.1463 8.53621 45.8902 8.49945 45.5449 8.49945V7.95312H49.5759V8.49945C49.0812 8.49945 48.7617 8.57077 48.6182 8.71342C48.4761 8.85533 48.404 9.10165 48.404 9.44945V11.8722L50.9134 9.68107C51.0879 9.53033 51.2145 9.40165 51.294 9.29283C51.3727 9.18327 51.4132 9.06268 51.4132 8.92739C51.4132 8.64283 51.1416 8.50018 50.5984 8.50018V7.95386H54.2789V8.50018C53.9926 8.52371 53.76 8.55754 53.5804 8.60092C53.4 8.6443 53.2248 8.71562 53.054 8.81489C52.884 8.91415 52.6978 9.04504 52.4946 9.2068C52.2936 9.3693 51.9742 9.63989 51.5376 10.02L50.6933 10.7509L53.0717 14.1355C53.3257 14.4958 53.534 14.7642 53.6959 14.9399C53.8593 15.1164 54.0331 15.2436 54.2193 15.323C54.4055 15.4024 54.6514 15.4472 54.9562 15.4597L54.9569 16.0068Z" fill="#1467BD"/>
<path d="M61.8352 14.7531C61.8352 15.0539 61.7741 15.3105 61.6511 15.5223C61.529 15.734 61.3626 15.8899 61.155 15.9906C60.9467 16.0921 60.7119 16.1429 60.4505 16.1429C60.1178 16.1429 59.8396 16.0649 59.618 15.9083C59.3964 15.7517 59.2632 15.5649 59.2198 15.3473C58.5573 15.8774 57.8918 16.1429 57.2212 16.1429C56.7943 16.1429 56.4431 16.0392 56.17 15.8311C55.8969 15.6237 55.7585 15.3495 55.7585 15.009C55.7585 14.7274 55.8329 14.473 55.9801 14.2451C56.1259 14.0179 56.3408 13.8149 56.6242 13.637C56.9084 13.4583 57.2455 13.3009 57.6378 13.1649C58.0302 13.0274 58.5204 12.8848 59.1064 12.734V12.3958C59.1064 12.1149 59.0394 11.8936 58.9069 11.734C58.7737 11.5737 58.5285 11.4929 58.1723 11.4929C57.8675 11.4929 57.6474 11.5561 57.5127 11.6833C57.378 11.8098 57.2897 12.0024 57.2455 12.2598C57.2138 12.4421 57.1564 12.5914 57.0703 12.7083C56.9856 12.8245 56.8082 12.8833 56.5381 12.8833C56.3717 12.8833 56.226 12.8362 56.0979 12.7406C55.9713 12.6458 55.908 12.5054 55.908 12.3193C55.908 11.9517 56.1075 11.6304 56.5086 11.3576C56.9084 11.084 57.5223 10.9473 58.3504 10.9473C59.2234 10.9473 59.8219 11.0936 60.1487 11.3862C60.4748 11.6796 60.639 12.0715 60.639 12.5627V14.4392C60.639 14.6767 60.6456 14.8509 60.6574 14.9612C60.6692 15.0715 60.7023 15.1561 60.7553 15.2134C60.8083 15.2715 60.8929 15.3002 61.0085 15.3002C61.1108 15.3002 61.2014 15.2465 61.2787 15.1392C61.3552 15.0326 61.3942 14.9039 61.3942 14.7539L61.8352 14.7531ZM59.1071 14.8002V13.3274C58.3548 13.5649 57.8749 13.7973 57.6717 14.0259C57.4678 14.2531 57.3655 14.4759 57.3655 14.6943C57.3655 14.8759 57.42 15.023 57.5318 15.1333C57.643 15.2436 57.7991 15.3002 58.0015 15.3002C58.2201 15.3002 58.4115 15.2546 58.5786 15.1627C58.7442 15.0715 58.9202 14.9509 59.1071 14.8002Z" fill="#1467BD"/>
<path d="M66.1701 14.9492C65.9559 15.3963 65.7064 15.7169 65.42 15.911C65.1344 16.1051 64.8002 16.2022 64.4152 16.2022C63.9485 16.2022 63.604 16.1073 63.381 15.9161C63.1594 15.7264 63.0232 15.5139 62.971 15.2779C62.9194 15.0426 62.8937 14.7779 62.8937 14.4845V11.6875H61.9963V11.1411C62.3725 11.1411 62.6993 11.0705 62.9776 10.9279C63.2544 10.7852 63.473 10.5933 63.6342 10.3522C63.7954 10.1102 63.897 9.85069 63.9412 9.57422H64.4277V11.1411H66.1105V11.6875H64.4277V14.5205C64.4277 14.8639 64.4513 15.1132 64.4969 15.2654C64.5418 15.4176 64.6544 15.4941 64.8319 15.4941C65.0225 15.4941 65.1793 15.4198 65.3022 15.272C65.4244 15.1235 65.5437 14.9382 65.6592 14.7169L66.1701 14.9492Z" fill="#1467BD"/>
<path d="M73.1728 16.0054H70.1164V15.4591C70.391 15.4591 70.578 15.4105 70.6818 15.3135C70.7841 15.2164 70.8364 15.0753 70.8364 14.8885V12.8929C70.8364 12.6951 70.8239 12.5172 70.7974 12.3591C70.7716 12.201 70.7039 12.0569 70.5927 11.9282C70.4823 11.7995 70.3115 11.7348 70.0826 11.7348C69.8956 11.7348 69.7064 11.7855 69.5143 11.8863C69.3222 11.987 69.1742 12.1186 69.0712 12.2811C68.96 12.4635 68.8901 12.6385 68.8599 12.8061C68.8312 12.9745 68.8157 13.1775 68.8157 13.4157V14.437C68.8157 14.7142 68.8268 14.9172 68.8481 15.0458C68.8695 15.1745 68.9313 15.276 69.0321 15.3488C69.1345 15.4216 69.3001 15.4583 69.5356 15.4583V16.0047H66.4204V15.4583C66.6854 15.4583 66.8812 15.4304 67.0056 15.3753C67.1315 15.3201 67.2073 15.237 67.2375 15.1289C67.2669 15.0208 67.2817 14.8414 67.2817 14.5922V9.60981C67.2817 9.31349 67.2353 9.11422 67.1403 9.01275C67.0446 8.91275 66.8054 8.85981 66.4204 8.8554V8.32084L68.8165 7.81055V11.8186C69.0498 11.5738 69.292 11.3664 69.5445 11.198C69.7962 11.0297 70.1459 10.9458 70.5934 10.9458C70.7996 10.9458 71.0064 10.9753 71.2118 11.0348C71.4179 11.0936 71.6027 11.1811 71.7676 11.2966C71.9317 11.4105 72.0524 11.5414 72.1268 11.6878C72.2895 11.9767 72.3712 12.3532 72.3712 12.8157V14.5922C72.3712 14.9245 72.4139 15.1525 72.4992 15.2745C72.5839 15.3973 72.8092 15.4583 73.1743 15.4583V16.0054H73.1728Z" fill="#1467BD"/>
<path d="M84.8595 16.0068H81.5624V15.4605C81.8341 15.4605 82.0291 15.4304 82.1432 15.3686C82.2581 15.3076 82.3287 15.2223 82.3537 15.1127C82.3802 15.0046 82.3935 14.8304 82.3935 14.5936V12.7943C82.3935 12.5333 82.3346 12.2914 82.2183 12.0693C82.1013 11.848 81.8348 11.737 81.4189 11.737C81.1215 11.737 80.8631 11.8112 80.6452 11.9605C80.4273 12.109 80.261 12.3127 80.1425 12.5723C80.0262 12.8326 79.968 13.1215 79.968 13.4429V14.5943C79.968 14.8392 79.9827 15.0171 80.0122 15.1259C80.0416 15.2348 80.1196 15.3179 80.2418 15.3752C80.364 15.4326 80.565 15.4612 80.841 15.4612V16.0076H77.608V15.4612C77.873 15.4612 78.0644 15.4318 78.1807 15.3723C78.2978 15.3127 78.3692 15.2281 78.3957 15.1164C78.4207 15.0061 78.4339 14.8311 78.4339 14.5943V12.7223C78.4339 12.3068 78.325 12.0392 78.1071 11.9186C77.8899 11.7973 77.6853 11.737 77.4947 11.737C77.2414 11.737 76.9963 11.798 76.7578 11.9215C76.5208 12.0436 76.3397 12.2031 76.2168 12.3965C76.1299 12.5399 76.0739 12.6796 76.0482 12.8179C76.0224 12.9568 76.0092 13.1311 76.0092 13.3406V14.5936C76.0092 14.8384 76.0246 15.0164 76.0541 15.1252C76.0843 15.2333 76.1615 15.3171 76.2889 15.3745C76.4155 15.4318 76.615 15.4605 76.8888 15.4605V16.0068H73.6367V15.4605C73.9054 15.4605 74.099 15.4318 74.2175 15.3745C74.3323 15.3164 74.4052 15.2326 74.4331 15.1223C74.4619 15.0112 74.4751 14.8348 74.4751 14.5936V12.5627C74.4751 12.1906 74.2351 12.0046 73.7552 12.0046H73.4519V11.4583L75.9606 10.9473C75.993 11.1576 76.0084 11.4583 76.0084 11.8502C76.2896 11.5686 76.5885 11.3487 76.9028 11.1884C77.2186 11.0281 77.5815 10.948 77.9937 10.948C78.378 10.948 78.7468 11.0237 79.0994 11.1737C79.452 11.3245 79.7185 11.6017 79.8959 12.0054C80.2566 11.5774 80.604 11.2943 80.9367 11.1561C81.2694 11.0179 81.6132 10.948 81.9651 10.948C82.5915 10.948 83.0751 11.0958 83.4152 11.3936C83.7568 11.6899 83.9268 12.1451 83.9268 12.759V14.5943C83.9268 14.8156 83.9379 14.9833 83.9592 15.0965C83.9813 15.209 84.0439 15.298 84.1499 15.3634C84.2551 15.4289 84.4215 15.4612 84.6526 15.4612H84.8595V16.0068Z" fill="#1467BD"/>
<path d="M91.5241 14.7531C91.5241 15.0539 91.463 15.3105 91.3401 15.5223C91.2172 15.734 91.0508 15.8899 90.844 15.9906C90.6356 16.0921 90.4001 16.1429 90.1395 16.1429C89.806 16.1429 89.5285 16.0649 89.307 15.9083C89.0839 15.7524 88.9521 15.5649 88.9072 15.3473C88.2462 15.8774 87.58 16.1429 86.9109 16.1429C86.4825 16.1429 86.1321 16.0392 85.8583 15.8311C85.5852 15.6237 85.4482 15.3495 85.4482 15.009C85.4482 14.7274 85.5211 14.473 85.6676 14.2451C85.8141 14.0179 86.029 13.8149 86.3132 13.637C86.5966 13.4583 86.9345 13.3009 87.3268 13.1649C87.7184 13.0274 88.2087 12.8848 88.7954 12.734V12.3958C88.7954 12.1149 88.7284 11.8936 88.5951 11.734C88.4634 11.5737 88.2182 11.4929 87.862 11.4929C87.5565 11.4929 87.3364 11.5561 87.2024 11.6833C87.0662 11.8098 86.9772 12.0024 86.9345 12.2598C86.9028 12.4421 86.8439 12.5914 86.76 12.7083C86.6739 12.8245 86.4972 12.8833 86.2263 12.8833C86.06 12.8833 85.9135 12.8362 85.7869 12.7406C85.6602 12.6458 85.5969 12.5054 85.5969 12.3193C85.5969 11.9517 85.7964 11.6304 86.1969 11.3576C86.5973 11.084 87.2112 10.9473 88.0394 10.9473C88.9117 10.9473 89.5109 11.0936 89.837 11.3862C90.1638 11.6796 90.3279 12.0715 90.3279 12.5627V14.4392C90.3279 14.6767 90.3346 14.8509 90.3456 14.9612C90.3581 15.0715 90.3905 15.1561 90.4443 15.2134C90.4973 15.2715 90.5819 15.3002 90.6967 15.3002C90.8005 15.3002 90.8896 15.2465 90.9669 15.1392C91.0442 15.0326 91.0825 14.9039 91.0825 14.7539L91.5241 14.7531ZM88.7961 14.8002V13.3274C88.043 13.5649 87.5638 13.7973 87.3607 14.0259C87.1568 14.2531 87.0544 14.4759 87.0544 14.6943C87.0544 14.8759 87.1097 15.023 87.2208 15.1333C87.332 15.2436 87.488 15.3002 87.6904 15.3002C87.9083 15.3002 88.1012 15.2546 88.2676 15.1627C88.4332 15.0715 88.6099 14.9509 88.7961 14.8002Z" fill="#1467BD"/>
<path d="M98.5393 16.0068H95.4594V15.4605C95.6927 15.4605 95.8613 15.4304 95.9622 15.3686C96.063 15.3076 96.1256 15.2171 96.1484 15.098C96.1734 14.9796 96.1852 14.7833 96.1852 14.5105V12.8296C96.1852 12.4929 96.1359 12.2267 96.0365 12.0311C95.9371 11.8348 95.7354 11.737 95.4299 11.737C95.0148 11.737 94.7049 11.8958 94.5002 12.2149C94.2949 12.534 94.1933 12.9009 94.1933 13.3164V14.6473C94.1933 14.9598 94.2389 15.173 94.3302 15.2884C94.4215 15.4039 94.618 15.4605 94.9191 15.4605V16.0068H91.7788V15.4605C92.0379 15.4605 92.2271 15.4377 92.35 15.3921C92.473 15.3465 92.5547 15.2656 92.5944 15.1487C92.6342 15.0318 92.6541 14.8465 92.6541 14.5936V12.6752C92.6541 12.398 92.6003 12.2171 92.4936 12.1318C92.3861 12.0465 92.1483 12.0046 91.7781 12.0046V11.4583L94.0917 10.9473C94.1278 11.1774 94.1454 11.3906 94.1454 11.5884C94.1454 11.6399 94.1447 11.6848 94.1425 11.7223C94.1403 11.7605 94.1395 11.8024 94.1395 11.8502C94.3883 11.5848 94.6482 11.3686 94.9183 11.2002C95.1878 11.0318 95.5249 10.948 95.929 10.948C96.2706 10.948 96.5761 11.009 96.8477 11.1318C97.1193 11.2546 97.3321 11.4399 97.4859 11.6899C97.6412 11.9392 97.7178 12.2406 97.7178 12.5929V14.5943C97.7178 14.9267 97.7627 15.1546 97.8525 15.2767C97.9408 15.3995 98.1705 15.4605 98.5393 15.4605V16.0068Z" fill="#1467BD"/>
<path d="M105.953 15.9341C105.112 15.9694 104.345 16.0583 103.652 16.2017C103.597 16.0819 103.56 15.8753 103.545 15.5775C103.038 15.9922 102.481 16.2017 101.874 16.2017C101.406 16.2017 100.973 16.0804 100.575 15.8385C100.176 15.5973 99.8599 15.2679 99.6229 14.8503C99.388 14.4326 99.2695 13.9775 99.2695 13.487C99.2695 13.1826 99.3211 12.8797 99.4249 12.5789C99.5279 12.2775 99.6899 12.0017 99.9092 11.7503C100.129 11.4995 100.402 11.3017 100.726 11.1598C101.052 11.0172 101.422 10.9458 101.837 10.9458C102.143 10.9458 102.405 10.9833 102.623 11.0583C102.84 11.1333 103.015 11.2194 103.145 11.3164C103.277 11.4142 103.409 11.5297 103.544 11.6642V9.71643C103.544 9.45099 103.522 9.26128 103.479 9.14658C103.434 9.03114 103.352 8.95834 103.232 8.92672C103.111 8.89584 102.914 8.87525 102.639 8.86716V8.32084L105.078 7.81055V14.4605C105.078 14.7458 105.091 14.9436 105.116 15.0547C105.142 15.1657 105.215 15.2458 105.334 15.2951C105.452 15.3451 105.658 15.3753 105.952 15.387L105.953 15.9341ZM103.545 14.8113V12.4061C103.379 12.2047 103.18 12.0208 102.95 11.8547C102.72 11.6885 102.446 11.6054 102.129 11.6054C101.935 11.6054 101.753 11.6591 101.582 11.7657C101.413 11.8723 101.276 12.0091 101.172 12.1753C100.998 12.4488 100.912 12.9098 100.912 13.5583C100.912 14.2164 101.035 14.7105 101.283 15.0436C101.531 15.376 101.838 15.5422 102.208 15.5422C102.473 15.5422 102.72 15.4767 102.951 15.3466C103.18 15.215 103.379 15.037 103.545 14.8113Z" fill="#1467BD"/>
<path d="M113.104 15.9693C112.989 15.9781 112.789 15.9899 112.504 16.0083C112.218 16.0267 111.898 16.0517 111.543 16.0855C111.189 16.1193 110.904 16.1575 110.691 16.2017V15.3347C110.18 15.92 109.567 16.2134 108.854 16.2134C108.334 16.2134 107.95 16.1031 107.7 15.8811C107.451 15.659 107.297 15.4142 107.237 15.1472C107.177 14.8803 107.148 14.5943 107.148 14.2892V12.5369C107.148 12.3039 107.133 12.1318 107.106 12.023C107.078 11.9149 107.005 11.8311 106.886 11.7744C106.768 11.7171 106.57 11.6884 106.297 11.6884V11.1414H108.68V14.4134C108.68 15.0862 108.941 15.423 109.461 15.423C109.758 15.423 110.009 15.3171 110.215 15.1053C110.421 14.8936 110.579 14.6906 110.691 14.4965V12.5369C110.691 12.2921 110.676 12.1149 110.646 12.0083C110.616 11.9009 110.539 11.8208 110.417 11.7678C110.293 11.7142 110.091 11.6877 109.805 11.6877V11.1406H112.224V14.7156C112.224 14.9017 112.241 15.0399 112.278 15.1311C112.312 15.2215 112.393 15.2921 112.52 15.3414C112.647 15.3906 112.842 15.4178 113.103 15.4215L113.104 15.9693Z" fill="#1467BD"/>
<path d="M52.8044 22.9088L52.7397 25.5573H45.5581V25.0117C46.0543 25.0117 46.3715 24.9397 46.5158 24.7978C46.6579 24.6559 46.7293 24.4103 46.7293 24.061V19.0022C46.7293 18.7728 46.7057 18.5934 46.6608 18.4654C46.6152 18.336 46.5077 18.2353 46.3399 18.1617C46.1713 18.0889 45.9107 18.0529 45.5574 18.0529V17.5059H52.2457L52.3525 19.5963H51.8063C51.6826 19.1331 51.542 18.8014 51.3808 18.6007C51.2203 18.4014 51.04 18.2787 50.8405 18.2331C50.641 18.1875 50.3399 18.1654 49.9387 18.1654H48.429V21.0095H49.249C49.5302 21.0095 49.7407 20.9853 49.8791 20.9345C50.0175 20.886 50.1147 20.7919 50.1706 20.6529C50.2266 20.5139 50.2641 20.2963 50.2832 19.9992H50.8537V22.6779H50.3075C50.2913 22.3809 50.2516 22.1625 50.1883 22.0213C50.125 21.8801 50.0241 21.7875 49.8879 21.7389C49.7518 21.6904 49.542 21.6676 49.2608 21.6676H48.4282V23.5617C48.4282 23.8779 48.4363 24.1103 48.4525 24.2566C48.468 24.4029 48.5099 24.525 48.5806 24.6213C48.6498 24.7184 48.7617 24.7889 48.9185 24.8323C49.0753 24.8757 49.2983 24.8978 49.5876 24.8978H50.2354C50.5085 24.8978 50.7698 24.8625 51.0179 24.7934C51.2652 24.7235 51.5081 24.5456 51.7459 24.2588C51.9837 23.9713 52.15 23.5213 52.2457 22.9073H52.8044V22.9088Z" fill="#1467BD"/>
<path d="M60.2666 25.5576H57.1867V25.012C57.42 25.012 57.5879 24.9819 57.6887 24.9201C57.791 24.8583 57.8529 24.7679 57.8771 24.6503C57.9 24.5311 57.9117 24.3348 57.9117 24.0613V22.3811C57.9117 22.0444 57.8632 21.7782 57.7638 21.5826C57.6644 21.3863 57.4627 21.2885 57.1572 21.2885C56.7413 21.2885 56.4314 21.448 56.2268 21.7664C56.0221 22.0848 55.9206 22.4525 55.9206 22.8679V24.198C55.9206 24.5113 55.9669 24.7253 56.0575 24.84C56.1488 24.9547 56.3453 25.012 56.6464 25.012V25.5576H53.5076V25.012C53.7652 25.012 53.9537 24.9892 54.0781 24.9429C54.201 24.8966 54.2812 24.8164 54.3217 24.7003C54.3615 24.5833 54.3806 24.3988 54.3806 24.1444V22.2267C54.3806 21.9495 54.3276 21.7686 54.2201 21.6841C54.1127 21.5988 53.8749 21.5561 53.5068 21.5561V21.0091L55.8197 20.498C55.8558 20.7282 55.8727 20.9422 55.8727 21.14C55.8727 21.1914 55.8727 21.2363 55.8698 21.2738C55.8683 21.3113 55.8661 21.3525 55.8661 21.4017C56.1156 21.1363 56.3755 20.9194 56.6456 20.751C56.9158 20.5826 57.2514 20.498 57.6563 20.498C57.9971 20.498 58.3034 20.5598 58.5742 20.6826C58.8459 20.8054 59.0586 20.9914 59.2139 21.2407C59.3685 21.4907 59.4458 21.7907 59.4458 22.1444V24.1451C59.4458 24.4775 59.49 24.7054 59.579 24.8289C59.6681 24.951 59.8971 25.0128 60.2666 25.0128V25.5576Z" fill="#1467BD"/>
<path d="M66.4787 21.2397C66.2925 21.2397 66.1526 21.297 66.0599 21.4117C65.9671 21.5264 65.8346 21.7522 65.6646 22.0889L63.8751 25.6934H63.0425L60.9976 21.7617C60.8754 21.5206 60.7841 21.3779 60.7245 21.3345C60.6641 21.2904 60.5257 21.2588 60.3086 21.2389V20.6934H63.2155V21.2389C63.005 21.247 62.8519 21.2654 62.754 21.2963C62.6575 21.325 62.6097 21.3875 62.6097 21.4831C62.6097 21.55 62.6494 21.6625 62.7275 21.8213L63.97 24.2323L65.153 21.8566C65.2317 21.6867 65.2715 21.5662 65.2715 21.4948C65.2715 21.3845 65.2251 21.3139 65.1331 21.2838C65.0389 21.2544 64.888 21.2389 64.6774 21.2389V20.6934H66.4787V21.2397Z" fill="#1467BD"/>
<path d="M70.1407 25.5564H66.9121V25.0108H67.0836C67.314 25.0108 67.4819 24.9792 67.5864 24.9159C67.6917 24.8527 67.755 24.763 67.78 24.649C67.8043 24.5343 67.8168 24.3652 67.8168 24.1432V22.3799C67.8168 22.1351 67.8013 21.9608 67.7712 21.8571C67.741 21.7542 67.6644 21.6792 67.54 21.6314C67.4156 21.5836 67.2058 21.5579 66.9121 21.5549V21.0079L69.3501 20.4968V24.1432C69.3501 24.4755 69.3913 24.7034 69.4753 24.827C69.5577 24.949 69.78 25.0108 70.1407 25.0108V25.5564ZM69.4679 18.1755C69.4679 18.413 69.3847 18.6167 69.2154 18.7843C69.0468 18.9527 68.8444 19.0365 68.6059 19.0365C68.3733 19.0365 68.1694 18.9505 67.9971 18.7777C67.8256 18.6057 67.738 18.4049 67.738 18.1755C67.738 17.938 67.8234 17.7343 67.9942 17.5637C68.165 17.3932 68.3696 17.3086 68.6059 17.3086C68.8481 17.3086 69.0527 17.3917 69.2184 17.5579C69.3862 17.724 69.4679 17.9299 69.4679 18.1755Z" fill="#1467BD"/>
<path d="M75.8001 21.437C75.8001 21.6672 75.7302 21.8473 75.5896 21.9797C75.449 22.112 75.2834 22.1789 75.0927 22.1789C74.8667 22.1789 74.6687 22.0686 74.4972 21.8466C74.4192 21.7473 74.3537 21.676 74.3014 21.6326C74.2506 21.5892 74.177 21.5679 74.082 21.5679C73.7721 21.5679 73.5314 21.7348 73.3599 22.0694C73.1877 22.4039 73.1001 22.7517 73.1001 23.1113V24.1444C73.1001 24.4767 73.1428 24.7047 73.2289 24.8282C73.3135 24.9503 73.5388 25.012 73.9024 25.012H74.2182V25.5576H70.5273V25.012H70.8365C71.1692 25.012 71.3731 24.9488 71.449 24.8216C71.524 24.6944 71.5616 24.4694 71.5616 24.1444V22.4113C71.5616 22.1458 71.5344 21.9561 71.4814 21.8414C71.4276 21.7267 71.3319 21.6503 71.1928 21.612C71.0544 21.5745 70.8321 21.5561 70.5273 21.5561V21.0091L72.8454 20.498C72.9057 20.6995 72.9602 21.1297 73.0132 21.7878C73.1221 21.5539 73.2694 21.34 73.4483 21.1458C73.6293 20.9517 73.8318 20.7951 74.0555 20.6767C74.2801 20.5583 74.5083 20.498 74.7423 20.498C75.0677 20.498 75.3253 20.59 75.516 20.7716C75.7052 20.9539 75.8001 21.1753 75.8001 21.437Z" fill="#1467BD"/>
<path d="M82.1202 23.1113C82.1202 23.6503 81.9884 24.1186 81.7271 24.5186C81.4665 24.9186 81.1117 25.2245 80.6664 25.4355C80.221 25.6488 79.7315 25.7539 79.2008 25.7539C78.7017 25.7539 78.2291 25.6576 77.7823 25.4628C77.3377 25.2694 76.9718 24.9738 76.6899 24.5782C76.4065 24.1819 76.2644 23.698 76.2644 23.123C76.2644 22.2642 76.5574 21.6113 77.1441 21.1657C77.73 20.7208 78.4278 20.498 79.2368 20.498C79.8382 20.498 80.3579 20.6172 80.7945 20.8547C81.2302 21.0922 81.56 21.4113 81.7845 21.8105C82.0068 22.2113 82.1202 22.6444 82.1202 23.1113ZM80.4779 23.076C80.4779 22.4025 80.3889 21.8966 80.2115 21.5554C80.0326 21.2157 79.6851 21.0458 79.1706 21.0458C78.8423 21.0458 78.5846 21.1194 78.4014 21.2686C78.2166 21.4164 78.0878 21.6466 78.0142 21.9576C77.9413 22.2686 77.9052 22.6716 77.9052 23.1664C77.9052 23.776 77.9847 24.2686 78.1489 24.6451C78.3108 25.0208 78.6656 25.2091 79.2125 25.2091C79.5732 25.2091 79.8463 25.1054 80.0348 24.8973C80.224 24.69 80.3447 24.4319 80.3977 24.126C80.4514 23.8172 80.4779 23.4679 80.4779 23.076Z" fill="#1467BD"/>
<path d="M89.6338 25.5576H86.5539V25.012C86.7872 25.012 86.955 24.9819 87.0566 24.9201C87.1582 24.8583 87.22 24.7679 87.2429 24.6503C87.2679 24.5311 87.2797 24.3348 87.2797 24.0613V22.3811C87.2797 22.0444 87.2304 21.7782 87.131 21.5826C87.0309 21.3863 86.8299 21.2885 86.5244 21.2885C86.1092 21.2885 85.7993 21.448 85.5947 21.7664C85.3901 22.0855 85.2885 22.4525 85.2885 22.8679V24.198C85.2885 24.5113 85.3334 24.7253 85.4254 24.84C85.5159 24.9547 85.7125 25.012 86.0143 25.012V25.5576H82.8748V25.012C83.1331 25.012 83.3216 24.9892 83.4452 24.9429C83.5682 24.8966 83.6492 24.8164 83.6882 24.7003C83.7287 24.5833 83.7485 24.3988 83.7485 24.1444V22.2267C83.7485 21.9495 83.6948 21.7686 83.5881 21.6841C83.4806 21.5988 83.2428 21.5561 82.874 21.5561V21.0091L85.1869 20.498C85.2222 20.7282 85.2399 20.9422 85.2399 21.14C85.2399 21.1914 85.2392 21.2363 85.237 21.2738C85.234 21.3113 85.2333 21.3525 85.2333 21.4017C85.4836 21.1363 85.7427 20.9194 86.0136 20.751C86.283 20.5826 86.6194 20.498 87.0235 20.498C87.3643 20.498 87.6706 20.5598 87.9422 20.6826C88.2138 20.8054 88.4258 20.9914 88.5811 21.2407C88.735 21.4907 88.813 21.7907 88.813 22.1444V24.1451C88.813 24.4775 88.8572 24.7054 88.947 24.8289C89.0353 24.951 89.265 25.0128 89.6338 25.0128V25.5576Z" fill="#1467BD"/>
<path d="M101.332 25.5576H98.0343V25.012C98.3067 25.012 98.5018 24.9819 98.6159 24.9201C98.7314 24.8583 98.8006 24.7738 98.8264 24.6642C98.8536 24.5554 98.8661 24.3819 98.8661 24.1444V22.3458C98.8661 22.0841 98.8073 21.8422 98.6917 21.6208C98.5739 21.3995 98.3074 21.2885 97.8915 21.2885C97.5941 21.2885 97.3365 21.3635 97.1186 21.512C96.9 21.6605 96.7336 21.8642 96.6158 22.123C96.4995 22.3833 96.4406 22.673 96.4406 22.9936V24.1451C96.4406 24.3907 96.4554 24.5679 96.4848 24.6775C96.5157 24.7855 96.5915 24.8694 96.7145 24.9267C96.8374 24.9841 97.0376 25.0128 97.3137 25.0128V25.5583H94.0799V25.0128C94.3457 25.0128 94.5371 24.9833 94.6541 24.9238C94.7704 24.8635 94.8418 24.7789 94.8683 24.6679C94.8926 24.5576 94.9066 24.3826 94.9066 24.1451V22.2738C94.9066 21.8583 94.7969 21.5907 94.5797 21.4694C94.3626 21.348 94.1587 21.2878 93.9673 21.2878C93.7141 21.2878 93.4682 21.3495 93.2304 21.4723C92.9934 21.5951 92.8131 21.7532 92.6901 21.9473C92.6025 22.09 92.5466 22.2311 92.5208 22.3694C92.4951 22.5076 92.4818 22.6819 92.4818 22.8922V24.1444C92.4818 24.39 92.4973 24.5672 92.5267 24.6767C92.5562 24.7848 92.6342 24.8686 92.7608 24.926C92.8882 24.9833 93.0876 25.012 93.3615 25.012V25.5576H90.1086V25.012C90.3787 25.012 90.5716 24.9833 90.6894 24.926C90.8057 24.8686 90.8786 24.7848 90.9058 24.673C90.9345 24.5628 90.9478 24.3855 90.9478 24.1444V22.1135C90.9478 21.7414 90.7085 21.5554 90.2286 21.5554H89.9253V21.0091L92.4332 20.498C92.4656 20.7083 92.4811 21.0091 92.4811 21.4017C92.7615 21.1201 93.0604 20.8995 93.3755 20.74C93.6913 20.5789 94.0549 20.4988 94.4664 20.4988C94.8506 20.4988 95.2194 20.5745 95.572 20.7245C95.9246 20.8753 96.1911 21.1525 96.3692 21.5569C96.7292 21.1297 97.0766 20.8458 97.4094 20.7076C97.7421 20.5694 98.0851 20.4995 98.4377 20.4995C99.0642 20.4995 99.5471 20.648 99.8886 20.9451C100.229 21.2414 100.399 21.6966 100.399 22.3105V24.1451C100.399 24.3672 100.411 24.5341 100.432 24.6473C100.453 24.7605 100.517 24.8488 100.622 24.915C100.728 24.9797 100.895 25.0128 101.125 25.0128H101.332V25.5576Z" fill="#1467BD"/>
<path d="M107.181 22.9446H103.526C103.529 23.0196 103.541 23.1799 103.559 23.4255C103.577 23.6711 103.632 23.9226 103.726 24.1792C103.82 24.4365 103.979 24.6542 104.207 24.8299C104.435 25.0057 104.741 25.0939 105.125 25.0939C105.335 25.0939 105.59 25.0402 105.887 24.9329C106.184 24.8262 106.442 24.6196 106.659 24.3152L107.122 24.6299C106.655 25.3784 105.912 25.752 104.894 25.752C104.439 25.752 104.023 25.6865 103.649 25.5557C103.275 25.4248 102.956 25.2439 102.694 25.0101C102.433 24.7762 102.233 24.502 102.094 24.1843C101.956 23.8682 101.886 23.527 101.886 23.163C101.886 22.6836 102.002 22.2409 102.235 21.8329C102.467 21.424 102.799 21.099 103.231 20.8579C103.662 20.6167 104.155 20.4961 104.711 20.4961C105.253 20.4961 105.712 20.613 106.087 20.8468C106.462 21.0807 106.739 21.3836 106.917 21.7557C107.095 22.1277 107.181 22.5248 107.181 22.9446ZM105.708 22.3983C105.708 21.4954 105.352 21.0446 104.639 21.0446C104.294 21.0446 104.029 21.1689 103.845 21.4182C103.661 21.6682 103.559 21.9946 103.539 22.3983H105.708Z" fill="#1467BD"/>
<path d="M114.621 25.5576H111.541V25.012C111.775 25.012 111.942 24.9819 112.043 24.9201C112.144 24.8583 112.206 24.7679 112.23 24.6503C112.253 24.5311 112.266 24.3348 112.266 24.0613V22.3811C112.266 22.0444 112.216 21.7782 112.118 21.5826C112.018 21.3863 111.817 21.2885 111.511 21.2885C111.095 21.2885 110.785 21.448 110.58 21.7664C110.377 22.0855 110.275 22.4525 110.275 22.8679V24.198C110.275 24.5113 110.32 24.7253 110.411 24.84C110.502 24.9547 110.699 25.012 111 25.012V25.5576H107.861V25.012C108.119 25.012 108.309 24.9892 108.431 24.9429C108.554 24.8966 108.635 24.8164 108.675 24.7003C108.715 24.5833 108.734 24.3988 108.734 24.1444V22.2267C108.734 21.9495 108.681 21.7686 108.574 21.6841C108.467 21.5988 108.228 21.5561 107.86 21.5561V21.0091L110.173 20.498C110.209 20.7282 110.227 20.9422 110.227 21.14C110.227 21.1914 110.225 21.2363 110.223 21.2738C110.221 21.3113 110.221 21.3525 110.221 21.4017C110.47 21.1363 110.729 20.9194 111 20.751C111.27 20.5826 111.605 20.498 112.01 20.498C112.351 20.498 112.657 20.5598 112.929 20.6826C113.2 20.8054 113.413 20.9914 113.567 21.2407C113.722 21.4907 113.8 21.7907 113.8 22.1444V24.1451C113.8 24.4775 113.845 24.7054 113.934 24.8289C114.022 24.951 114.251 25.0128 114.621 25.0128V25.5576Z" fill="#1467BD"/>
<path d="M119.174 24.5005C118.959 24.9475 118.71 25.2681 118.424 25.4622C118.139 25.6571 117.804 25.7534 117.419 25.7534C116.951 25.7534 116.607 25.6586 116.386 25.4681C116.164 25.2784 116.027 25.0659 115.975 24.8306C115.923 24.5953 115.899 24.3306 115.899 24.038V21.2402H115V20.6946C115.377 20.6946 115.704 20.6225 115.982 20.4806C116.259 20.338 116.477 20.1461 116.638 19.9049C116.799 19.663 116.9 19.4042 116.944 19.127H117.432V20.6946H119.114V21.2402H117.432V24.0733C117.432 24.4174 117.454 24.6659 117.5 24.8196C117.545 24.9711 117.658 25.0475 117.837 25.0475C118.027 25.0475 118.183 24.9733 118.306 24.8255C118.429 24.677 118.548 24.4917 118.663 24.2696L119.174 24.5005Z" fill="#1467BD"/>
<path d="M125.886 24.3047C125.886 24.6061 125.824 24.8628 125.702 25.0738C125.579 25.2863 125.413 25.4429 125.205 25.5436C124.997 25.6451 124.762 25.6951 124.5 25.6951C124.168 25.6951 123.89 25.6172 123.668 25.4605C123.446 25.3039 123.313 25.1172 123.27 24.8995C122.609 25.4304 121.942 25.6951 121.272 25.6951C120.845 25.6951 120.494 25.5907 120.219 25.3826C119.946 25.1753 119.809 24.9017 119.809 24.5613C119.809 24.2797 119.883 24.0253 120.029 23.7973C120.177 23.5701 120.392 23.3672 120.674 23.1885C120.958 23.0105 121.296 22.8539 121.689 22.7164C122.08 22.5804 122.57 22.437 123.156 22.2863V21.9473C123.156 21.6672 123.089 21.4458 122.957 21.2855C122.823 21.1253 122.579 21.0458 122.222 21.0458C121.918 21.0458 121.697 21.1091 121.563 21.2355C121.427 21.362 121.338 21.5547 121.295 21.812C121.264 21.9936 121.205 22.1429 121.12 22.2591C121.036 22.376 120.858 22.4341 120.588 22.4341C120.421 22.4341 120.275 22.3878 120.147 22.2922C120.021 22.1973 119.957 22.0569 119.957 21.8708C119.957 21.5025 120.157 21.1819 120.557 20.9091C120.957 20.6355 121.572 20.498 122.4 20.498C123.272 20.498 123.872 20.6444 124.198 20.9378C124.525 21.2304 124.689 21.623 124.689 22.1142V23.9907C124.689 24.2282 124.695 24.4032 124.707 24.5135C124.718 24.6245 124.751 24.7083 124.804 24.7657C124.858 24.823 124.942 24.8517 125.057 24.8517C125.16 24.8517 125.251 24.7988 125.328 24.6914C125.405 24.5841 125.444 24.4569 125.444 24.3054H125.886V24.3047ZM123.157 24.3525V22.8789C122.405 23.1172 121.925 23.3503 121.722 23.5767C121.518 23.8054 121.416 24.0275 121.416 24.2444C121.416 24.4267 121.47 24.5738 121.582 24.6848C121.694 24.7958 121.851 24.851 122.052 24.851C122.27 24.851 122.462 24.8054 122.628 24.7142C122.794 24.6238 122.971 24.5032 123.157 24.3525Z" fill="#1467BD"/>
<path d="M129.464 25.5574H126.046V25.0118H126.301C126.532 25.0118 126.7 24.9802 126.804 24.917C126.91 24.8537 126.973 24.764 126.997 24.65C127.021 24.5353 127.035 24.3662 127.035 24.1442V19.0846C127.035 18.8 126.967 18.6177 126.835 18.5383C126.702 18.4596 126.44 18.4199 126.047 18.4199V17.8736L128.569 17.3633V24.1442C128.569 24.3662 128.579 24.5331 128.601 24.6464C128.622 24.7589 128.686 24.8478 128.792 24.914C128.897 24.9787 129.064 25.0118 129.294 25.0118H129.466V25.5574H129.464Z" fill="#1467BD"/>
<path d="M52.8044 32.5428L52.7397 35.1914H45.5581V34.6443C46.0543 34.6443 46.3715 34.5737 46.5158 34.4311C46.6579 34.2884 46.7293 34.0443 46.7293 33.695V28.6362C46.7293 28.4061 46.7057 28.2259 46.6608 28.0987C46.6152 27.97 46.5077 27.8686 46.3399 27.7958C46.1713 27.7215 45.9107 27.6862 45.5574 27.6862V27.1406H52.2457L52.3525 29.2296H51.8063C51.6826 28.7664 51.542 28.4355 51.3808 28.2355C51.2203 28.0362 51.04 27.9127 50.8405 27.8671C50.641 27.8215 50.3399 27.7987 49.9387 27.7987H48.429V30.6428H49.249C49.5302 30.6428 49.7407 30.6178 49.8791 30.5686C50.0175 30.5193 50.1147 30.4252 50.1706 30.2855C50.2258 30.148 50.2641 29.9296 50.2832 29.6318H50.8537V32.3112H50.3075C50.2913 32.0149 50.2516 31.795 50.1883 31.6553C50.125 31.5149 50.0241 31.42 49.8879 31.3722C49.7518 31.3244 49.542 31.3009 49.2608 31.3009H48.4282V33.195C48.4282 33.5127 48.4363 33.7436 48.4525 33.8899C48.468 34.0362 48.5099 34.1575 48.5806 34.2546C48.6498 34.3517 48.7617 34.423 48.9185 34.4649C49.0753 34.509 49.2983 34.5311 49.5876 34.5311H50.2354C50.5085 34.5311 50.7698 34.4965 51.0179 34.4267C51.2652 34.3568 51.5081 34.1796 51.7459 33.8921C51.9837 33.6046 52.15 33.1546 52.2457 32.5414H52.8044V32.5428Z" fill="#228B22"/>
<path d="M60.4447 35.1201C59.604 35.1561 58.837 35.2458 58.1443 35.3878C58.0884 35.2679 58.0523 35.0605 58.0368 34.7635C57.5304 35.1797 56.9724 35.3878 56.3658 35.3878C55.8984 35.3878 55.4656 35.2664 55.0666 35.026C54.6691 34.7841 54.3511 34.4547 54.1155 34.037C53.88 33.6194 53.7622 33.165 53.7622 32.6738C53.7622 32.3686 53.8137 32.0657 53.9175 31.765C54.0198 31.4642 54.1811 31.1878 54.4012 30.9363C54.622 30.6848 54.8936 30.4885 55.2182 30.3458C55.5436 30.2032 55.9139 30.1311 56.3305 30.1311C56.6345 30.1311 56.8966 30.1701 57.1145 30.2444C57.3331 30.3201 57.5068 30.4061 57.6379 30.5032C57.7689 30.6003 57.9006 30.7157 58.0361 30.8517V28.9032C58.0361 28.6385 58.0147 28.448 57.9713 28.3341C57.9264 28.2186 57.8454 28.1458 57.724 28.1128C57.6033 28.0811 57.406 28.062 57.1321 28.0539V27.5083L59.5702 26.998V33.648C59.5702 33.9341 59.5827 34.1311 59.6092 34.2422C59.6342 34.3532 59.7071 34.4341 59.8263 34.4826C59.9441 34.5326 60.1509 34.5628 60.4447 34.576V35.1201ZM58.0368 33.998V31.5929C57.8705 31.3914 57.6717 31.2076 57.442 31.0407C57.2116 30.8745 56.9393 30.7907 56.622 30.7907C56.4277 30.7907 56.2451 30.8444 56.0751 30.9517C55.905 31.0591 55.7681 31.1951 55.6643 31.362C55.4899 31.6341 55.403 32.0966 55.403 32.7451C55.403 33.4032 55.5274 33.8973 55.7755 34.2311C56.0228 34.5628 56.3312 34.7297 56.7 34.7297C56.965 34.7297 57.2124 34.6635 57.4428 34.5333C57.6717 34.4017 57.8705 34.2238 58.0368 33.998Z" fill="#228B22"/>
<path d="M67.5959 35.1561C67.4811 35.1634 67.2809 35.1767 66.996 35.195C66.7111 35.2134 66.3909 35.2384 66.0354 35.2715C65.6813 35.3046 65.3964 35.345 65.1829 35.3877V34.5208C64.6713 35.1061 64.0596 35.3987 63.3463 35.3987C62.8266 35.3987 62.4424 35.2884 62.1928 35.0664C61.9433 34.845 61.788 34.6002 61.7291 34.3333C61.6695 34.0664 61.64 33.7796 61.64 33.4752V31.7237C61.64 31.4899 61.6253 31.3186 61.598 31.2097C61.5708 31.1009 61.4965 31.0178 61.3779 30.9597C61.2594 30.9031 61.0629 30.8737 60.7898 30.8737V30.3281H63.1726V33.5994C63.1726 34.273 63.4332 34.609 63.9521 34.609C64.2488 34.609 64.5013 34.5031 64.7067 34.2906C64.912 34.0803 65.071 33.8767 65.1822 33.6833V31.7237C65.1822 31.4781 65.1675 31.3017 65.1366 31.1943C65.1078 31.0869 65.0306 31.0083 64.9076 30.9539C64.7847 30.9009 64.5808 30.8737 64.2966 30.8737V30.3281H66.7155V33.9024C66.7155 34.0884 66.7325 34.2274 66.7685 34.3178C66.8039 34.409 66.8848 34.4789 67.0129 34.5289C67.1388 34.5781 67.3331 34.6046 67.5944 34.6083V35.1561H67.5959Z" fill="#228B22"/>
<path d="M73.5121 33.9845C73.0321 34.9191 72.2614 35.3867 71.1992 35.3867C70.7031 35.3867 70.2349 35.2853 69.7925 35.0838C69.3508 34.8823 68.9968 34.5889 68.7288 34.2051C68.4616 33.822 68.3276 33.372 68.3276 32.8566C68.3276 32.5014 68.3998 32.161 68.5448 31.836C68.6891 31.5117 68.8981 31.2176 69.172 30.9566C69.4458 30.6956 69.7697 30.4926 70.1436 30.3485C70.5176 30.2044 70.9195 30.1309 71.3479 30.1309C71.8949 30.1309 72.3763 30.2389 72.7922 30.4551C73.2088 30.6713 73.4171 30.9684 73.4171 31.3485C73.4171 31.5228 73.3509 31.6713 73.2206 31.7934C73.0896 31.9162 72.9387 31.9772 72.7686 31.9772C72.6067 31.9772 72.4808 31.9397 72.3939 31.8654C72.3071 31.7897 72.2497 31.7132 72.2224 31.6331C72.1937 31.5559 72.1554 31.4139 72.1032 31.2125C72.0524 31.0184 71.9663 30.8809 71.8477 30.7992C71.7285 30.7184 71.5621 30.6779 71.3479 30.6779C70.988 30.6779 70.667 30.8117 70.388 31.0779C70.1076 31.3456 69.9684 31.8456 69.9684 32.5779C69.9684 32.9698 70.0251 33.3301 70.1377 33.6588C70.2504 33.9875 70.4292 34.2478 70.6729 34.4404C70.9166 34.6323 71.2154 34.7287 71.568 34.7287C71.9596 34.7287 72.2592 34.6316 72.4653 34.4375C72.6722 34.2434 72.854 34.0162 73.013 33.7544L73.5121 33.9845Z" fill="#228B22"/>
<path d="M80.4082 33.9382C80.4082 34.2389 80.3456 34.4963 80.2234 34.7073C80.1005 34.9184 79.9349 35.0757 79.7273 35.1764C79.5182 35.2779 79.2834 35.3279 79.0221 35.3279C78.6886 35.3279 78.4126 35.2507 78.1903 35.0934C77.968 34.9375 77.8355 34.75 77.7913 34.5323C77.1303 35.0625 76.4633 35.3279 75.7935 35.3279C75.3658 35.3279 75.0154 35.2242 74.7416 35.0162C74.4677 34.8081 74.3308 34.5345 74.3308 34.1941C74.3308 33.9125 74.4044 33.6581 74.5509 33.4309C74.6974 33.2022 74.9123 33 75.1965 32.8228C75.4799 32.6434 75.817 32.4867 76.2094 32.3492C76.6025 32.2125 77.0912 32.0698 77.6772 31.9191V31.5801C77.6772 31.3 77.6117 31.0779 77.4777 30.9184C77.3452 30.7588 77.1008 30.6787 76.7445 30.6787C76.439 30.6787 76.2189 30.7419 76.085 30.8691C75.9495 30.9956 75.8612 31.1875 75.817 31.4441C75.7854 31.6257 75.728 31.7757 75.6426 31.8919C75.5579 32.0095 75.3813 32.0676 75.1096 32.0676C74.9433 32.0676 74.796 32.0206 74.6702 31.925C74.5428 31.8301 74.4795 31.6904 74.4795 31.5044C74.4795 31.1353 74.6797 30.8147 75.0802 30.5412C75.4799 30.2684 76.0945 30.1309 76.9227 30.1309C77.795 30.1309 78.3949 30.2772 78.7203 30.5713C79.0478 30.8639 79.212 31.2566 79.212 31.747V33.6242C79.212 33.861 79.2171 34.036 79.2289 34.1463C79.2407 34.2566 79.2738 34.3419 79.3268 34.3985C79.3806 34.4559 79.4652 34.4853 79.5801 34.4853C79.6824 34.4853 79.7729 34.4316 79.8502 34.3242C79.9268 34.2176 79.9665 34.0889 79.9665 33.9389L80.4082 33.9382ZM77.6779 33.9853V32.5139C76.9256 32.75 76.4471 32.9838 76.2432 33.2117C76.0393 33.4382 75.937 33.661 75.937 33.8794C75.937 34.061 75.9922 34.2073 76.1034 34.3184C76.2145 34.4294 76.3713 34.4853 76.5738 34.4853C76.7924 34.4853 76.9845 34.4389 77.1501 34.3478C77.3158 34.2566 77.4924 34.136 77.6779 33.9853Z" fill="#228B22"/>
<path d="M84.7424 34.134C84.5267 34.5818 84.2779 34.9031 83.9915 35.0965C83.7059 35.2906 83.3703 35.3877 82.9875 35.3877C82.5193 35.3877 82.1748 35.2921 81.9532 35.1017C81.7317 34.9112 81.5948 34.6995 81.5425 34.4627C81.491 34.2289 81.4659 33.9634 81.4659 33.6715V30.8737H80.5686V30.3281C80.9448 30.3281 81.2723 30.2561 81.5484 30.1142C81.8259 29.9723 82.0445 29.7796 82.2057 29.5384C82.3669 29.2965 82.4693 29.0377 82.512 28.7598H83V30.3281H84.682V30.8737H83V33.7068C83 34.0509 83.0228 34.2995 83.0677 34.4524C83.1134 34.6046 83.226 34.6818 83.4041 34.6818C83.5948 34.6818 83.7516 34.6068 83.873 34.4583C83.9967 34.3098 84.1159 34.1252 84.23 33.9031L84.7424 34.134Z" fill="#228B22"/>
<path d="M88.3744 35.1899H85.1465V34.6429H85.3173C85.5477 34.6429 85.7148 34.6113 85.82 34.5488C85.926 34.4848 85.9893 34.3958 86.0136 34.2811C86.0372 34.1679 86.0497 33.9988 86.0497 33.776V32.0135C86.0497 31.7679 86.0342 31.5936 86.0048 31.4907C85.9754 31.387 85.8973 31.3127 85.7737 31.2642C85.6493 31.2171 85.4402 31.1907 85.1465 31.1877V30.6414L87.5838 30.1304V33.7767C87.5838 34.1091 87.6257 34.3385 87.7089 34.4598C87.7913 34.5826 88.0137 34.6436 88.3744 34.6436V35.1899ZM87.7015 27.8083C87.7015 28.0458 87.6184 28.2488 87.4498 28.4171C87.2812 28.5855 87.0773 28.6693 86.8396 28.6693C86.6069 28.6693 86.403 28.5841 86.2308 28.4113C86.0585 28.2385 85.9724 28.0377 85.9724 27.8083C85.9724 27.5708 86.0571 27.3664 86.2278 27.1973C86.3979 27.0274 86.6033 26.9414 86.8396 26.9414C87.0817 26.9414 87.2864 27.0245 87.4527 27.1907C87.6191 27.3576 87.7015 27.5627 87.7015 27.8083Z" fill="#228B22"/>
<path d="M95.0208 32.7426C95.0208 33.2809 94.8891 33.7507 94.6285 34.15C94.3664 34.55 94.0131 34.8559 93.567 35.0676C93.1217 35.2801 92.6329 35.386 92.1021 35.386C91.6023 35.386 91.1312 35.2882 90.6844 35.0948C90.2383 34.9014 89.8732 34.6059 89.5898 34.211C89.3064 33.8147 89.1658 33.3301 89.1658 32.7559C89.1658 31.8963 89.4587 31.2441 90.0454 30.7992C90.6321 30.3544 91.33 30.1309 92.1382 30.1309C92.7403 30.1309 93.2593 30.2507 93.6958 30.4875C94.1309 30.725 94.4607 31.0434 94.6852 31.4434C94.9082 31.8426 95.0208 32.2764 95.0208 32.7426ZM93.3793 32.7081C93.3793 32.0345 93.2895 31.5287 93.1128 31.1875C92.9332 30.8478 92.5872 30.6772 92.0712 30.6772C91.7429 30.6772 91.4875 30.7514 91.3027 30.9C91.1179 31.0485 90.9891 31.2779 90.9163 31.5889C90.8426 31.8992 90.8066 32.3022 90.8066 32.7978C90.8066 33.4066 90.8875 33.9 91.0502 34.2772C91.2122 34.6529 91.567 34.8412 92.1132 34.8412C92.4739 34.8412 92.7492 34.7367 92.9369 34.5294C93.1253 34.3213 93.2468 34.0632 93.3005 33.7566C93.3528 33.4485 93.3793 33.0992 93.3793 32.7081Z" fill="#228B22"/>
<path d="M102.534 35.1904H99.4542V34.6434C99.6883 34.6434 99.8562 34.6132 99.957 34.5522C100.059 34.4904 100.121 34.4007 100.145 34.2816C100.168 34.1632 100.181 33.9669 100.181 33.6941V32.0139C100.181 31.6772 100.131 31.411 100.032 31.2147C99.932 31.0184 99.7303 30.9206 99.4255 30.9206C99.0096 30.9206 98.6997 31.0801 98.4944 31.3985C98.2905 31.7184 98.1896 32.0845 98.1896 32.5007V33.8309C98.1896 34.1434 98.2345 34.3581 98.3251 34.472C98.4171 34.5867 98.6129 34.6434 98.9147 34.6434V35.1904H95.7751V34.6434C96.0335 34.6434 96.2227 34.622 96.3456 34.5757C96.4686 34.5301 96.5495 34.4485 96.5893 34.3323C96.629 34.2162 96.6482 34.0301 96.6482 33.7764V31.8595C96.6482 31.5823 96.5952 31.4014 96.4884 31.3162C96.381 31.2309 96.1425 31.1882 95.7744 31.1882V30.6419L98.0873 30.1309C98.1241 30.361 98.141 30.575 98.141 30.772C98.141 30.8242 98.1395 30.8691 98.1373 30.9066C98.1359 30.9441 98.1344 30.9867 98.1344 31.0345C98.3847 30.7691 98.6431 30.5529 98.9139 30.3838C99.1841 30.2154 99.5198 30.1309 99.9239 30.1309C100.265 30.1309 100.572 30.1926 100.843 30.3162C101.114 30.4382 101.327 30.6242 101.482 30.8735C101.636 31.1235 101.713 31.4242 101.713 31.7764V33.7779C101.713 34.1103 101.758 34.3397 101.847 34.461C101.936 34.5838 102.165 34.6448 102.534 34.6448V35.1904Z" fill="#228B22"/>
<path d="M52.7817 38.8328C52.7817 39.4938 52.5778 39.996 52.1693 40.3379C51.7607 40.6813 51.2801 40.9012 50.7272 40.9975C50.1744 41.0938 49.5929 41.1423 48.9826 41.1423H48.4467V43.2446C48.4467 43.4821 48.4732 43.6651 48.524 43.7968C48.5756 43.9284 48.6867 44.0269 48.8575 44.0938C49.0268 44.1607 49.2874 44.1946 49.637 44.1946V44.7416H45.5818V44.1946C45.927 44.1946 46.181 44.1593 46.3451 44.0879C46.51 44.0159 46.6175 43.9159 46.6668 43.7857C46.7169 43.6534 46.7419 43.474 46.7419 43.2446V38.1615C46.7419 37.9313 46.7183 37.7526 46.6698 37.624C46.6227 37.496 46.5152 37.3946 46.3488 37.321C46.1817 37.2482 45.927 37.2122 45.5818 37.2122V36.6534L47.8829 36.5946C48.0014 36.5909 48.1317 36.5879 48.2708 36.5857C48.4114 36.5835 48.524 36.5813 48.6072 36.5798C48.6904 36.5769 48.8126 36.5762 48.976 36.5762C49.1777 36.5762 49.3286 36.5784 49.4273 36.5828C49.8998 36.6019 50.3526 36.6475 50.7898 36.7188C51.2256 36.7909 51.665 36.9916 52.1119 37.321C52.5587 37.6519 52.7817 38.1563 52.7817 38.8328ZM50.9503 38.8446C50.9503 38.2034 50.7633 37.7747 50.3894 37.5593C50.0139 37.3446 49.5207 37.2365 48.9112 37.2365C48.8008 37.2365 48.6455 37.2401 48.4467 37.249V40.4843H48.9944C49.5774 40.4843 50.0485 40.3843 50.4092 40.1843C50.7707 39.9843 50.9503 39.5379 50.9503 38.8446Z" fill="#228B22"/>
<path d="M58.5013 40.6204C58.5013 40.8498 58.4306 41.0314 58.2901 41.1637C58.1495 41.2961 57.9838 41.363 57.7939 41.363C57.5672 41.363 57.3699 41.252 57.1984 41.0299C57.1196 40.9314 57.0534 40.8608 57.0011 40.8167C56.9511 40.7726 56.8774 40.7505 56.7825 40.7505C56.4733 40.7505 56.2319 40.9189 56.0596 41.2534C55.8881 41.588 55.8005 41.9358 55.8005 42.2954V43.3284C55.8005 43.6608 55.8439 43.8895 55.9286 44.0115C56.0132 44.1343 56.2392 44.1954 56.6044 44.1954H56.9187V44.7432H53.2271V44.1954H53.5362C53.8682 44.1954 54.0728 44.1329 54.1487 44.0049C54.2238 43.8784 54.262 43.6527 54.262 43.3284V41.5946C54.262 41.3299 54.2348 41.1395 54.1811 41.0248C54.1273 40.9108 54.0316 40.8336 53.8925 40.7961C53.7534 40.7586 53.5325 40.7402 53.2271 40.7402V40.1932L55.5458 39.6836C55.6047 39.8851 55.6592 40.3145 55.7114 40.9718C55.8226 40.7387 55.9683 40.5248 56.1487 40.3299C56.3298 40.1358 56.5315 39.9799 56.7553 39.8615C56.9798 39.7424 57.208 39.6836 57.442 39.6836C57.7674 39.6836 58.0251 39.7748 58.2157 39.9564C58.4056 40.1373 58.5013 40.3601 58.5013 40.6204Z" fill="#228B22"/>
<path d="M64.8202 42.2954C64.8202 42.8336 64.6884 43.3027 64.4278 43.7027C64.1665 44.1027 63.8124 44.4086 63.3671 44.6196C62.921 44.8321 62.4329 44.9387 61.9022 44.9387C61.4024 44.9387 60.9305 44.8409 60.4837 44.6476C60.0383 44.4534 59.6732 44.1586 59.3906 43.763C59.1064 43.3667 58.9651 42.8829 58.9651 42.3079C58.9651 41.449 59.2581 40.7968 59.8447 40.3512C60.4314 39.9071 61.1293 39.6836 61.9375 39.6836C62.5397 39.6836 63.0594 39.8027 63.4959 40.0395C63.9309 40.277 64.2607 40.5961 64.4845 40.9954C64.7075 41.3946 64.8202 41.8284 64.8202 42.2954ZM63.1786 42.2593C63.1786 41.5865 63.0903 41.0799 62.9114 40.7402C62.7333 40.3998 62.3866 40.2299 61.8713 40.2299C61.5422 40.2299 61.2861 40.3042 61.102 40.452C60.9173 40.6005 60.7884 40.8307 60.7156 41.1417C60.642 41.452 60.6059 41.8549 60.6059 42.3498C60.6059 42.9593 60.6869 43.4527 60.8495 43.8292C61.0122 44.2049 61.367 44.3939 61.9125 44.3939C62.2739 44.3939 62.5478 44.2895 62.7362 44.0814C62.9254 43.874 63.0454 43.6159 63.0999 43.3093C63.1529 43.0005 63.1786 42.6512 63.1786 42.2593Z" fill="#228B22"/>
<path d="M68.1791 44.8912C68.1791 45.2824 68.1629 45.6103 68.132 45.8728C68.0996 46.1361 68.0194 46.3787 67.8876 46.6008C67.6425 47.0316 67.3333 47.3243 66.9616 47.4787C66.5877 47.6338 66.2152 47.7103 65.842 47.7103C65.2877 47.7103 64.8755 47.6074 64.606 47.4022C64.3366 47.1956 64.2012 46.9552 64.2012 46.6772C64.2012 46.4831 64.2755 46.3213 64.4205 46.1905C64.5678 46.0588 64.7363 45.9949 64.9262 45.9949C65.1449 45.9949 65.3068 46.0603 65.4113 46.1941C65.5166 46.3258 65.6027 46.4912 65.6705 46.6897C65.7301 46.8316 65.7897 46.9375 65.8508 47.0081C65.9126 47.0772 66.0039 47.1118 66.1224 47.1118C66.2807 47.1118 66.3977 47.0552 66.4758 46.9434C66.5523 46.8294 66.6002 46.6765 66.6186 46.4824C66.6355 46.289 66.6443 45.9831 66.6443 45.5684V41.4471C66.6443 41.2294 66.6223 41.0743 66.5759 40.9809C66.5302 40.8883 66.4397 40.8243 66.3057 40.7912C66.1717 40.7581 65.959 40.7412 65.6697 40.7412V40.1941L68.1784 39.6838L68.1791 44.8912ZM68.3757 37.3611C68.3757 37.5986 68.291 37.8015 68.1225 37.9699C67.9539 38.1375 67.7507 38.2221 67.5137 38.2221C67.2789 38.2221 67.0764 38.1361 66.9034 37.9633C66.7319 37.7919 66.6451 37.5905 66.6451 37.3611C66.6451 37.1236 66.729 36.9191 66.9005 36.7493C67.072 36.5794 67.2752 36.4941 67.5137 36.4941C67.7544 36.4941 67.959 36.5765 68.1254 36.7434C68.2918 36.9103 68.3757 37.1155 68.3757 37.3611Z" fill="#228B22"/>
<path d="M74.9138 42.1302H71.2582C71.2619 42.2044 71.2737 42.3647 71.2914 42.6103C71.3083 42.8559 71.365 43.1074 71.4577 43.364C71.5512 43.6228 71.7117 43.839 71.9391 44.014C72.1681 44.1905 72.4728 44.2794 72.8578 44.2794C73.0676 44.2794 73.3216 44.2265 73.619 44.1184C73.9156 44.0111 74.174 43.8059 74.3919 43.5L74.8556 43.8147C74.3875 44.5647 73.644 44.9383 72.6259 44.9383C72.171 44.9383 71.7551 44.8721 71.3812 44.7419C71.0065 44.6103 70.6892 44.4294 70.4264 44.1949C70.1658 43.9611 69.9641 43.6868 69.8265 43.3699C69.6881 43.0537 69.6182 42.7125 69.6182 42.3478C69.6182 41.8691 69.7345 41.4265 69.9663 41.0177C70.199 40.6103 70.5309 40.2853 70.963 40.0441C71.3951 39.803 71.8876 39.6816 72.4434 39.6816C72.9852 39.6816 73.4445 39.7986 73.8199 40.0331C74.1946 40.2662 74.4706 40.5691 74.6488 40.9405C74.8247 41.3147 74.9138 41.7111 74.9138 42.1302ZM73.4401 41.5838C73.4401 40.6802 73.0838 40.2302 72.3705 40.2302C72.0253 40.2302 71.761 40.3544 71.5762 40.6044C71.3929 40.853 71.2899 41.1794 71.27 41.5838H73.4401Z" fill="#228B22"/>
<path d="M81.0079 43.5353C80.528 44.4699 79.758 44.9375 78.6943 44.9375C78.1997 44.9375 77.7308 44.8361 77.2891 44.6346C76.8474 44.4331 76.4926 44.1397 76.2254 43.7559C75.9582 43.3713 75.8242 42.9228 75.8242 42.4074C75.8242 42.0515 75.8964 41.7118 76.0414 41.3868C76.1857 41.0618 76.3947 40.7684 76.6685 40.5074C76.9424 40.2463 77.267 40.0427 77.6402 39.8993C78.0149 39.7544 78.4168 39.6816 78.8438 39.6816C79.3907 39.6816 79.8721 39.789 80.2888 40.0052C80.7054 40.2221 80.9145 40.5184 80.9145 40.8986C80.9145 41.0736 80.8475 41.2213 80.7172 41.3441C80.5862 41.4669 80.4352 41.528 80.2659 41.528C80.1033 41.528 79.9774 41.4905 79.8905 41.4162C79.8044 41.3397 79.7455 41.264 79.719 41.1838C79.6903 41.1059 79.6513 40.9647 79.5998 40.7633C79.5497 40.5691 79.4628 40.4316 79.3436 40.3493C79.2258 40.2691 79.0587 40.2287 78.8438 40.2287C78.4831 40.2287 78.1636 40.3625 77.8839 40.6287C77.6049 40.8963 77.465 41.3956 77.465 42.1287C77.465 42.5206 77.521 42.8809 77.6343 43.2081C77.747 43.5375 77.9258 43.7986 78.1687 43.9897C78.4131 44.1824 78.712 44.2787 79.0646 44.2787C79.4569 44.2787 79.7558 44.1809 79.9619 43.9875C80.168 43.7934 80.3499 43.5662 80.5089 43.3044L81.0079 43.5353Z" fill="#228B22"/>
<path d="M85.6396 43.6848C85.4246 44.1326 85.1751 44.4532 84.8895 44.6473C84.6039 44.8414 84.2689 44.9385 83.8854 44.9385C83.4173 44.9385 83.0735 44.8429 82.8512 44.6525C82.6289 44.462 82.4927 44.2503 82.4404 44.0135C82.3889 43.7797 82.3631 43.5142 82.3631 43.2223V40.4245H81.4658V39.8789C81.8427 39.8789 82.1688 39.8069 82.4471 39.665C82.7246 39.5223 82.9425 39.3304 83.1037 39.0885C83.2649 38.8473 83.3657 38.5878 83.4092 38.3105H83.8972V39.8789H85.5792V40.4245H83.8972V43.2576C83.8972 43.6017 83.92 43.8503 83.9657 44.0032C84.0106 44.1554 84.1232 44.2326 84.3021 44.2326C84.492 44.2326 84.6488 44.1569 84.7717 44.0091C84.8946 43.8605 85.0132 43.676 85.128 43.4539L85.6396 43.6848Z" fill="#228B22"/>
</g>
<defs>
<clipPath id="clip0_395_19">
<rect width="129.464" height="50" fill="white"/>
</clipPath>
</defs>
</svg>
