<svg width="59" height="50" viewBox="0 0 59 50" fill="none" xmlns="http://www.w3.org/2000/svg">
<g clip-path="url(#clip0_395_4519)">
<path d="M56.6025 49.8053H2.72287C1.50596 49.8053 0.515872 48.8226 0.515872 47.615V44.3922C0.515389 44.07 0.587348 43.7517 0.726504 43.4605H0.675095L29.1317 0.691814C29.2983 0.484637 29.4911 0.441406 29.6234 0.441406C30.0723 0.441406 30.4643 0.942695 30.5073 0.999863L58.6517 43.4605H58.601C58.7395 43.7506 58.8116 44.0665 58.8116 44.3922V47.615C58.8118 48.8228 57.8215 49.8053 56.6048 49.8053M1.52405 43.0072H1.57808L1.31152 43.3677C1.0897 43.6677 0.972599 44.0221 0.972599 44.392V47.6147C0.972599 48.5729 1.75753 49.352 2.72287 49.352H56.602C57.5671 49.352 58.3522 48.5724 58.3522 47.6147V44.392C58.3522 44.0223 58.2352 43.6684 58.0133 43.3677L57.7468 43.0072H57.802L30.1313 1.25996C30.0201 1.11515 29.7805 0.894267 29.621 0.894267C29.5894 0.894267 29.5463 0.903007 29.4915 0.967972L1.52405 43.0072Z" fill="#2761AE"/>
<path fill-rule="evenodd" clip-rule="evenodd" d="M29.9172 4.66016L4.448 42.8285H49.0938L38.1354 25.9085H43.6142L29.9172 4.66016Z" fill="#2761AE"/>
<path fill-rule="evenodd" clip-rule="evenodd" d="M30.1189 7.2793V41.9247H47.267L36.3086 25.0049H41.6866L30.1189 7.2793Z" fill="#EE3331"/>
<path fill-rule="evenodd" clip-rule="evenodd" d="M36.9694 19.8359C36.9104 20.2716 36.7326 20.683 36.4554 21.0257C36.1781 21.3684 35.8118 21.6296 35.396 21.7809C35.4339 21.6814 35.4534 21.5759 35.4536 21.4695C35.4535 21.2347 35.3594 21.0096 35.1922 20.8436C35.0249 20.6775 34.7981 20.5842 34.5615 20.5841C34.0689 20.5841 33.67 20.9805 33.67 21.4695C33.6699 21.5759 33.6895 21.6814 33.7276 21.7809C32.8936 21.4785 32.2741 20.7355 32.1537 19.8359C32.1186 20.0016 32.1009 20.1705 32.1011 20.3398C32.1011 20.9875 32.3604 21.6087 32.8218 22.0667C33.2832 22.5247 33.909 22.7821 34.5615 22.7822C35.2141 22.7821 35.8399 22.5247 36.3013 22.0667C36.7627 21.6087 37.022 20.9875 37.022 20.3398C37.0219 20.1705 37.0043 20.0017 36.9694 19.8359ZM35.2482 32.8548L35.6633 33.4454L36.2583 33.0334L36.4458 33.727L37.1448 33.541L37.082 34.2568L37.8027 34.3194L37.4968 34.9705L38.1525 35.2741L37.6413 35.782L38.1525 36.2899L37.4968 36.5937L37.8027 37.2447L37.082 37.3071L37.1448 38.0229L36.4458 37.8372L36.2583 38.531L35.6633 38.1186L35.2482 38.7072L34.8331 38.1186L34.24 38.531L34.0527 37.8372L33.3534 38.0229L33.4172 37.3071L32.6956 37.2447L33.0017 36.5937L32.3457 36.2899L32.8574 35.782L32.3457 35.2741L33.0017 34.9705L32.6956 34.3194L33.4172 34.2568L33.3534 33.541L34.0527 33.727L34.24 33.0334L34.8331 33.4454L35.2482 32.8548Z" fill="white"/>
<path d="M20.7098 44.4089C20.2588 44.4267 20.0839 44.5027 20.042 44.7732C20.0172 44.9551 19.9673 45.231 19.9673 45.7477V48.0784H19.5638L16.0926 45.1547H16.0678V46.4776C16.0678 46.9943 16.1095 47.2525 16.1345 47.4287C16.1766 47.6872 16.3182 47.7984 16.9356 47.8161V48.0217H14.8887V47.8161C15.3559 47.792 15.548 47.6985 15.579 47.4462C15.6123 47.2525 15.6623 46.994 15.6623 46.4776V45.2506C15.6623 44.8691 15.6456 44.7574 15.4873 44.6227C15.3369 44.4815 15.1451 44.4349 14.7971 44.4111V44.2055H16.3403L19.5281 46.7805H19.5615V45.7474C19.5615 45.2306 19.5139 44.9549 19.4948 44.7845C19.4529 44.5318 19.2806 44.4302 18.669 44.4066V44.2011H20.7051V44.4066L20.7098 44.4089ZM30.0526 48.0193V47.8138C30.6786 47.767 30.7286 47.7257 30.7207 47.1854L30.7031 44.9251H30.6617L28.8176 47.9782H28.5839L26.8822 44.9837H26.8489L26.7489 46.5164C26.7151 47.0037 26.7151 47.2794 26.7489 47.4613C26.7822 47.7254 26.9488 47.7783 27.4993 47.8157V48.0212H25.497V47.8157C25.9645 47.7864 26.123 47.681 26.1729 47.4755C26.2205 47.2877 26.29 46.9822 26.3484 46.3657L26.4816 45.2091C26.5483 44.54 26.49 44.4578 25.7724 44.4106V44.2051H27.4993L29.1078 46.7743L30.7428 44.2029H32.4208V44.4085C31.7527 44.4557 31.7203 44.5023 31.7365 44.9896L31.8112 47.1852C31.8279 47.7252 31.8698 47.7663 32.5205 47.8135V48.0191H30.05L30.0526 48.0193ZM41.8995 48.0193V47.8138C42.3921 47.7609 42.434 47.6905 42.3003 47.4325L41.9666 46.771H40.3648L40.064 47.3989C39.945 47.6808 39.964 47.7627 40.5733 47.8159V48.0214H38.7045L38.7128 47.8159C39.2633 47.7691 39.3635 47.7044 39.6411 47.2111L41.3518 44.1937L41.7771 44.1172L43.371 47.1757C43.6566 47.6926 43.7628 47.7691 44.2885 47.8135V48.0191H41.9018L41.8995 48.0193ZM41.1907 45.1897H41.1657L40.5064 46.4576H41.8083L41.1907 45.1897Z" fill="#2761AE"/>
</g>
<defs>
<clipPath id="clip0_395_4519">
<rect width="58.9286" height="50" fill="white"/>
</clipPath>
</defs>
</svg>
