<svg width="50" height="50" viewBox="0 0 50 50" fill="none" xmlns="http://www.w3.org/2000/svg">
<path d="M1.6284 38.7211H22.822L22.8377 38.6955C22.8202 38.6859 22.8013 38.6786 22.7859 38.6663L21.7522 37.8856L18.7034 35.5935L16.057 33.5951C16.014 33.5627 15.9623 33.5438 15.9085 33.5409L8.99733 33.5395C8.95015 33.5395 8.89541 33.5587 8.85639 33.5861L4.74708 36.4992L1.63131 38.7208M14.1305 23.0958V23.855C14.1313 24.1795 14.1462 24.5046 14.062 24.8236C14.037 24.9197 13.9956 24.9523 13.8923 24.9523L10.3607 24.9494C10.1665 24.9494 9.95302 24.9005 9.78326 24.9652C9.6097 25.0313 9.47867 25.2099 9.32899 25.3389L9.24746 25.408L5.17076 29.0308H18.9151L18.7811 28.9055L17.4897 27.8375L15.1514 25.93C15.0437 25.8432 15.0192 25.7479 15.0145 25.625L14.9254 23.2755C14.9234 23.2173 14.912 23.1599 14.9045 23.0984H14.1305V23.0958ZM1.53697 40.6388H23.6749C23.6769 40.6097 23.6816 40.5934 23.6793 40.5742C23.6443 40.2945 23.7259 40.0498 23.9035 39.8342L24.3211 39.332C24.5036 39.1094 24.5846 38.8557 24.5406 38.5687C24.515 38.3998 24.4533 38.2503 24.3091 38.1609C24.2226 38.2885 24.1536 38.4193 24.0587 38.5262C23.8627 38.7464 23.5864 38.8379 23.322 38.941C23.0995 39.0284 22.8887 39.1339 22.633 39.1339C19.9811 39.1316 17.3289 39.1391 14.6765 39.1441L12.1675 39.1528L1.55939 39.1709C1.40651 39.1709 1.30256 39.0952 1.25655 38.9518C1.23151 38.8732 1.22277 38.7899 1.20064 38.7106C1.17298 38.6121 1.13891 38.5148 1.10455 38.4062C0.812189 38.5877 0.690179 38.8437 0.609518 39.1287C0.530896 39.4048 0.602821 39.6181 0.847132 39.7695C0.974092 39.8482 1.11416 39.9059 1.2481 39.9743C1.49445 40.1005 1.56842 40.2365 1.54454 40.5109C1.54104 40.5503 1.54017 40.5896 1.53755 40.6385M15.4682 17.8512H22.3578L22.2006 16.9278L15.8031 16.9281C15.7448 16.9281 15.6802 16.9114 15.6575 17.0055L15.4653 17.8512M18.284 4.59636L19.5895 4.5483V4.33797C19.5903 4.17599 19.6757 4.08073 19.839 4.0685C19.9139 4.06267 19.9893 4.06762 20.0647 4.06733H20.3704V3.12522H20.2196C20.081 3.12493 19.9418 3.13483 19.8049 3.12085C19.6806 3.10803 19.5886 3.04802 19.5627 2.90236C19.5277 2.70834 19.4707 2.51841 19.4258 2.32614L19.0379 0.663599C19.0301 0.630097 18.982 0.5864 18.9491 0.58407C18.92 0.581739 18.8851 0.627767 18.8571 0.656316C18.8449 0.669134 18.8431 0.69273 18.8385 0.714579L18.2747 2.93324C18.2421 3.06637 18.1807 3.1022 18.0563 3.10308L17.4894 3.13221V4.03762C17.6807 4.05801 17.8714 4.04723 18.0426 4.10375C18.2465 4.17366 18.2861 4.377 18.2872 4.60044M15.8887 16.1004H21.9927L21.8247 15.2154H16.3095C16.0483 15.2154 16.0474 15.2145 15.9944 15.4671L15.8852 16.101M16.1481 14.557H21.6648C21.6584 14.5034 21.6584 14.4565 21.6473 14.4125L21.5314 13.9523C21.5163 13.8526 21.479 13.8346 21.3858 13.8346L16.8421 13.8366C16.6965 13.8366 16.5567 13.8407 16.414 13.8354C16.3354 13.8325 16.2967 13.8471 16.2812 13.938L16.1455 14.5567M21.2434 12.4558H16.6309L16.529 13.1179L21.3943 13.0734L21.244 12.4558M16.808 11.6791H21.0667L21.0128 11.3284C21.0061 11.2043 20.9493 11.1769 20.8343 11.1775L16.9018 11.1784L16.8191 11.5635C16.8121 11.5984 16.8121 11.6343 16.8074 11.6791M22.7285 19.6087L22.776 19.1485C22.7801 18.8338 22.6286 18.6497 22.3209 18.595C21.9842 18.532 21.6505 18.597 21.3162 18.6334C20.9913 18.6684 20.6669 18.7345 20.3186 18.6462L21.2271 19.5784C21.2503 19.599 21.2798 19.6112 21.3107 19.6128L22.7279 19.614M17.5587 18.6337L15.543 18.634C15.3081 18.634 15.3054 18.634 15.2519 18.8574L15.0929 19.5916C15.1132 19.6009 15.1208 19.6067 15.1278 19.607L16.5651 19.6073C16.5998 19.6058 16.6329 19.5924 16.6589 19.5694L17.5558 18.6372M18.8207 28.0199C18.9483 28.0595 19.0071 28.0219 19.0315 27.9034C19.0694 27.7199 18.9832 27.5829 18.8859 27.4451C18.8102 27.3414 18.7223 27.2462 18.6326 27.1393C18.9092 26.9849 19.0997 26.7658 19.2042 26.4826C19.2697 26.3055 19.3061 26.1179 19.358 25.9358C19.4142 25.7395 19.3405 25.5848 19.1964 25.461C18.7258 25.0537 17.9597 25.3066 17.8487 25.9125C17.805 26.1491 17.8254 26.3108 17.9943 26.4078L18.3274 26.5884C18.3396 26.5932 18.3526 26.5953 18.3656 26.5946C18.3786 26.5939 18.3913 26.5904 18.4029 26.5843L18.7069 26.3847C18.8321 26.295 18.8979 26.2924 19.0409 26.4037C18.9025 26.5415 18.7788 26.6973 18.6285 26.8066C18.3461 27.009 18.317 27.229 18.5878 27.4906L18.6789 27.5832C18.7963 27.7015 18.8752 27.8329 18.8181 28.0144M17.0642 10.448C18.3164 10.4643 19.5475 10.497 20.7781 10.4131C20.7636 10.3102 20.7388 10.2208 20.7417 10.1322C20.7455 10.0113 20.6841 10.0029 20.5883 10.0035L18.1714 10.0049C17.8662 10.0049 17.561 10.0026 17.2558 10.0061C17.2209 10.0064 17.1621 10.0294 17.1545 10.0533C17.1167 10.1768 17.0963 10.3044 17.0613 10.4477M17.3219 9.35064H19.107L20.4272 9.35238C20.5262 9.35355 20.5574 9.31393 20.5399 9.22566L20.4817 8.99115H17.3671L17.3278 9.35064M12.7776 24.2951L11.9931 22.792L11.2069 24.2922H12.7715L12.7776 24.2951ZM17.5499 8.15624H20.3332L20.2726 7.93193C20.2551 7.83813 20.2106 7.80783 20.111 7.80841L17.7098 7.81074C17.6714 7.81074 17.6329 7.81482 17.5875 7.81715L17.5499 8.15624Z" fill="#2A3A94"/>
<path d="M16.2845 25.2856L16.2053 25.1715C16.0731 24.9908 16.0772 24.969 16.27 24.8423L16.2903 24.8297C16.4592 24.7278 16.5378 24.7622 16.5815 24.9579C16.6485 25.2594 16.7149 25.2807 16.9592 25.091C17.0486 25.0211 17.145 24.957 17.2504 24.9096C17.3494 24.8629 17.4324 24.9233 17.5037 24.9911C17.5669 25.0508 17.5946 25.1164 17.5489 25.2017C17.5093 25.276 17.5416 25.3142 17.6217 25.3183L17.7405 25.3171C17.8686 25.3084 17.9024 25.2084 17.9376 25.1097C17.9708 25.0171 17.9574 24.9466 17.866 24.8883L17.4854 24.6261C17.4563 24.6075 17.4021 24.6051 17.3707 24.6191C17.2035 24.6937 17.0329 24.7196 16.8509 24.6984L16.203 24.6439C15.94 24.6381 15.7662 24.7895 15.6264 25.0098C15.8512 25.0913 15.9575 25.4191 16.2874 25.2894M21.2281 25.4934C21.3737 25.4569 21.5059 25.4392 21.6227 25.392C21.7394 25.3448 21.7557 25.253 21.6856 25.1525C21.5758 24.994 21.4313 24.8898 21.2313 24.8962C21.0932 24.9 20.9555 24.9124 20.819 24.9334C20.5618 24.9742 20.3085 25.001 20.0665 24.8685C20.0441 24.856 20.0106 24.8443 19.9891 24.8522C19.7395 24.9454 19.5232 25.0747 19.4373 25.2833C19.5138 25.3864 19.5596 25.4765 19.6309 25.5344C19.6746 25.5703 19.7765 25.5851 19.821 25.5595C19.895 25.5187 19.8577 25.4348 19.8123 25.3847C19.7308 25.2973 19.7616 25.2303 19.8438 25.1691C20.0272 25.0322 20.2223 24.9506 20.2805 25.2894C20.2966 25.3832 20.358 25.4336 20.4454 25.4555C20.5374 25.4782 20.6067 25.4403 20.6597 25.3658C20.7127 25.2912 20.7552 25.2055 20.8222 25.1479C20.8795 25.0983 20.9695 25.0488 21.0376 25.0605C21.1666 25.0779 21.2764 25.3191 21.2249 25.4966M17.7611 7.15386H20.1175L20.0721 6.85555H19.9265L18.0745 6.85613C17.7833 6.85613 17.7833 6.85584 17.7629 7.15386M15.6622 24.3409L16.0038 24.1574C16.313 24.0228 16.6462 24.0409 16.9726 24.0164C17.1578 24.0024 17.3145 24.0592 17.4519 24.181C17.5113 24.2334 17.5684 24.2917 17.6359 24.3301C17.7408 24.3893 17.8508 24.4408 17.9635 24.4807C18.0267 24.5035 18.0587 24.4627 18.0654 24.3899C18.0756 24.2745 18.0168 24.2075 17.935 24.1437C17.617 23.8961 17.2489 23.7845 16.8576 23.7635C16.4423 23.7417 16.0422 23.8218 15.6922 24.0557C15.5571 24.1431 15.5525 24.2247 15.6651 24.3406M19.9035 6.2499L19.8732 6.0588C19.8557 5.94635 19.8053 5.89654 19.6775 5.89858L18.1458 5.90266L18.0104 5.90848L17.9755 6.24932H19.904L19.9035 6.2499ZM21.7948 20.3496L21.7942 20.7015C21.7913 20.7976 21.8186 20.8428 21.9281 20.8402L22.903 20.8352C22.933 20.8352 22.963 20.8288 22.9982 20.825V20.6983C23.0012 20.3947 22.9155 20.3009 22.6147 20.3074L21.7948 20.3496ZM15.9223 20.3298C15.6503 20.3298 15.3932 20.324 15.136 20.3312C14.8361 20.3406 14.7129 20.5497 14.8309 20.8247H15.922V20.3295L15.9223 20.3298ZM19.6449 5.00657C19.5115 5.00657 19.3819 5.01006 19.2523 5.00569L18.5427 4.97656C18.2879 4.97627 18.1263 5.12688 18.1368 5.33721C18.1513 5.34071 18.1659 5.34683 18.181 5.34683L19.6283 5.34974C19.7133 5.35032 19.7194 5.30109 19.7081 5.24195C19.6923 5.16504 19.6679 5.09047 19.6452 5.00686M19.4952 24.5233C19.5709 24.5075 19.6524 24.504 19.7212 24.4738L20.1754 24.2454C20.591 24.0123 21.0091 24.0275 21.42 24.2439C21.5598 24.3176 21.6777 24.4333 21.8073 24.5314C21.9112 24.4353 21.9092 24.2314 21.7828 24.1644C21.646 24.0915 21.5027 24.0114 21.353 23.9846C20.9745 23.9176 20.5979 23.9264 20.227 24.0321C19.9372 24.1195 19.6813 24.2561 19.4952 24.5233ZM19.1836 23.9535C19.1959 23.767 19.0299 23.6048 18.8051 23.5855C18.64 23.571 18.4463 23.7592 18.4318 23.9491C18.4184 24.1239 18.6021 24.2713 18.8581 24.2908C18.999 24.3016 19.1696 24.1236 19.1804 23.9535" fill="#2A3A94"/>
<path fill-rule="evenodd" clip-rule="evenodd" d="M23.649 28.5759L24.262 28.0879L32.0333 21.8809C32.1841 21.7606 32.3693 21.7789 32.5441 21.7643C32.9517 21.7253 33.3215 21.8701 33.7036 21.9671C33.9817 22.0379 34.1992 22.171 34.4013 22.3749L41.4811 29.3624C41.5434 29.4242 41.5818 29.423 41.6453 29.3659L43.6146 27.6268C43.7288 27.5242 43.8135 27.5277 43.9477 27.5732C44.2768 27.6848 44.5301 27.9117 44.7986 28.1069L48.258 30.6043C48.3468 30.6684 48.3844 30.7316 48.3832 30.8447L48.3797 32.599L47.7085 32.1028L44.1114 29.414C44.0832 29.393 44.0473 29.3592 44.0205 29.3636C43.8254 29.3986 43.6076 29.384 43.4527 29.5332L40.2679 32.6328C39.1134 33.8021 37.9966 35.007 36.861 36.1973L36.3514 36.7461C36.2821 36.8166 36.3101 36.886 36.3223 36.9553C36.4091 37.3457 36.5826 37.7005 36.794 38.037C37.1033 38.5322 37.4521 39.0021 37.7171 39.5168C38.5091 41.0527 39.1565 42.6508 39.639 44.3119C39.9302 45.3105 40.1835 46.3182 40.3786 47.3404L40.6794 48.9965C40.6881 49.0461 40.6881 49.0971 40.6931 49.1568L39.4395 49.2226L39.2927 48.4643C39.0893 47.4078 38.8392 46.3609 38.5432 45.3266C38.1239 43.8636 37.5992 42.4405 36.9481 41.0646C36.3575 39.8163 35.6604 38.6298 34.855 37.5068C33.9645 36.2658 32.9462 35.1392 31.8266 34.1059C30.5203 32.904 29.0556 31.9502 27.4179 31.2598C26.4118 30.8374 25.3694 30.5356 24.2957 30.3416C23.5794 30.2125 22.8572 30.1172 22.1287 30.1027C21.5154 30.0901 20.9016 30.1003 20.261 30.1003L20.4229 29.9017C20.6363 29.6503 20.8404 29.3936 20.9261 29.0641C20.9339 29.0338 20.9828 28.996 21.0154 28.9925C21.2082 28.975 21.4016 28.9598 21.5978 28.9575C21.9065 28.9546 22.2152 28.9767 22.5151 28.8701C22.6391 28.8273 22.6898 28.767 22.6918 28.6231L22.6878 23.1656H23.5788C23.6094 24.9572 23.5258 26.7488 23.6472 28.5706M32.8344 22.0632C32.4413 22.0708 32.1734 22.1498 31.8863 22.347C31.4853 22.6223 31.0797 22.8938 30.6924 23.1877C30.4373 23.3809 30.2509 23.6387 30.1374 23.9451C30.0663 24.1368 30.0791 24.2874 30.2285 24.4485C30.5232 24.7623 30.8176 25.0684 31.2119 25.2642C31.2596 25.2914 31.3138 25.3052 31.3687 25.3042C31.4237 25.3031 31.4773 25.2873 31.524 25.2584C31.7401 25.1381 31.9043 24.9671 32.0575 24.7748C32.1623 24.646 32.27 24.5184 32.3851 24.3996C32.4748 24.3072 32.5959 24.2831 32.715 24.3273C32.8277 24.3728 32.9316 24.4392 33.0353 24.4986C33.139 24.5581 33.2435 24.6297 33.3539 24.6801C33.5402 24.7634 33.7216 24.718 33.8611 24.5706C34.1814 24.2315 34.4747 24.2015 34.8468 24.4774C34.9709 24.5691 35.0856 24.6737 35.2032 24.7736C35.3934 24.935 35.5742 25.111 35.8206 25.1861C35.8642 25.1998 35.9312 25.2045 35.9638 25.1812C36.085 25.0952 36.1677 24.9796 36.1578 24.8217C36.1554 24.7832 36.1368 24.7343 36.1077 24.711C35.7181 24.3882 35.403 23.9944 35.064 23.6229C34.7364 23.2632 34.4045 22.9045 34.046 22.5742C33.6966 22.2543 33.2744 22.065 32.8312 22.0638M1.62842 38.7213L2.54975 38.0635L4.7468 36.5L8.85932 33.5868C8.89863 33.5594 8.95308 33.5402 9.00025 33.5402L15.9114 33.5417C15.9653 33.5443 16.0172 33.5632 16.0602 33.5958L18.7066 35.5943L21.7554 37.8863L22.7891 38.6671C22.8045 38.6787 22.8235 38.686 22.8409 38.6962L22.8252 38.7218H1.62842V38.7213Z" fill="#2A3A94"/>
<path fill-rule="evenodd" clip-rule="evenodd" d="M14.1304 23.0957H14.9041L14.9251 23.2728L15.0119 25.6249C15.0163 25.7478 15.041 25.8434 15.1488 25.9299L17.487 27.8375L18.7785 28.9054C18.8198 28.9392 18.8565 28.9782 18.9124 29.0307H5.1687L5.3143 28.901L9.33276 25.3391C9.48214 25.2101 9.61318 25.0315 9.78702 24.9654C9.95678 24.9007 10.1702 24.9496 10.3645 24.9496L13.896 24.9526C13.9994 24.9526 14.0408 24.9196 14.0658 24.8238C14.1532 24.5045 14.1351 24.1829 14.1342 23.8552V23.0957" fill="#2A3A94"/>
<path fill-rule="evenodd" clip-rule="evenodd" d="M1.53698 40.6385L1.54397 40.5112C1.56814 40.2368 1.49388 40.1033 1.24753 39.9746L0.846562 39.7698C0.60196 39.6183 0.530618 39.4048 0.608949 39.1289C0.689318 38.8434 0.811328 38.5876 1.10398 38.4064L1.20007 38.7108L1.25598 38.9521C1.3017 39.0954 1.40565 39.1711 1.55882 39.1711L3.8773 39.1638L12.167 39.1531L14.6759 39.1443L22.6324 39.1341C22.8881 39.1341 23.0989 39.0287 23.3214 38.9413C23.5835 38.8382 23.8624 38.7467 24.0581 38.5264C24.1533 38.4195 24.2224 38.289 24.3085 38.1611C24.453 38.2485 24.5144 38.4006 24.54 38.569C24.5837 38.8559 24.5031 39.1097 24.3205 39.3322L23.9029 39.8344C23.7282 40.05 23.6408 40.2941 23.6787 40.5744C23.681 40.5933 23.6764 40.6128 23.6743 40.6391H1.53698V40.6385ZM20.4508 28.4772C20.5772 28.7872 20.4936 29.052 20.3722 29.3104C20.2318 29.6096 20.0475 29.858 19.7258 30.0028C19.4238 30.1392 19.3871 30.2697 19.4733 30.6195C19.2773 30.6469 19.0845 30.6912 18.8909 30.6967C18.5866 30.7049 18.2814 30.6892 17.9766 30.6778C17.9358 30.6745 17.8948 30.6806 17.8568 30.6958C17.8188 30.711 17.7849 30.7347 17.7576 30.7652L15.6552 32.8971C15.5882 32.9646 15.5224 32.9909 15.4275 32.9909L9.564 32.9856C9.49483 32.9854 9.42752 32.9631 9.37181 32.9221L6.83407 30.866C6.6579 30.7192 6.46716 30.7425 6.27702 30.727L4.97335 30.6484C4.94597 30.6463 4.91918 30.6396 4.88599 30.635C4.88453 30.6219 4.88075 30.6111 4.88308 30.6015C4.92675 30.4034 4.89851 30.3545 4.7072 30.2985C4.46098 30.2303 4.24924 30.0723 4.11368 29.8556C3.97813 29.639 3.9286 29.3794 3.97485 29.128C4.00309 28.9608 4.04473 28.795 4.08754 28.6307C4.1021 28.5725 4.13063 28.518 4.16849 28.4755C4.2442 28.3895 4.32137 28.3968 4.37291 28.497L4.62741 29.0193C4.69788 29.1586 4.7832 29.2909 4.93171 29.3561C5.01324 29.3919 5.10467 29.4231 5.19174 29.4231H19.0866C19.1472 29.4231 19.2167 29.3946 19.2665 29.359L20.4508 28.4787M8.28042 30.8034L8.37797 30.9091L9.62544 32.1659C9.6513 32.1949 9.68336 32.2178 9.71925 32.2328C9.75514 32.2477 9.79394 32.2544 9.83277 32.2524L10.4513 32.2512L15.1141 32.2483C15.1738 32.2477 15.251 32.2264 15.2912 32.1857L16.5247 30.9164C16.5518 30.8878 16.5727 30.8523 16.6103 30.7999H8.28042V30.8034Z" fill="#EE2F3A"/>
<path fill-rule="evenodd" clip-rule="evenodd" d="M15.468 17.8514L15.6602 17.0057C15.68 16.9116 15.7417 16.9282 15.8058 16.9282L22.2033 16.9279L22.3605 17.8514H15.4709H15.468ZM18.2839 4.59654C18.2824 4.3731 18.2454 4.16947 18.0393 4.09984C17.8712 4.04333 17.6805 4.05411 17.486 4.03371V3.1283L18.0529 3.09917C18.177 3.09801 18.2384 3.06247 18.2713 2.92934L18.8351 0.710674C18.8397 0.691738 18.8415 0.668142 18.8537 0.652411C18.8817 0.623279 18.9166 0.577834 18.9457 0.580164C18.9786 0.582495 19.0267 0.626192 19.0345 0.659694L19.4224 2.32252L19.5593 2.89875C19.5884 3.04441 19.6772 3.10471 19.8015 3.11723C19.9384 3.13122 20.0776 3.12131 20.2162 3.1216H20.367V4.06401H20.0613C19.9856 4.0643 19.9105 4.05964 19.8356 4.06518C19.6725 4.07741 19.5869 4.17296 19.5861 4.33464V4.54497L18.2806 4.59304M15.8856 16.1L15.9948 15.4661C16.0443 15.2135 16.0487 15.2144 16.3099 15.2144L21.825 15.215L21.9931 16.1H15.8856ZM16.1482 14.5537L16.2839 13.935C16.2994 13.8438 16.3381 13.8295 16.4167 13.8324L16.8448 13.8336L21.3885 13.8315C21.4794 13.8315 21.5167 13.8496 21.5341 13.9492C21.5583 14.1045 21.6119 14.2551 21.65 14.4095C21.6608 14.4532 21.6608 14.5004 21.6675 14.554L16.1482 14.5537Z" fill="#2A3A94"/>
<path fill-rule="evenodd" clip-rule="evenodd" d="M21.2466 12.4525L21.3965 13.0701L16.5313 13.1147L16.6332 12.4525H21.2466ZM16.8079 11.6794L16.8196 11.5637L16.9023 11.1786L20.8348 11.1777C20.9498 11.1774 21.0095 11.2045 21.0133 11.3286C21.0197 11.4452 21.0474 11.555 21.0672 11.6794H16.8079ZM22.7284 19.609C22.2451 19.609 21.7783 19.6093 21.3112 19.6075C21.2802 19.6064 21.2506 19.5944 21.2276 19.5735L20.3188 18.6439C20.6671 18.7321 20.9886 18.6663 21.3165 18.6311C21.6505 18.5946 21.9842 18.5297 22.3211 18.5926C22.6289 18.65 22.7803 18.8338 22.7762 19.1461C22.7742 19.2953 22.7465 19.4432 22.7287 19.6064M17.5586 18.6311L16.6617 19.5633C16.6399 19.5857 16.5997 19.6011 16.568 19.6011C16.0887 19.6029 15.607 19.6017 15.1306 19.6008C15.1234 19.6006 15.1161 19.595 15.0957 19.5854L15.2547 18.8513C15.3057 18.6278 15.3083 18.6278 15.5459 18.6278L17.5615 18.6276" fill="#2A3A94"/>
<path fill-rule="evenodd" clip-rule="evenodd" d="M18.8236 28.0168C18.8809 27.8347 18.8017 27.7033 18.6844 27.5856L18.5932 27.493C18.3224 27.232 18.3521 27.0123 18.634 26.8096C18.7874 26.6997 18.9077 26.5474 19.046 26.4064C18.9004 26.2948 18.8372 26.2977 18.712 26.3874L18.408 26.587C18.3888 26.5986 18.3498 26.6007 18.3329 26.5908L17.9998 26.411C17.8274 26.3114 17.8076 26.1497 17.8542 25.9158C17.9654 25.3093 18.7315 25.0564 19.2024 25.4631C19.3465 25.5884 19.4202 25.7419 19.3637 25.9391L19.21 26.4856C19.1051 26.7682 18.915 26.9876 18.6386 27.1422L18.8914 27.4481C18.9892 27.5833 19.0757 27.7234 19.037 27.9061C19.0128 28.0214 18.954 28.059 18.8265 28.0226M19.0111 26.129L19.0687 26.1194C19.0687 26.0029 19.0839 25.8908 19.065 25.7809C19.03 25.577 18.7312 25.4526 18.5554 25.5636C18.521 25.5852 18.5064 25.6376 18.4826 25.6763C18.5184 25.6903 18.5539 25.7163 18.5897 25.7163C18.7155 25.7163 18.7944 25.7856 18.857 25.8829L19.0111 26.129ZM18.1538 25.8543L18.1256 26.0239C18.0819 26.1599 18.1489 26.2531 18.2487 26.3254C18.2825 26.3499 18.3574 26.3633 18.3844 26.3429C18.4596 26.286 18.5257 26.2181 18.5804 26.1413C18.6282 26.0749 18.6305 26.0108 18.5175 25.9939C18.4534 25.9846 18.3923 25.9493 18.3306 25.9254L18.1538 25.8543ZM17.0671 10.4475L17.1603 10.0531C17.1678 10.0289 17.2264 10.0065 17.2616 10.0059L20.5908 10.003C20.6869 10.0024 20.748 10.0108 20.7443 10.1317C20.7413 10.2203 20.7661 10.3065 20.7807 10.4126C19.5498 10.4962 18.3218 10.4635 17.0671 10.4475ZM17.3277 9.3443L17.3667 8.98511H20.49L20.5483 9.21962C20.5658 9.30789 20.5343 9.3478 20.4356 9.34634L19.1153 9.34459H17.3303L17.3277 9.3443ZM12.7775 24.2946H11.2126L11.993 22.7914L12.7746 24.2917M17.5502 8.15282L17.588 7.81344L17.7103 7.80703L20.1115 7.8047C20.2111 7.80411 20.2556 7.83441 20.2731 7.92821C20.2865 8.00104 20.311 8.07212 20.3337 8.15253H17.5505L17.5502 8.15282ZM16.2846 25.2831C15.9541 25.413 15.8479 25.085 15.6236 25.0034C15.7611 24.7803 15.9375 24.6314 16.2002 24.6375C16.4166 24.6425 16.6329 24.6666 16.8481 24.692C17.0253 24.7138 17.2052 24.6864 17.3679 24.6127C17.3993 24.5988 17.4538 24.6011 17.4826 24.6197L17.8632 24.8819C17.9546 24.9402 17.968 25.0107 17.9348 25.1033C17.8999 25.2024 17.8658 25.3014 17.7377 25.3107L17.6189 25.3119C17.5385 25.3107 17.5062 25.2726 17.5461 25.1954C17.5918 25.1097 17.5641 25.0445 17.501 24.9848C17.4293 24.9166 17.3466 24.856 17.2476 24.9032C17.1457 24.951 17.049 25.0151 16.9564 25.0847C16.7118 25.274 16.646 25.2531 16.5787 24.9515C16.5351 24.7564 16.4564 24.7185 16.2876 24.8234L16.2672 24.8359C16.0744 24.9629 16.0703 24.9816 16.2025 25.1651L16.2817 25.2793" fill="#2A3A94"/>
<path fill-rule="evenodd" clip-rule="evenodd" d="M21.225 25.497C21.2765 25.3222 21.1668 25.0781 21.0378 25.0615C20.9696 25.0527 20.8796 25.1022 20.8223 25.1489C20.7553 25.2062 20.7122 25.2922 20.6598 25.3668C20.6074 25.4413 20.5375 25.4792 20.4455 25.4565C20.3581 25.4346 20.2999 25.3842 20.2807 25.2904C20.2224 24.9513 20.0244 25.0332 19.8439 25.1701C19.7618 25.2284 19.7312 25.296 19.8124 25.3857C19.8576 25.4361 19.8948 25.5203 19.8212 25.5605C19.774 25.5861 19.675 25.5713 19.631 25.5354C19.5597 25.4772 19.514 25.3874 19.4374 25.2843C19.5201 25.0752 19.7396 24.9464 19.9892 24.8532C20.0107 24.8453 20.0474 24.857 20.0666 24.8695C20.3083 25.002 20.5617 24.9755 20.8191 24.9344C20.9556 24.9134 21.0933 24.901 21.2314 24.8972C21.4318 24.8908 21.5762 24.995 21.6857 25.1535C21.7556 25.2543 21.7395 25.3467 21.6228 25.393C21.506 25.4393 21.377 25.4571 21.2282 25.4938M17.761 7.15457C17.7837 6.85655 17.7837 6.85684 18.0726 6.85684L20.0725 6.85626L20.1179 7.15457H17.7586H17.761ZM15.6621 24.3416C15.5491 24.226 15.5543 24.1473 15.6891 24.0567C16.0421 23.8199 16.4393 23.7427 16.8545 23.7645C17.2485 23.7855 17.6165 23.8971 17.9319 24.1447C18.0134 24.2088 18.0726 24.2758 18.0624 24.3908C18.056 24.4637 18.0239 24.5074 17.9604 24.4817C17.8478 24.4418 17.7374 24.3903 17.6329 24.3311C17.5653 24.2933 17.5082 24.2341 17.4488 24.182C17.3851 24.1222 17.3094 24.0766 17.2268 24.0482C17.1442 24.0198 17.0565 24.0093 16.9695 24.0174C16.6434 24.0419 16.31 24.0238 16.0007 24.1584C15.886 24.2079 15.7794 24.2764 15.6591 24.3419M19.9033 6.2512H17.9747L18.0097 5.91036L18.1451 5.90453L19.6767 5.90045C19.8049 5.89841 19.8549 5.94823 19.8724 6.06067L19.9027 6.25178" fill="#2A3A94"/>
<path fill-rule="evenodd" clip-rule="evenodd" d="M21.7946 20.3486L22.6146 20.3064C22.9154 20.3 23.0013 20.3938 22.9981 20.6973V20.8241L22.9029 20.8343C22.5776 20.8357 22.2527 20.8319 21.928 20.8392C21.8185 20.8421 21.7911 20.7964 21.794 20.7005L21.7946 20.3486ZM15.9221 20.3317V20.827H14.831C14.7131 20.5523 14.8369 20.3428 15.1362 20.3335L15.9224 20.332M19.6447 5.00881L19.7076 5.24391C19.7193 5.30275 19.7129 5.35169 19.6279 5.35169L18.1806 5.34878C18.1655 5.34878 18.1506 5.34295 18.1364 5.33917C18.1259 5.12884 18.2878 4.97793 18.5423 4.97852L19.2519 5.00765L19.6445 5.00852M19.4951 24.5223C19.6814 24.2549 19.9371 24.1151 20.2268 24.0309C20.5978 23.9225 20.9772 23.9167 21.3529 23.9834C21.5026 24.0102 21.6461 24.09 21.7827 24.1631C21.9088 24.2307 21.9108 24.434 21.8071 24.5302C21.6779 24.4323 21.5602 24.3164 21.4199 24.2427C21.0122 24.0262 20.5908 24.0137 20.1753 24.2441L19.721 24.4725C19.652 24.5028 19.5708 24.5066 19.4951 24.5223ZM19.1835 23.9522C19.1724 24.1223 19.0021 24.3003 18.8611 24.2896C18.6049 24.27 18.4244 24.1226 18.4348 23.9478C18.4494 23.7579 18.643 23.57 18.8081 23.5843C19.0295 23.6038 19.1954 23.7661 19.1867 23.9522" fill="#2A3A94"/>
<path fill-rule="evenodd" clip-rule="evenodd" d="M23.9669 21.5975L21.545 21.499C21.4393 21.4953 21.3994 21.4734 21.3994 21.3592L21.4023 20.7408C21.3974 20.6806 21.3693 20.6247 21.324 20.5849L18.7801 18.5917C18.7036 18.5314 18.6613 18.5404 18.5917 18.601L16.404 20.4841C16.3146 20.5604 16.2916 20.6385 16.2948 20.7512C16.3006 20.9677 16.2931 21.1882 16.2782 21.4015C16.2704 21.5145 16.2011 21.5626 16.0756 21.5617L13.9108 21.5588C13.64 21.5588 13.6406 21.5588 13.6409 21.8253V22.7992H24.0563V21.6106L23.964 21.5969M20.2047 21.2896L17.351 21.3356L17.3283 21.3065L18.7531 19.683L20.2157 21.257L20.2018 21.2919" fill="#EE2F3A"/>
<path fill-rule="evenodd" clip-rule="evenodd" d="M19.0108 26.1203L18.857 25.8736C18.7944 25.7766 18.7155 25.7075 18.5897 25.7075C18.5539 25.7075 18.5183 25.6819 18.4828 25.6676C18.5061 25.6292 18.5207 25.5767 18.555 25.5552C18.7309 25.4445 19.0297 25.5683 19.0646 25.7722C19.0833 25.882 19.0681 25.9974 19.0681 26.1107L19.0105 26.1206M18.1544 25.8456L18.3311 25.9167C18.3931 25.9406 18.4534 25.9758 18.5181 25.9852C18.631 26.0021 18.6287 26.0661 18.581 26.1326C18.5262 26.2093 18.4601 26.2773 18.385 26.3342C18.3579 26.354 18.2831 26.3409 18.2493 26.3167C18.1497 26.2444 18.0827 26.1512 18.1261 26.0152C18.1401 25.9715 18.1418 25.9228 18.1544 25.8462M8.37028 41.84V45.9563L3.43282 41.84H1.44019V49.1532H3.43049V45.0905L8.36795 49.1156V49.1535H10.3585V41.8406L8.37028 41.84ZM23.3938 41.84H14.4731V43.8309H17.9368V49.1532H19.9271V43.8309H23.3912L23.3938 41.84ZM35.7759 44.7275V42.552C35.7759 42.1587 35.4672 41.8403 35.0872 41.8403H27.6205V49.1538H35.0846C35.4649 49.1538 35.7733 48.8234 35.7733 48.4168V46.1632C35.7733 45.7807 35.5004 45.4698 35.1522 45.4328C35.5007 45.397 35.7733 45.0972 35.7733 44.7278M33.6927 47.0671C33.6927 47.0973 33.6867 47.1272 33.6751 47.1552C33.6635 47.1831 33.6465 47.2084 33.6251 47.2298C33.6037 47.2511 33.5783 47.268 33.5504 47.2795C33.5225 47.2911 33.4926 47.297 33.4624 47.297H29.8021V46.3781H33.4618C33.5227 46.3781 33.5811 46.4022 33.6243 46.4451C33.6675 46.4881 33.6919 46.5465 33.6921 46.6074V47.0671H33.6927ZM33.6927 44.3247C33.6927 44.3549 33.6867 44.3848 33.6751 44.4127C33.6635 44.4406 33.6465 44.466 33.6251 44.4873C33.6037 44.5086 33.5783 44.5256 33.5504 44.5371C33.5225 44.5486 33.4926 44.5545 33.4624 44.5545H29.8021V43.6354H33.4618C33.5227 43.6353 33.5812 43.6595 33.6244 43.7025C33.6676 43.7455 33.692 43.804 33.6921 43.865V44.3247H33.6927Z" fill="#2A3A94"/>
</svg>
