<?xml version="1.0" encoding="utf-8"?>
<!-- Generator: Adobe Illustrator 27.4.1, SVG Export Plug-In . SVG Version: 6.00 Build 0)  -->
<svg version="1.1" id="Layer_1" xmlns="http://www.w3.org/2000/svg" xmlns:xlink="http://www.w3.org/1999/xlink" x="0px" y="0px"
	 width="38px" height="50px" viewBox="0 0 38 50" style="enable-background:new 0 0 38 50;" xml:space="preserve">
<style type="text/css">
	.st0{clip-path:url(#SVGID_00000153702984868012162160000005602410755642943875_);}
	.st1{fill:#138A44;}
	.st2{fill:#FFFFFF;}
</style>
<g>
	<defs>
		<rect id="SVGID_1_" x="4.6" y="5.7" width="31.8" height="42.3"/>
	</defs>
	<clipPath id="SVGID_00000095300215426774846360000000374564712330835368_">
		<use xlink:href="#SVGID_1_"  style="overflow:visible;"/>
	</clipPath>
	<g style="clip-path:url(#SVGID_00000095300215426774846360000000374564712330835368_);">
		<path class="st1" d="M30.9,26.6c0,7-5.8,12.8-12.9,12.8c-7.1,0-12.9-5.7-12.9-12.8c0-7,5.8-12.8,12.9-12.8
			C25.1,13.9,30.9,19.6,30.9,26.6"/>
		<path class="st2" d="M5.1,26.6c0,0.9,0.1,1.8,0.3,2.7h25.2c0.2-0.9,0.3-1.8,0.3-2.7c0-1.1-0.1-2.1-0.4-3.2h-25
			C5.3,24.5,5.1,25.5,5.1,26.6z"/>
		<path class="st1" d="M22.3,13.8L24,8.4c0,0-2.9-1.6-12.9-1.3c0,0,17.2-4.6,24.7,5.8c0,0,1,1.9-1.4,3.6c0,0-3.5-4.7-6.8-6.6l-2.5,5
			 M10,47.8c0,0,1.6-6.4,2.5-7.9c0.9-1.5,1.7-0.1,1.5,0.5C13.9,41.1,11.5,45.3,10,47.8"/>
		<path class="st2" d="M9.6,19.6V19c-0.1,0-0.1,0-0.1,0L9.5,19c2.6-2,4.3-1.6,5.2-0.8l-0.4,0.4c-1.1-0.9-2.7-0.7-4.5,0.8
			C9.7,19.5,9.7,19.6,9.6,19.6"/>
		<path class="st2" d="M24.6,19c-0.1-0.4-0.8-1.1-1.6-1.2c-0.9-0.2-1.6-0.5-2.3-1c-0.4-0.3-1,0-1.3,0.2c-0.2,0.1-0.3,0.1-0.4,0.1
			c-0.2,0-0.2-0.2-0.3-0.3c-0.1-0.2-0.3-0.7-1.1-0.8c-1-0.2-1.6,0.7-1.6,0.7l-0.1,0.2l-0.2,0c-1.4-0.2-2,1.1-2,1.1l-0.5-0.2
			c0.2-0.6,1.1-1.6,2.4-1.5c0.3-0.5,1.1-1,2.1-0.8c1,0.2,1.3,0.8,1.4,1.1c0.4-0.2,1.2-0.5,1.9-0.1c0.7,0.4,1.3,0.7,2.2,0.9
			c1,0.2,2,1.1,2.1,1.9L24.6,19L24.6,19z"/>
		<path class="st2" d="M22.9,20.6c-0.1-0.2-0.6-0.9-1.1-1c-0.4-0.1-1,0.4-1.2,0.6c0,0-0.1,0.2-0.2,0.3c-0.2,0-0.3-0.2-0.3-0.2
			c-2.1-1.4-3.6,0-3.6,0.1l-0.4-0.4c0,0,1.8-1.7,4.2-0.3c0.3-0.3,1-0.8,1.7-0.6c0.5,0.1,0.9,0.5,1.1,0.8c0.3-0.5,0.8-1,1.6-0.9
			c1.5,0.2,1.6,1.1,1.6,1.4h-0.6c0-0.2-0.1-0.7-1.1-0.8c-0.9-0.1-1.2,1-1.2,1c0,0,0,0.2-0.3,0.2C23,20.8,22.9,20.6,22.9,20.6"/>
		<path class="st2" d="M27.3,20.9c-0.6-0.6-1.8-1.2-1.8-1.2l0.2-0.5c0.1,0,1.3,0.6,2,1.3L27.3,20.9L27.3,20.9z M19.6,37.8
			c-0.9,0-1.7-0.1-2.2-0.1c-1.6-0.1-5.5-1-5.7-1l-0.3-0.1l0.2-0.6c0.1-0.3,0.1-0.9,0-1.4c-0.1-0.6-0.1-0.8,0.2-1.6
			c0.3-0.7,1.1-2,1.2-2.1l0,0c0.1-0.1,0.1-0.1,0.2-0.1c0.1,0,0.3,0,0.8,0.2c0.8,0.2,2.1,0.5,3.2,0.6c0.3,0,0.6,0,0.9,0
			c1.4,0,3-0.3,3.7-0.4l0,0c0,0,0,0,0.1,0c0.3,0,0.4,0.2,0.5,0.6l0.2,0.4c0.2,0.4,0.5,0.7,0.9,1c0.2,0.2,0.4,0.4,0.6,0.6
			c0.6,0.7,0.7,1.6,0.7,1.6l0,0.1l-0.1,0.1c0,0.1-1,1.3-2.2,1.8C22,37.7,21,37.8,19.6,37.8 M12.2,36.2c1,0.2,4,0.8,5.3,1
			c0.5,0,1.3,0.1,2.2,0.1c1.2,0,2.2-0.1,2.7-0.3c0.9-0.4,1.7-1.3,1.9-1.6c0-0.2-0.2-0.8-0.5-1.2c-0.2-0.2-0.4-0.4-0.5-0.5
			c-0.4-0.4-0.8-0.8-1-1.2c-0.1-0.2-0.1-0.3-0.2-0.4L22,31.8c-0.7,0.1-2.3,0.4-3.7,0.4c-0.4,0-0.7,0-1,0c-1.2-0.1-2.4-0.4-3.3-0.6
			l-0.6-0.1c-0.2,0.4-0.8,1.3-1,1.8c-0.3,0.6-0.3,0.8-0.2,1.3C12.3,35.1,12.3,35.8,12.2,36.2L12.2,36.2L12.2,36.2z"/>
		<path class="st2" d="M14.2,36.9l-0.5-0.1c0,0,0,0,0,0c0,0,0-0.2-0.4-1c-0.4-0.7-1.1-0.6-1.1-0.6l-0.1-0.6c0,0,1.1-0.1,1.7,0.9
			C14.3,36.4,14.2,36.8,14.2,36.9"/>
		<path class="st2" d="M17.6,37.4c0-0.1-0.2-1.7-1.8-1.9c-1.6-0.2-1.9,0.4-1.9,0.4l-0.5-0.2c0-0.1,0.4-1,2.5-0.7
			c1.7,0.2,2.2,1.6,2.3,2.4L17.6,37.4L17.6,37.4z"/>
		<path class="st2" d="M21.5,37.6l-0.3-0.2c0,0-0.5-1.2-1.6-1.3c-1-0.1-1.5,1-1.5,1l-0.5-0.3c0-0.1,0.7-1.5,2.1-1.3
			c0.8,0.1,1.3,0.6,1.6,1c0.1-0.4,0.2-0.9,0.2-1.3c0-0.2,0-0.4,0.1-0.6c0.1-0.7,0.1-1.3,0.5-1.6c0.4-0.3,0.5-0.4,0.6-0.4l0.4,0
			l0.2,4l-0.6,0l-0.1-3.3l-0.1,0.1c-0.2,0.2-0.3,0.7-0.3,1.2l-0.1,0.7c-0.1,0.9-0.4,2-0.4,2L21.5,37.6z"/>
		<path class="st1" d="M9.4,25v3.7H8.5V25H7.2v-0.7h3.5V25H9.4z M21.9,28.8l-0.3-0.9h-1.8l-0.3,0.9h-1l1.5-4.4h1.4l1.5,4.4H21.9
			L21.9,28.8z M20.7,25.2l-0.7,2.1h1.4L20.7,25.2z M15.5,28.8l-0.3-0.9h-1.8l-0.3,0.9h-1l1.5-4.4H15l1.5,4.4H15.5L15.5,28.8z
			 M14.3,25.2l-0.7,2.1H15L14.3,25.2z M27.7,28.8l-1.3-2.6l-0.3-0.6v3.2h-0.9v-4.4h1.1l1.4,2.7l0.2,0.5v-3.2h0.9v4.4L27.7,28.8z"/>
		<path class="st2" d="M22.7,20.8h-9v0.3h2v0.5c0,0-0.5,0-0.9,0.1c-0.4,0.1-0.7,0.3-0.6,0.6c0,0.3,0.5,0.7,1.4,0.7
			c0.9,0,1.3-0.2,1.3-0.2l-0.3-0.2c0,0-1.1,0.3-1.6,0.2c-0.5-0.1-0.7-0.6-0.1-0.7c0.5-0.1,1.4-0.1,1.4-0.1v-0.9h1.4v1.7l0.5,0.3v-2
			h3.3v0.5h-1.9c0,0-0.1,0-0.2,0.1c-0.1,0.1,0,0.2,0.2,0.4l0.4,0.3c0,0,0.2,0.1,0.2-0.1v-0.4h1.4v1l0.5,0.2v-2h0.8L22.7,20.8
			L22.7,20.8z"/>
	</g>
</g>
</svg>
