<?xml version="1.0" encoding="utf-8"?>
<!-- Generator: Adobe Illustrator 26.1.0, SVG Export Plug-In . SVG Version: 6.00 Build 0)  -->
<svg version="1.1" id="Layer_1" xmlns="http://www.w3.org/2000/svg" xmlns:xlink="http://www.w3.org/1999/xlink" x="0px" y="0px"
	 viewBox="0 0 235 35" style="enable-background:new 0 0 235 35;" xml:space="preserve">
<style type="text/css">
	.st0{fill:none;}
	.st1{fill:#2566AF;}
	.st2{fill:#E6A540;}
	.st3{fill:#E21836;}
	.st4{fill:#00447C;}
	.st5{fill:#007B84;}
	.st6{fill:#FEFEFE;}
	.st7{fill-rule:evenodd;clip-rule:evenodd;fill:#227FBB;}
	.st8{fill-rule:evenodd;clip-rule:evenodd;fill:#FFFFFF;}
	.st9{fill-rule:evenodd;clip-rule:evenodd;fill:#3C69BB;}
	.st10{fill-rule:evenodd;clip-rule:evenodd;fill:#E9B040;}
	.st11{fill-rule:evenodd;clip-rule:evenodd;fill:#CC2131;}
	.st12{fill-rule:evenodd;clip-rule:evenodd;fill:#1B3771;}
</style>
<path class="st0" d="M-634.8-382.5h800v800h-800V-382.5z"/>
<g>
	<path class="st1" d="M32,28.1h-5.5L30,6.9h5.5L32,28.1z M21.9,6.9l-5.3,14.6L16,18.3l0,0l-1.9-9.5c0,0-0.2-1.9-2.6-1.9H2.8L2.7,7.3
		c0,0,2.7,0.6,5.8,2.4l4.8,18.4H19l8.8-21.2L21.9,6.9L21.9,6.9z M65.3,28.1h5.1L66,6.9h-4.4c-2.1,0-2.6,1.6-2.6,1.6l-8.2,19.6h5.8
		l1.2-3.2h7L65.3,28.1L65.3,28.1z M59.2,20.6l2.9-7.9l1.6,7.9H59.2z M51.2,12L52,7.4c0,0-2.4-0.9-5-0.9c-2.7,0-9.3,1.2-9.3,7
		c0,5.5,7.6,5.6,7.6,8.4s-6.9,2.4-9.1,0.5l-0.8,4.8c0,0,2.5,1.2,6.2,1.2c3.8,0,9.5-2,9.5-7.3c0-5.5-7.7-6-7.7-8.4
		C43.4,10.4,48.8,10.7,51.2,12L51.2,12z"/>
</g>
<path class="st2" d="M16,18.3l-1.9-9.5c0,0-0.2-1.9-2.6-1.9H2.8L2.7,7.3c0,0,4.2,0.9,8.2,4.1C14.7,14.5,16,18.3,16,18.3z"/>
<g>
	<path class="st3" d="M195.8,4.2h11.3c1.6,0,2.6,1.3,2.2,2.9L204,29.6c-0.4,1.6-1.9,2.9-3.5,2.9h-11.3c-1.6,0-2.6-1.3-2.2-2.9
		l5.3-22.6C192.7,5.5,194.2,4.2,195.8,4.2"/>
	<path class="st4" d="M206.2,4.2h13c1.6,0,0.9,1.3,0.5,2.9l-5.3,22.6c-0.4,1.6-0.3,2.9-1.8,2.9h-13c-1.6,0-2.6-1.3-2.2-2.9l5.3-22.6
		C203,5.5,204.6,4.2,206.2,4.2"/>
	<path class="st5" d="M218.6,4.2h11.3c1.6,0,2.6,1.3,2.2,2.9l-5.3,22.6c-0.4,1.6-2,2.9-3.5,2.9H212c-1.6,0-2.6-1.3-2.2-2.9l5.3-22.6
		C215.5,5.5,217.1,4.2,218.6,4.2"/>
	<path class="st6" d="M198.8,11.4c-1.2,0-1.5,0-1.6,0c0,0.2-0.8,3.8-0.8,3.8c-0.2,0.7-0.3,1.3-0.7,1.6c-0.2,0.2-0.5,0.3-0.8,0.3
		c-0.5,0-0.8-0.3-0.9-0.7l0-0.2c0,0,0.2-1,0.2-1c0,0,0.8-3.3,1-3.7c0,0,0,0,0,0c-1.6,0-1.9,0-1.9,0c0,0-0.1,0.2-0.1,0.2l-0.8,3.7
		l-0.1,0.3l-0.1,1c0,0.3,0.1,0.6,0.2,0.8c0.4,0.7,1.5,0.8,2.1,0.8c0.8,0,1.5-0.2,2-0.5c0.9-0.5,1.1-1.3,1.3-2l0.1-0.4
		C197.8,15.3,198.6,11.9,198.8,11.4C198.7,11.5,198.8,11.4,198.8,11.4z M201.6,14.2c-0.2,0-0.6,0-0.9,0.2c-0.1,0.1-0.2,0.1-0.4,0.2
		l0.1-0.4l-0.1-0.1c-0.7,0.1-0.9,0.2-1.5,0.3l-0.1,0c-0.1,0.6-0.1,1.1-0.4,2.4c-0.1,0.5-0.2,0.9-0.3,1.4l0,0.1c0.7,0,0.9,0,1.5,0
		l0-0.1c0.1-0.4,0.1-0.5,0.2-1.2c0.1-0.4,0.2-1.2,0.3-1.5c0.1-0.1,0.3-0.1,0.4-0.1c0.3,0,0.3,0.3,0.3,0.4c0,0.2-0.1,0.8-0.3,1.4
		l-0.1,0.3c-0.1,0.3-0.1,0.5-0.2,0.8l0,0.1c0.7,0,0.9,0,1.4,0l0.1-0.1c0.1-0.6,0.1-0.8,0.3-1.6l0.1-0.4c0.2-0.8,0.3-1.2,0.1-1.5
		C202.3,14.3,202,14.2,201.6,14.2z M204.9,15c-0.4,0.1-0.6,0.1-0.8,0.1c-0.2,0-0.4,0.1-0.8,0.1l0,0l0,0c0,0.3-0.1,0.5-0.1,0.7
		c0,0.3-0.1,0.6-0.2,1c-0.1,0.3-0.1,0.4-0.2,0.6c0,0.1-0.1,0.2-0.2,0.6l0,0l0,0c0.3,0,0.5,0,0.7,0c0.2,0,0.4,0,0.8,0l0,0l0,0
		c0-0.3,0.1-0.4,0.1-0.5c0-0.2,0.1-0.4,0.2-0.9c0.1-0.3,0.1-0.5,0.2-0.8C204.8,15.6,204.8,15.3,204.9,15L204.9,15L204.9,15z
		 M204.9,13.9c-0.3-0.2-0.9-0.1-1.3,0.1c-0.4,0.3-0.4,0.6-0.1,0.8c0.3,0.2,0.9,0.1,1.3-0.1C205.1,14.5,205.2,14.1,204.9,13.9z
		 M206.8,18.3c0.6,0,1.3-0.2,1.8-0.7c0.4-0.4,0.6-1.1,0.6-1.3c0.2-0.9,0-1.3-0.2-1.5c-0.3-0.4-0.8-0.5-1.4-0.5c-0.3,0-1.1,0-1.7,0.6
		c-0.4,0.4-0.6,1-0.8,1.5c-0.1,0.5-0.3,1.5,0.6,1.9C206.2,18.3,206.6,18.3,206.8,18.3z M206.8,16.3c0.1-0.7,0.3-1.2,0.8-1.2
		c0.4,0,0.4,0.4,0.2,1.1c0,0.1-0.2,0.7-0.3,0.9c-0.1,0.2-0.3,0.3-0.4,0.3c0,0-0.3,0-0.3-0.4C206.7,16.8,206.7,16.6,206.8,16.3z
		 M210.9,18.2L210.9,18.2c0.1-0.4,0.1-0.5,0.3-1.3c0.1-0.4,0.2-1.2,0.3-1.5c0.1-0.1,0.3-0.1,0.4-0.1c0.3,0,0.3,0.3,0.3,0.4
		c0,0.2-0.1,0.8-0.3,1.4l-0.1,0.3c-0.1,0.3-0.1,0.5-0.2,0.8l0,0.1c0.7,0,0.9,0,1.4,0l0.1-0.1c0.1-0.6,0.1-0.8,0.3-1.6l0.1-0.4
		c0.2-0.8,0.3-1.2,0.1-1.5c-0.1-0.4-0.5-0.4-0.8-0.4c-0.2,0-0.6,0-0.9,0.2c-0.1,0.1-0.2,0.1-0.4,0.2l0.1-0.4l-0.1-0.1
		c-0.7,0.1-0.9,0.2-1.5,0.3l-0.1,0c-0.1,0.6-0.1,1.1-0.4,2.4c-0.1,0.5-0.2,0.9-0.3,1.4l0,0.1C210.1,18.2,210.3,18.2,210.9,18.2z
		 M215.8,18.2c0-0.2,0.3-1.4,0.3-1.4c0,0,0.2-0.9,0.2-0.9c0,0,0.1-0.1,0.1-0.1h0.1c0.9,0,2,0,2.8-0.6c0.6-0.4,0.9-1,1.1-1.8
		c0-0.2,0.1-0.4,0.1-0.6c0-0.3-0.1-0.6-0.2-0.8c-0.4-0.6-1.2-0.6-2.2-0.6c0,0-0.5,0-0.5,0c-1.2,0-1.7,0-1.9,0c0,0.1,0,0.2,0,0.2
		s-0.4,2-0.4,2c0,0-1.1,4.3-1.1,4.5C215.1,18.2,215.6,18.2,215.8,18.2z M216.6,14.6c0,0,0.5-2,0.5-2l0-0.1l0-0.1l0.2,0
		c0,0,1,0.1,1,0.1c0.4,0.1,0.5,0.5,0.4,1c-0.1,0.5-0.4,0.8-0.8,1c-0.3,0.2-0.7,0.2-1.1,0.2h-0.3L216.6,14.6z M219.5,16.4
		c-0.1,0.5-0.3,1.5,0.6,1.8c0.3,0.1,0.5,0.2,0.8,0.1c0.3,0,0.5-0.1,0.8-0.3c0,0.1,0,0.2-0.1,0.2l0,0.1c0.6,0,0.8,0,1.5,0l0.1,0
		c0.1-0.6,0.2-1.2,0.5-2.3c0.1-0.5,0.3-1.1,0.4-1.6l0-0.1c-0.7,0.1-0.9,0.2-1.6,0.3l-0.1,0c0,0.1,0,0.1,0,0.2
		c-0.1-0.2-0.3-0.3-0.5-0.4c-0.3-0.1-1,0-1.6,0.6C219.8,15.3,219.6,15.8,219.5,16.4z M221,16.4c0.2-0.6,0.3-1.2,0.8-1.2
		c0.3,0,0.4,0.3,0.4,0.7c0,0.1-0.1,0.2-0.1,0.4c0,0.2-0.1,0.4-0.1,0.6c0,0.1-0.1,0.3-0.2,0.3c-0.1,0.2-0.4,0.3-0.6,0.3
		c0,0-0.3,0-0.3-0.4C220.9,16.8,220.9,16.6,221,16.4z M228.7,14.3L228.7,14.3c-0.8,0.1-0.9,0.1-1.5,0.2l0,0c0,0,0,0,0,0l0,0
		c-0.5,1.1-0.5,0.9-0.9,1.7c0,0,0-0.1,0-0.1l-0.1-1.9l-0.1-0.1c-0.7,0.1-0.8,0.2-1.4,0.3l-0.1,0c0,0,0,0,0,0.1l0,0
		c0.1,0.4,0.1,0.3,0.1,1c0,0.3,0.1,0.7,0.1,1c0.1,0.6,0.1,0.8,0.2,1.7c-0.5,0.8-0.6,1-1,1.7l0,0l-0.3,0.5c0,0.1-0.1,0.1-0.1,0.1
		c0,0-0.1,0-0.2,0h-0.2l-0.3,0.9l0.9,0c0.5,0,0.8-0.2,1-0.6l0.6-0.9h0l0.1-0.1C225.9,19.1,228.7,14.3,228.7,14.3z M219.5,25.4h-0.4
		l1.4-4.6h0.5l0.1-0.5l0,0.5c0,0.3,0.2,0.6,0.9,0.6h0.8l0.3-0.9h-0.3c-0.2,0-0.2,0-0.2-0.1l0-0.5h-1.4v0c-0.5,0-1.8,0-2.1,0.1
		c-0.3,0.1-0.7,0.3-0.7,0.3l0.1-0.5h-1.3l-0.3,0.9l-1.4,4.6h-0.3l-0.3,0.9h2.7l-0.1,0.3h1.3l0.1-0.3h0.4L219.5,25.4z M218.4,21.8
		c-0.2,0.1-0.6,0.2-0.6,0.2l0.4-1.2h1.1l-0.3,0.8C218.9,21.7,218.6,21.7,218.4,21.8z M218.4,23.5c0,0-0.3,0-0.6,0.1
		c-0.2,0.1-0.6,0.3-0.6,0.3l0.4-1.2h1.1L218.4,23.5z M217.8,25.4h-1.1l0.3-1h1.1L217.8,25.4z M220.4,22.6h1.5l-0.2,0.7h-1.6
		l-0.2,0.8h1.4l-1,1.5c-0.1,0.1-0.1,0.1-0.2,0.2c-0.1,0-0.2,0.1-0.3,0.1h-0.4l-0.3,0.9h1c0.5,0,0.8-0.2,1-0.5l0.7-1l0.2,1
		c0,0.2,0.2,0.3,0.3,0.3c0.1,0,0.2,0.1,0.3,0.1c0.2,0,0.3,0,0.3,0h0.5l0.3-1h-0.2c-0.1,0-0.3,0-0.3-0.1c0,0,0-0.1,0-0.2l-0.2-1h-0.6
		l0.3-0.3h1.6l0.2-0.8H223l0.2-0.7h1.4l0.3-0.9h-4.3L220.4,22.6z M207.4,25.6l0.4-1.2h1.5l0.3-0.9H208l0.2-0.7h1.4L210,22h-3.6
		l-0.3,0.9h0.8l-0.2,0.7h-0.8l-0.3,0.9h0.8L206,26c-0.1,0.2,0,0.3,0.1,0.4c0.1,0.1,0.1,0.2,0.3,0.2c0.1,0,0.2,0.1,0.4,0.1h1.7l0.3-1
		l-0.7,0.1C207.8,25.8,207.4,25.8,207.4,25.6z M207.6,19.9l-0.4,0.7c-0.1,0.1-0.2,0.2-0.2,0.3c-0.1,0-0.2,0.1-0.3,0.1h-0.2l-0.3,0.9
		h0.6c0.3,0,0.5-0.1,0.7-0.2c0.1-0.1,0.2,0,0.2-0.1l0.2-0.2h2l0.3-0.9h-1.5l0.3-0.5H207.6z M210.6,25.6c0,0,0-0.1,0-0.3l0.6-1.8h2
		c0.3,0,0.5,0,0.6,0c0.1,0,0.3-0.1,0.5-0.2c0.2-0.1,0.3-0.2,0.3-0.3c0.1-0.1,0.2-0.4,0.3-0.8l0.7-2.3l-2,0c0,0-0.6,0.1-0.9,0.2
		c-0.3,0.1-0.7,0.4-0.7,0.4l0.2-0.6h-1.3l-1.8,5.8c-0.1,0.2-0.1,0.4-0.1,0.5c0,0.1,0.1,0.2,0.2,0.3c0.1,0.1,0.3,0.1,0.4,0.1
		c0.2,0,0.4,0,0.7,0h1l0.3-1l-0.9,0.1C210.7,25.7,210.6,25.7,210.6,25.6z M211.5,22.3h2.1l-0.1,0.4c0,0-0.1,0-0.3,0h-1.8L211.5,22.3
		z M211.9,20.9h2.1l-0.1,0.5c0,0-1,0-1.1,0c-0.7,0.1-1.1,0.5-1.1,0.5L211.9,20.9z M213.5,24.1c0,0.1,0,0.1-0.1,0.1c0,0-0.1,0-0.2,0
		h-0.3l0-0.5h-1.2l0,2.4c0,0.2,0,0.3,0.1,0.4c0.1,0.1,0.5,0.1,1.1,0.1h0.8l0.3-0.9l-0.7,0l-0.2,0c0,0-0.1,0-0.1-0.1
		c0,0-0.1,0-0.1-0.2l0-0.6l0.7,0c0.4,0,0.5-0.1,0.7-0.2c0.1-0.1,0.2-0.2,0.2-0.4l0.1-0.6h-1L213.5,24.1z"/>
</g>
<g>
	<path class="st7" d="M122.3,1.8H79.6c-1.8,0-3.3,1.5-3.3,3.3v24.6c0,1.8,1.5,3.3,3.3,3.3h42.7c1.8,0,3.3-1.5,3.3-3.3V5.1
		C125.6,3.2,124.1,1.8,122.3,1.8z"/>
	<path class="st8" d="M80.7,13l-0.9-2.3L78.9,13C78.9,13,80.7,13,80.7,13z M101.7,12.1c-0.2,0.1-0.4,0.1-0.7,0.1h-1.7v-1.3h1.7
		c0.2,0,0.5,0,0.7,0.1c0.2,0.1,0.3,0.3,0.3,0.5C101.9,11.8,101.8,12,101.7,12.1C101.7,12.1,101.8,12,101.7,12.1z M113.7,13l-1-2.3
		l-1,2.3C111.8,13,113.7,13,113.7,13z M91.3,15.5h-1.4l0-4.5l-2,4.5h-1.2l-2-4.5v4.5h-2.8l-0.5-1.3h-2.9l-0.5,1.3h-1.5l2.5-5.8h2.1
		l2.4,5.5V9.7h2.3l1.8,3.9L89,9.7h2.3L91.3,15.5L91.3,15.5z M96.9,15.5h-4.6V9.7h4.6v1.2h-3.2v1h3.2v1.2h-3.2v1.2h3.2
		C96.9,14.3,96.9,15.5,96.9,15.5z M103.5,11.3c0,0.9-0.6,1.4-1,1.5c0.3,0.1,0.6,0.3,0.7,0.5c0.2,0.3,0.2,0.5,0.2,1.1v1.1H102l0-0.7
		c0-0.3,0-0.9-0.2-1.1c-0.2-0.2-0.5-0.2-1-0.2h-1.5v2.1h-1.4V9.7h3.2c0.7,0,1.2,0,1.7,0.3C103.2,10.2,103.5,10.6,103.5,11.3
		C103.5,11.3,103.5,10.6,103.5,11.3L103.5,11.3z M105.7,15.5h-1.4V9.7h1.4V15.5z M122.1,15.5h-2l-2.6-4.4v4.4h-2.8l-0.5-1.3h-2.9
		l-0.5,1.3h-1.6c-0.7,0-1.5-0.1-2-0.6c-0.5-0.5-0.7-1.2-0.7-2.2c0-0.9,0.2-1.6,0.7-2.3c0.4-0.5,1.2-0.7,2.1-0.7h1.3v1.2h-1.3
		c-0.5,0-0.8,0.1-1.1,0.3c-0.2,0.2-0.4,0.7-0.4,1.3c0,0.6,0.1,1.1,0.4,1.4c0.2,0.2,0.6,0.3,1,0.3h0.6l2-4.6h2.1l2.3,5.5V9.7h2.1
		l2.4,4v-4h1.4L122.1,15.5L122.1,15.5z M76.3,16.6h2.4l0.5-1.3h1.2l0.5,1.3h4.7v-1l0.4,1h2.4l0.4-1v1h11.6l0-2.1h0.2
		c0.2,0,0.2,0,0.2,0.3v1.8h6v-0.5c0.5,0.3,1.2,0.5,2.2,0.5h2.5l0.5-1.3h1.2l0.5,1.3h4.9v-1.2l0.7,1.2h3.9V8.5h-3.9v1l-0.5-1h-4v1
		l-0.5-1h-5.3c-0.9,0-1.7,0.1-2.3,0.5V8.5h-3.7V9c-0.4-0.4-1-0.5-1.6-0.5H88.1l-0.9,2.1l-0.9-2.1h-4.2v1l-0.5-1H78l-1.7,3.8V16.6
		L76.3,16.6z M125.6,20.9h-2.5c-0.3,0-0.4,0-0.6,0.1c-0.1,0.1-0.2,0.2-0.2,0.4c0,0.2,0.1,0.4,0.3,0.4c0.1,0.1,0.3,0.1,0.5,0.1l0.8,0
		c0.8,0,1.3,0.1,1.6,0.5c0.1,0,0.1,0.1,0.1,0.1C125.6,22.6,125.6,20.9,125.6,20.9z M125.6,24.7c-0.3,0.5-1,0.7-1.9,0.7h-2.7v-1.2
		h2.7c0.3,0,0.4,0,0.6-0.1c0.1-0.1,0.2-0.2,0.2-0.4c0-0.2-0.1-0.3-0.2-0.4c-0.1-0.1-0.2-0.1-0.5-0.1c-1.3,0-2.9,0-2.9-1.8
		c0-0.8,0.5-1.7,2-1.7h2.8v-1.2h-2.6c-0.8,0-1.3,0.2-1.7,0.5v-0.5h-3.8c-0.6,0-1.3,0.2-1.7,0.5v-0.5h-6.8V19
		c-0.5-0.4-1.4-0.5-1.9-0.5h-4.5V19c-0.4-0.4-1.4-0.5-2-0.5h-5l-1.1,1.2l-1.1-1.2h-7.5v8.1h7.3l1.2-1.3l1.1,1.3l4.5,0v-1.9h0.4
		c0.6,0,1.3,0,1.9-0.3v2.2h3.7v-2.1h0.2c0.2,0,0.3,0,0.3,0.2v1.9h11.3c0.7,0,1.5-0.2,1.9-0.5v0.5h3.6c0.7,0,1.5-0.1,2-0.4
		C125.6,26.2,125.6,24.7,125.6,24.7z M120.1,22.4c0.3,0.3,0.4,0.6,0.4,1.2c0,1.2-0.8,1.8-2.2,1.8h-2.7v-1.2h2.7c0.3,0,0.4,0,0.6-0.1
		c0.1-0.1,0.2-0.2,0.2-0.4c0-0.2-0.1-0.3-0.2-0.4c-0.1-0.1-0.3-0.1-0.5-0.1c-1.3,0-2.9,0-2.9-1.8c0-0.8,0.5-1.7,2-1.7h2.8v1.2h-2.5
		c-0.3,0-0.4,0-0.6,0.1c-0.2,0.1-0.2,0.2-0.2,0.4c0,0.2,0.1,0.4,0.3,0.4c0.1,0.1,0.3,0.1,0.5,0.1l0.7,0
		C119.3,22,119.8,22.1,120.1,22.4C120.1,22.4,119.8,22.1,120.1,22.4L120.1,22.4z M107.6,22.1c-0.2,0.1-0.4,0.1-0.7,0.1h-1.7v-1.3
		h1.7c0.2,0,0.5,0,0.7,0.1c0.2,0.1,0.3,0.3,0.3,0.5C107.9,21.8,107.8,22,107.6,22.1C107.6,22.1,107.8,22,107.6,22.1L107.6,22.1z
		 M108.4,22.8c0.3,0.1,0.6,0.3,0.7,0.5c0.2,0.3,0.2,0.5,0.2,1.1v1.2h-1.4v-0.7c0-0.3,0-0.9-0.2-1.1c-0.2-0.2-0.5-0.3-1-0.3h-1.5v2.1
		h-1.4v-5.8h3.2c0.7,0,1.2,0,1.7,0.3c0.4,0.3,0.7,0.6,0.7,1.3C109.4,22.2,108.8,22.6,108.4,22.8C108.4,22.8,108.8,22.6,108.4,22.8z
		 M110.2,19.7h4.6v1.2h-3.2v1.1h3.2v1.2h-3.2v1.2l3.2,0v1.2h-4.6L110.2,19.7L110.2,19.7z M100.8,22.4H99v-1.5h1.8
		c0.5,0,0.8,0.2,0.8,0.7C101.7,22.1,101.3,22.4,100.8,22.4L100.8,22.4z M97.6,25l-2.1-2.4l2.1-2.3V25z M92.1,24.3h-3.4v-1.2h3v-1.2
		h-3v-1.1h3.5l1.5,1.7L92.1,24.3L92.1,24.3z M103.2,21.6c0,1.6-1.2,1.9-2.4,1.9H99v1.9h-2.7l-1.7-1.9l-1.8,1.9h-5.5v-5.8h5.6
		l1.7,1.9l1.8-1.9h4.4C101.9,19.7,103.2,20,103.2,21.6C103.2,21.6,103.2,20,103.2,21.6z"/>
</g>
<path class="st9" d="M181,33h-47.6c-1.1,0-1.9-0.9-1.9-1.9V3.7c0-1.1,0.9-1.9,1.9-1.9H181c1.1,0,1.9,0.9,1.9,1.9v27.4
	C183,32.1,182.1,33,181,33z"/>
<g>
	<path class="st10" d="M157.2,26.3c2.1,1.9,4.9,3.1,8,3.1c6.6,0,12-5.4,12-12c0-6.7-5.4-12.1-12-12.1c-3.1,0-5.9,1.2-8,3.1
		c-2.4,2.2-4,5.4-4,8.9C153.3,20.9,154.8,24.1,157.2,26.3L157.2,26.3z"/>
	<path class="st10" d="M175.6,24.1c0-0.2,0.2-0.4,0.4-0.4c0.2,0,0.4,0.2,0.4,0.4c0,0.2-0.2,0.4-0.4,0.4
		C175.8,24.5,175.6,24.3,175.6,24.1z M176,24.4c0.2,0,0.3-0.1,0.3-0.3s-0.1-0.3-0.3-0.3c-0.1,0-0.3,0.1-0.3,0.3S175.9,24.4,176,24.4
		z M176,24.3L176,24.3l-0.1-0.4h0.1c0,0,0.1,0,0.1,0c0,0,0,0,0,0.1s0,0.1-0.1,0.1l0.1,0.2h-0.1l0-0.1H176V24.3v-0.2h0.1c0,0,0,0,0,0
		c0,0,0,0,0,0H176V24.3z"/>
	<path class="st11" d="M161.1,16.1c0-0.4-0.1-0.8-0.2-1.3h-7.3c0.1-0.4,0.2-0.8,0.3-1.3h6.6c-0.1-0.4-0.3-0.9-0.5-1.3h-5.6
		c0.2-0.4,0.4-0.9,0.7-1.3h4.2c-0.3-0.4-0.6-0.9-0.9-1.3H156c0.4-0.5,0.8-0.9,1.2-1.3c-2.1-1.9-4.9-3.1-8-3.1c-6.6,0-12,5.4-12,12.1
		c0,6.6,5.4,12,12,12c3.1,0,5.9-1.2,8-3.1c0.4-0.4,0.8-0.8,1.2-1.3H156c-0.3-0.4-0.6-0.8-0.9-1.3h4.2c0.3-0.4,0.5-0.8,0.7-1.3h-5.6
		c-0.2-0.4-0.4-0.8-0.5-1.3h6.6c0.1-0.4,0.2-0.8,0.4-1.3c0.1-0.4,0.2-0.8,0.2-1.3c0-0.4,0.1-0.8,0.1-1.3
		C161.2,17,161.1,16.5,161.1,16.1L161.1,16.1z"/>
	<path class="st8" d="M175.6,20.2c0-0.2,0.2-0.4,0.4-0.4c0.2,0,0.4,0.2,0.4,0.4c0,0.2-0.2,0.4-0.4,0.4
		C175.8,20.6,175.6,20.4,175.6,20.2z M176,20.5c0.2,0,0.3-0.1,0.3-0.3s-0.1-0.3-0.3-0.3c-0.1,0-0.3,0.1-0.3,0.3S175.9,20.5,176,20.5
		z M176,20.4L176,20.4l-0.1-0.3h0.2c0,0,0,0.1,0,0.1c0,0,0,0.1-0.1,0.1l0.1,0.1h-0.1l0-0.1H176V20.4v-0.2h0c0,0,0,0,0,0c0,0,0,0,0,0
		c0,0,0,0,0,0c0,0,0,0,0,0h0V20.4z"/>
	<path class="st12" d="M153.2,20.9c-0.4,0.1-0.7,0.2-1,0.2c-0.6,0-1-0.4-1-1.1c0-0.1,0-0.3,0-0.5l0.1-0.5l0.1-0.4l0.6-3.4h1.2
		L153,16h0.8l-0.2,1.2h-0.8l-0.3,2c0,0.1,0,0.2,0,0.2c0,0.3,0.1,0.4,0.4,0.4c0.1,0,0.3,0,0.4,0L153.2,20.9L153.2,20.9z M157.2,20.8
		c-0.5,0.1-0.9,0.2-1.3,0.2c-1.4,0-2.2-0.7-2.2-2.2c0-1.7,1-3,2.3-3c1.1,0,1.7,0.7,1.7,1.8c0,0.4,0,0.7-0.1,1.2h-2.6
		c0,0.1,0,0.1,0,0.2c0,0.6,0.4,0.9,1.1,0.9c0.5,0,0.9-0.1,1.3-0.3L157.2,20.8z M156.4,17.9v-0.2c0-0.4-0.2-0.6-0.6-0.6
		c-0.4,0-0.7,0.3-0.8,0.9L156.4,17.9L156.4,17.9L156.4,17.9z M143.2,20.9h-1.3l0.7-4.7l-1.7,4.7h-0.9l-0.1-4.7l-0.8,4.7H138l1-6.1
		h1.9l0,3.8l1.3-3.8h2.1L143.2,20.9L143.2,20.9z M146.4,18.7c-0.1,0-0.2,0-0.2,0c-0.7,0-1.1,0.3-1.1,0.7c0,0.3,0.2,0.5,0.5,0.5
		C146.1,20,146.3,19.4,146.4,18.7L146.4,18.7z M147.4,20.9h-1.1l0-0.5c-0.3,0.4-0.7,0.6-1.4,0.6c-0.6,0-1.2-0.6-1.2-1.4
		c0-0.2,0-0.4,0.1-0.6c0.2-0.8,1-1.2,2.2-1.3c0.1,0,0.4,0,0.6,0c0-0.2,0-0.2,0-0.3c0-0.3-0.3-0.4-0.9-0.4c-0.4,0-0.8,0.1-1.1,0.2
		l-0.2,0l-0.1,0l0.2-1.1c0.6-0.2,1-0.3,1.5-0.3c1.1,0,1.7,0.5,1.7,1.5c0,0.2,0,0.4-0.1,1l-0.3,1.8l0,0.3l0,0.2l0,0.2L147.4,20.9
		L147.4,20.9z M163.4,16c0.4,0,0.7,0.1,1.2,0.3l0.2-1.3c-0.1-0.1-0.2-0.1-0.3-0.1l-0.5-0.1c-0.2,0-0.4-0.1-0.6-0.1
		c-0.6,0-1,0-1.4,0.2c-0.2,0.1-0.5,0.3-0.8,0.7l-0.2,0l-1.3,0.9l0.1-0.5h-1.4l-0.8,5h1.3l0.5-2.7c0,0,0.2-0.4,0.3-0.5
		c0.2-0.3,0.5-0.3,0.7-0.3h0.1c0,0.3-0.1,0.6-0.1,1c0,1.6,0.9,2.6,2.3,2.6c0.4,0,0.7,0,1.1-0.2l0.2-1.4c-0.4,0.2-0.8,0.3-1.1,0.3
		c-0.8,0-1.2-0.6-1.2-1.5C161.8,17,162.4,16,163.4,16L163.4,16z M174.4,14.8l-0.3,1.7c-0.3-0.5-0.7-0.7-1.2-0.7
		c-0.7,0-1.3,0.4-1.7,1.1v0l-0.8-0.5l0.1-0.5h-1.4l-0.8,5h1.3l0.4-2.7c0,0,0.3-0.4,0.4-0.5c0.2-0.2,0.4-0.3,0.6-0.3
		c-0.1,0.4-0.2,0.9-0.2,1.5c0,1.2,0.6,2.1,1.6,2.1c0.5,0,0.8-0.2,1.2-0.6l-0.1,0.5h1.2l1-6.1L174.4,14.8L174.4,14.8z M172.8,19.8
		c-0.4,0-0.7-0.3-0.7-1c0-1,0.4-1.7,1-1.7c0.5,0,0.7,0.4,0.7,1C173.8,19.1,173.4,19.8,172.8,19.8L172.8,19.8z M166.8,18.7
		c-0.1,0-0.2,0-0.2,0c-0.7,0-1.1,0.3-1.1,0.7c0,0.3,0.2,0.5,0.5,0.5C166.6,20,166.8,19.4,166.8,18.7z M167.9,20.9h-1.1l0-0.5
		c-0.3,0.4-0.7,0.6-1.4,0.6c-0.6,0-1.2-0.5-1.2-1.4c0-1.2,0.9-1.9,2.3-1.9c0.1,0,0.4,0,0.6,0c0-0.2,0.1-0.2,0.1-0.3
		c0-0.3-0.3-0.4-0.9-0.4c-0.4,0-0.8,0.1-1.1,0.2l-0.2,0l-0.1,0l0.2-1.1c0.6-0.2,1-0.3,1.5-0.3c1.1,0,1.7,0.5,1.7,1.5
		c0,0.2,0,0.4-0.1,1l-0.3,1.8l0,0.3l0,0.2l0,0.2L167.9,20.9L167.9,20.9L167.9,20.9z M150.1,17c0.2,0,0.6,0,1,0.1l0.2-1.2
		c-0.4,0-0.9-0.1-1.2-0.1c-1.4,0-1.9,0.8-1.9,1.7c0,0.6,0.3,1,1,1.4c0.5,0.2,0.6,0.3,0.6,0.5c0,0.3-0.3,0.5-0.8,0.5
		c-0.4,0-0.8-0.1-1.2-0.2l-0.1,1.1l0,0l0.2,0c0.1,0,0.2,0,0.3,0.1c0.3,0,0.6,0,0.7,0c1.4,0,2-0.6,2-1.7c0-0.7-0.3-1.1-1-1.4
		c-0.6-0.2-0.6-0.3-0.6-0.5C149.5,17.2,149.7,17,150.1,17L150.1,17z"/>
	<path class="st8" d="M165.2,14.6l-0.2,1.3c-0.5-0.2-0.8-0.3-1.2-0.3c-1,0-1.7,1-1.7,2.3c0,0.9,0.5,1.5,1.2,1.5
		c0.3,0,0.7-0.1,1.1-0.3l-0.2,1.4c-0.5,0.1-0.8,0.2-1.1,0.2c-1.4,0-2.3-1-2.3-2.6c0-2.2,1.2-3.7,2.9-3.7c0.2,0,0.4,0,0.6,0.1
		l0.5,0.1C165,14.6,165,14.6,165.2,14.6L165.2,14.6z M161,15.5h-0.1c-0.4,0-0.7,0.2-1.1,0.8l0.1-0.8h-1.2l-0.8,5h1.3
		c0.5-3,0.6-3.6,1.2-3.6h0.1C160.6,16.4,160.8,16,161,15.5L161,15.5L161,15.5z M153.5,20.5c-0.4,0.1-0.6,0.2-0.9,0.2
		c-0.7,0-1-0.4-1-1.1c0-0.1,0-0.3,0-0.4l0.1-0.5l0.1-0.4l0.6-3.4h1.3l-0.1,0.7h0.7l-0.2,1.2h-0.7l-0.4,2.1c0,0.1,0,0.1,0,0.2
		c0,0.2,0.1,0.4,0.4,0.4c0.1,0,0.3,0,0.4,0L153.5,20.5L153.5,20.5z M148.5,17.2c0,0.6,0.3,1.1,1,1.4c0.5,0.2,0.6,0.3,0.6,0.5
		c0,0.3-0.2,0.5-0.7,0.5c-0.4,0-0.7-0.1-1.2-0.2l-0.2,1.1l0.1,0l0.2,0c0.1,0,0.2,0,0.4,0c0.3,0,0.5,0,0.7,0c1.4,0,2-0.5,2-1.7
		c0-0.7-0.3-1.1-0.9-1.4c-0.6-0.2-0.6-0.3-0.6-0.5c0-0.3,0.2-0.4,0.6-0.4c0.2,0,0.6,0,0.9,0.1l0.2-1.1c-0.3-0.1-0.8-0.1-1.1-0.1
		C149,15.5,148.5,16.2,148.5,17.2L148.5,17.2z M175.1,20.5h-1.2l0.1-0.5c-0.4,0.4-0.7,0.5-1.2,0.5c-1,0-1.6-0.8-1.6-2
		c0-1.7,1-3.1,2.1-3.1c0.5,0,0.9,0.2,1.2,0.7l0.3-1.7h1.3L175.1,20.5L175.1,20.5z M173.2,19.4c0.6,0,1-0.7,1-1.7c0-0.6-0.2-1-0.7-1
		c-0.6,0-1,0.7-1,1.7C172.5,19.1,172.7,19.4,173.2,19.4L173.2,19.4z M157.5,20.4c-0.5,0.1-0.9,0.2-1.3,0.2c-1.4,0-2.2-0.8-2.2-2.2
		c0-1.7,1-3,2.3-3c1.1,0,1.8,0.7,1.8,1.8c0,0.4,0,0.7-0.2,1.2h-2.6c0,0.1,0,0.1,0,0.1c0,0.6,0.4,0.9,1.1,0.9c0.5,0,0.9-0.1,1.3-0.3
		L157.5,20.4L157.5,20.4z M156.7,17.5v-0.2c0-0.4-0.2-0.6-0.6-0.6c-0.4,0-0.7,0.3-0.8,0.9H156.7L156.7,17.5z M143.6,20.5h-1.3
		l0.7-4.7l-1.7,4.7h-0.9l-0.1-4.7l-0.8,4.7h-1.2l1-6.1h1.9l0.1,3.8l1.2-3.8h2L143.6,20.5L143.6,20.5z M146.8,18.3
		c-0.1,0-0.2,0-0.3,0c-0.7,0-1.1,0.3-1.1,0.8c0,0.3,0.2,0.5,0.5,0.5C146.4,19.6,146.7,19.1,146.8,18.3L146.8,18.3z M147.7,20.5h-1.1
		l0-0.5c-0.3,0.4-0.8,0.6-1.4,0.6c-0.7,0-1.2-0.5-1.2-1.3c0-1.2,0.8-1.9,2.3-1.9c0.1,0,0.3,0,0.5,0c0-0.2,0-0.2,0-0.3
		c0-0.3-0.2-0.5-0.8-0.5c-0.4,0-0.8,0-1.1,0.1l-0.2,0.1l-0.1,0l0.2-1.1c0.6-0.2,1.1-0.2,1.6-0.2c1.1,0,1.7,0.5,1.7,1.4
		c0,0.2,0,0.4-0.1,1l-0.3,1.8l0,0.3l0,0.2l0,0.2L147.7,20.5L147.7,20.5z M167.2,18.3c-0.1,0-0.2,0-0.3,0c-0.7,0-1.1,0.3-1.1,0.8
		c0,0.3,0.2,0.5,0.5,0.5C166.8,19.6,167.2,19.1,167.2,18.3L167.2,18.3z M168.2,20.5h-1.1l0-0.5c-0.3,0.4-0.8,0.6-1.4,0.6
		c-0.7,0-1.2-0.5-1.2-1.3c0-1.2,0.8-1.9,2.3-1.9c0.1,0,0.3,0,0.5,0c0-0.2,0.1-0.2,0.1-0.3c0-0.3-0.2-0.5-0.8-0.5
		c-0.4,0-0.8,0-1.1,0.1l-0.2,0.1l-0.1,0l0.2-1.1c0.6-0.2,1.1-0.2,1.6-0.2c1.1,0,1.7,0.5,1.7,1.4c0,0.2,0,0.4-0.1,1l-0.3,1.8l0,0.3
		l0,0.2l0,0.2L168.2,20.5L168.2,20.5L168.2,20.5z M171.7,15.5h-0.1c-0.4,0-0.7,0.2-1.1,0.8l0.1-0.8h-1.2l-0.8,5h1.3
		c0.5-3,0.6-3.6,1.2-3.6h0.1C171.3,16.4,171.5,16,171.7,15.5L171.7,15.5L171.7,15.5z"/>
</g>
</svg>
