<?xml version="1.0" encoding="utf-8"?>
<!-- Generator: Adobe Illustrator 28.1.0, SVG Export Plug-In . SVG Version: 6.00 Build 0)  -->
<svg version="1.1" id="Layer_1" xmlns="http://www.w3.org/2000/svg" xmlns:xlink="http://www.w3.org/1999/xlink" x="0px" y="0px"
	 viewBox="0 0 24 24" style="enable-background:new 0 0 24 24;" xml:space="preserve">
<style type="text/css">
	.st0{fill:none;stroke:#424242;stroke-linecap:round;stroke-linejoin:round;stroke-miterlimit:10;}
</style>
<g>
	<path class="st0" d="M15.9,5l-3.2,1.8c-1.5-2-4.2-2.4-6.2-0.9S4.2,10.1,5.6,12l-3.4,1.9"/>
	<line class="st0" x1="6.9" y1="5.3" x2="4.9" y2="2"/>
	<line class="st0" x1="9.2" y1="5" x2="9.1" y2="1.1"/>
	<line class="st0" x1="11.4" y1="5.6" x2="13.2" y2="2.3"/>
	<line class="st0" x1="1.1" y1="9.4" x2="4.5" y2="9.4"/>
	<line class="st0" x1="1.8" y1="5.2" x2="5.3" y2="7.1"/>
	<path class="st0" d="M20.6,19.9c0.7-0.7,1.1-1.6,1.1-2.7c0-1.9-1.4-3.4-3.1-3.7c-0.3-0.1-0.6-0.3-0.7-0.6c-0.7-2.2-2.8-3.7-5.3-3.4
		c-1.9,0.3-3.5,1.7-3.9,3.5c-0.2,0.8-0.2,1.5-0.1,2.2c0.1,0.4-0.1,0.9-0.5,1c-0.9,0.4-1.6,1.3-1.6,2.3C6.5,19.9,7.6,21,9,21"/>
	<line class="st0" x1="17.5" y1="18.2" x2="17.5" y2="21.9"/>
	<line class="st0" x1="14.8" y1="18.2" x2="14.8" y2="21.9"/>
	<line class="st0" x1="12" y1="18.2" x2="12" y2="21.9"/>
</g>
</svg>
