<?xml version="1.0" encoding="utf-8"?>
<!-- Generator: Adobe Illustrator 26.1.0, SVG Export Plug-In . SVG Version: 6.00 Build 0)  -->
<svg version="1.1"
	 id="Layer_1" image-rendering="optimizeQuality" shape-rendering="geometricPrecision" text-rendering="geometricPrecision"
	 xmlns="http://www.w3.org/2000/svg" xmlns:xlink="http://www.w3.org/1999/xlink" x="0px" y="0px" viewBox="0 0 40 40"
	 style="enable-background:new 0 0 40 40;" xml:space="preserve">
<style type="text/css">
	.st0{fill:#34E0A1;}
</style>
<g>
	<circle class="st0" cx="20.1" cy="20" r="19"/>
	<path d="M31.9,16.4l2.4-2.4h-5.1c-2.5-1.6-5.4-2.7-9-2.7s-6.3,0.9-9,2.7H6.3l2.4,2.4c-1.4,1.4-2.4,3.3-2.4,5.2c0,4,3.3,7.1,7.1,7.1
		c1.8,0,3.4-0.7,4.7-1.8l2.2,2.5l2.2-2.4c1.3,1.3,2.9,1.8,4.7,1.8c4,0,7.1-3.3,7.1-7.1C33.9,19.5,33.1,17.6,31.9,16.4L31.9,16.4z
		 M13.2,26.2c-2.7,0-4.7-2.2-4.7-4.7s2.2-4.7,4.7-4.7c2.7,0,4.7,2.2,4.7,4.7S15.8,26.2,13.2,26.2z M20.1,21.3c0-3.3-2.2-5.8-5.2-6.9
		c1.6-0.7,3.4-0.9,5.2-0.9s3.6,0.4,5.2,0.9C22.5,15.7,20.1,18.4,20.1,21.3L20.1,21.3z M27.2,26.2c-2.7,0-4.7-2.2-4.7-4.7
		s2.2-4.7,4.7-4.7c2.7,0,4.7,2.2,4.7,4.7S29.5,26.2,27.2,26.2z M27.2,19.1c-1.4,0-2.5,1.3-2.5,2.5c0,1.4,1.3,2.5,2.5,2.5
		c1.4,0,2.5-1.3,2.5-2.5C29.7,20.2,28.4,19.1,27.2,19.1L27.2,19.1z M15.6,21.4c0,1.4-1.3,2.5-2.5,2.5s-2.4-1.3-2.4-2.5
		c0-1.4,1.3-2.5,2.5-2.5S15.6,20.2,15.6,21.4z"/>
</g>
</svg>
