<?xml version="1.0" encoding="utf-8"?>
<!-- Generator: Adobe Illustrator 26.1.0, SVG Export Plug-In . SVG Version: 6.00 Build 0)  -->
<svg version="1.1" id="Layer_1" xmlns="http://www.w3.org/2000/svg" xmlns:xlink="http://www.w3.org/1999/xlink" x="0px" y="0px"
	 viewBox="0 0 40 40" style="enable-background:new 0 0 40 40;" xml:space="preserve">
<style type="text/css">
	.st0{fill:#FFFFFF;}
	.st1{fill:#167EE6;}
	.st2{fill:#12B347;}
	.st3{fill:#0F993E;}
	.st4{fill:#FFD500;}
	.st5{fill:#FF4B26;}
	.st6{fill:#D93F21;}
</style>
<circle class="st0" cx="20.2" cy="20.2" r="19.3"/>
<path class="st1" d="M37.7,17.1H22.2c-0.7,0-1.2,0.5-1.2,1.2v5c0,0.7,0.5,1.2,1.2,1.2h8.7c-1.1,2.5-2.7,4.6-5,5.9l3.7,6.6
	c5.9-3.4,9.4-9.6,9.4-16.2c0-1.1,0-1.8-0.2-2.5C38.9,17.4,38.4,17.1,37.7,17.1L37.7,17.1z"/>
<path class="st2" d="M20.2,31.7c-4.3,0-8-2.5-10-5.9l-6.6,3.7c3.2,5.7,9.4,9.6,16.4,9.6c3.4,0,6.6-0.9,9.4-2.5l0,0L25.7,30
	C24.3,31.1,22.4,31.7,20.2,31.7L20.2,31.7z"/>
<path class="st3" d="M29.7,36.6L29.7,36.6L26,30c-1.8,1.1-3.6,1.6-5.9,1.6V39C23.6,39.1,26.8,38.2,29.7,36.6L29.7,36.6z"/>
<path class="st4" d="M8.7,20.3c0-2.1,0.5-4.1,1.6-5.9l-6.4-3.7c-1.8,2.7-2.5,5.9-2.5,9.4s0.9,6.6,2.5,9.4l6.6-3.6
	C9.4,24.4,8.7,22.4,8.7,20.3z"/>
<path class="st5" d="M20.2,8.7c2.7,0,5.3,1.1,7.3,2.5c0.5,0.4,1.2,0.4,1.8,0l3.6-3.4c0.5-0.5,0.5-1.2,0-2C29.5,3,25.2,1.2,20.4,1.2
	C13.3,1.2,7.2,5,4,10.8l6.4,3.7C12.2,11,16,8.7,20.2,8.7z"/>
<path class="st6" d="M27.7,11.4c0.5,0.4,1.2,0.4,1.8,0L32.9,8c0.5-0.5,0.5-1.2,0-2c-3.4-2.8-7.7-4.6-12.5-4.6v7.3
	C23.1,8.7,25.6,9.8,27.7,11.4L27.7,11.4z"/>
</svg>
