<?xml version="1.0" encoding="utf-8"?>
<!-- Generator: Adobe Illustrator 28.1.0, SVG Export Plug-In . SVG Version: 6.00 Build 0)  -->
<svg version="1.1" id="Layer_1" xmlns="http://www.w3.org/2000/svg" xmlns:xlink="http://www.w3.org/1999/xlink" x="0px" y="0px"
	 viewBox="0 0 24 24" style="enable-background:new 0 0 24 24;" xml:space="preserve">
<style type="text/css">
	.st0{fill:none;stroke:#424242;stroke-linecap:round;stroke-linejoin:round;stroke-miterlimit:10;}
</style>
<path class="st0" d="M9.4,12.6H8c-0.8,0-1.4,0.6-1.4,1.4v1.4c0,0.8,0.6,1.4,1.4,1.4h1.4c0.8,0,1.4-0.6,1.4-1.4V14
	C10.8,13.2,10.1,12.6,9.4,12.6z"/>
<path class="st0" d="M17.1,5.6H7.3c-1.9,0-3.5,1.6-3.5,3.5v8.4c0,1.9,1.6,3.5,3.5,3.5h9.8c1.9,0,3.5-1.6,3.5-3.5V9.1
	C20.6,7.1,19,5.6,17.1,5.6z"/>
<line class="st0" x1="3.8" y1="9.8" x2="20.3" y2="9.8"/>
<line class="st0" x1="8.6" y1="5.4" x2="8.6" y2="4.2"/>
<line class="st0" x1="15.5" y1="5.4" x2="15.5" y2="4.2"/>
</svg>
