<?xml version="1.0" encoding="utf-8"?>
<!-- Generator: Adobe Illustrator 26.1.0, SVG Export Plug-In . SVG Version: 6.00 Build 0)  -->
<svg version="1.1" id="Layer_1" xmlns="http://www.w3.org/2000/svg" xmlns:xlink="http://www.w3.org/1999/xlink" x="0px" y="0px"
	 viewBox="0 0 24 24" style="enable-background:new 0 0 24 24;" xml:space="preserve">
<style type="text/css">
	.st0{fill:#6EA8DC;}
</style>
<path class="st0" d="M12,23.7C5.5,23.7,0.3,18.5,0.3,12S5.5,0.3,12,0.3S23.7,5.5,23.7,12S18.5,23.7,12,23.7z M12,1.9
	C6.5,1.9,1.9,6.5,1.9,12S6.5,22.1,12,22.1S22.1,17.5,22.1,12S17.5,1.9,12,1.9z"/>
<path class="st0" d="M16.2,17c-0.2,0-0.4-0.1-0.6-0.2L7.2,8.4c-0.3-0.3-0.3-0.9,0-1.2c0.3-0.3,0.9-0.3,1.2,0l8.4,8.4
	c0.3,0.3,0.3,0.9,0,1.2C16.6,16.9,16.4,17,16.2,17L16.2,17z"/>
<path class="st0" d="M7.8,17c-0.2,0-0.4-0.1-0.6-0.2c-0.3-0.3-0.3-0.9,0-1.2l8.4-8.4c0.3-0.3,0.9-0.3,1.2,0c0.3,0.3,0.3,0.9,0,1.2
	l-8.4,8.4C8.2,16.9,8,17,7.8,17L7.8,17z"/>
</svg>
