<?xml version="1.0" encoding="utf-8"?>
<!-- Generator: Adobe Illustrator 26.1.0, SVG Export Plug-In . SVG Version: 6.00 Build 0)  -->
<svg version="1.1" id="Layer_1" xmlns="http://www.w3.org/2000/svg" xmlns:xlink="http://www.w3.org/1999/xlink" x="0px" y="0px"
	 width="147px" height="31px" viewBox="0 0 147 31" style="enable-background:new 0 0 147 31;" xml:space="preserve">
<style type="text/css">
	.st0{fill:#1877F2;}
</style>
<path class="st0" d="M9.6,29.5H4.1V15.8H0.4v-4.5h3.8V8.1c0-3.8,1.7-6.5,7.2-6.5c1.2,0,3,0.2,3,0.2V6h-1.9c-2,0-2.7,0.6-2.7,2.2v3
	h4.6l-0.4,4.5H9.6L9.6,29.5z M22.3,10.9c-0.1,0-0.2,0-0.2,0c-5.1,0-7.4,3.8-7.4,9.3c0,6.9,3,9.6,7.5,9.6c2.5,0,4.2-1.1,5.2-3.1v2.7
	h5.2V11.3h-5.2v2.8C26.5,12.3,24.8,11,22.3,10.9z M23.6,15.2c2.1,0,3.4,1.5,3.4,4l0,2.6c0,1.7-1.1,3.7-3.4,3.7
	c-3.7,0-3.6-3.9-3.6-5.3C20.1,15.9,22,15.2,23.6,15.2L23.6,15.2z M34.7,20.4c0-2.2-0.1-9.5,9.3-9.5c3.8,0,5.4,1.2,5.4,1.2l-1.3,3.9
	c0,0-1.6-0.9-3.6-0.9c-2.6,0-4.3,1.5-4.3,4.2l0,1.9c0,2.6,1.6,4.3,4.3,4.3c1.9,0,3.6-0.9,3.6-0.9l1.3,3.9c0,0-1.4,1.2-5.3,1.2
	C35,29.9,34.7,23.4,34.7,20.4L34.7,20.4z M80.1,10.9c5.1,0,7.5,3.8,7.5,9.3c0,6.9-3,9.6-7.5,9.6c-2.5,0-4.4-1.1-5.5-3.1v2.7l-5.2,0
	V2.2L75,1.7v12.1C75.8,11.7,78.4,10.9,80.1,10.9L80.1,10.9z M78.6,15.2c-2.1,0-3.6,1.5-3.6,4l0,2.6c0,1.7,1,3.7,3.6,3.7
	c3.7,0,3.6-3.9,3.6-5.3C82.1,15.9,80.2,15.2,78.6,15.2z M58.9,11c-5.8,0-8.9,3.2-8.9,8.8v1c0,7.3,4.3,9.2,9.4,9.2
	c5,0,7.2-1.4,7.2-1.4l-1-3.7c0,0-2.7,1.1-5.5,1.1c-3,0-4.3-0.8-4.6-3.6h11.6v-3C67.1,13.3,63.7,11,58.9,11L58.9,11z M59,14.7
	c2,0,3.3,1.2,3.2,4.1h-6.8C55.6,15.8,57,14.7,59,14.7L59,14.7z M98.6,10.9c-6,0-9.1,3.4-9.1,9.4c0,8.2,5.4,9.6,9.1,9.6
	c5.4,0,9-2.9,9-9.5C107.6,13.5,103.5,10.9,98.6,10.9z M98.5,15.3c2.6,0,3.7,2,3.7,4.2v1.9c0,2.7-1.5,4.3-3.7,4.3
	c-2.1,0-3.5-1.5-3.5-4.3v-1.9C94.9,16.5,96.7,15.3,98.5,15.3z M118.5,10.9c-6,0-9.1,3.4-9.1,9.4c0,8.2,5.4,9.6,9.1,9.6
	c5.4,0,9-2.9,9-9.5C127.5,13.5,123.5,10.9,118.5,10.9z M118.4,15.3c2.6,0,3.7,2,3.7,4.2v1.9c0,2.7-1.5,4.3-3.7,4.3
	c-2.1,0-3.5-1.5-3.5-4.3v-1.9C114.9,16.5,116.6,15.3,118.4,15.3z M129.6,29.5V2.2l5.5-0.5V20l5.5-8.7h5.8l-5.7,9l5.9,9.2h-5.8
	l-5.7-8.9v8.9L129.6,29.5z"/>
</svg>
