<svg id="Capa_1" enable-background="new 0 0 512 512" height="512" viewBox="0 0 512 512" width="512" xmlns="http://www.w3.org/2000/svg"><g><path d="m497 193h-52.096c-6.547-23.057-27.777-40-52.904-40h-272c-25.127 0-46.356 16.943-52.904 40h-52.096c-8.284 0-15 6.716-15 15v56c0 8.284 6.716 15 15 15h50v.603c0 20.816 12.065 40.191 30.737 49.359 40.594 19.932 70.289 30.038 88.263 30.038 28.643 0 42.445-18.519 52.523-32.04 8.454-11.341 12.582-15.96 19.477-15.96s11.023 4.619 19.477 15.96c10.078 13.521 23.88 32.04 52.523 32.04 17.974 0 47.669-10.106 88.263-30.038 18.672-9.168 30.737-28.543 30.737-49.359v-.603h50c8.284 0 15-6.716 15-15v-56c0-8.284-6.716-15-15-15zm-467 56v-26h35v26zm387 30.603c0 9.608-5.349 18.203-13.96 22.431-34.39 16.885-62.442 26.966-75.04 26.966-12.956 0-18.964-7.215-28.47-19.968-9.309-12.489-20.894-28.032-43.53-28.032s-34.221 15.543-43.53 28.032c-9.506 12.753-15.514 19.968-28.47 19.968-12.598 0-40.65-10.081-75.04-26.967-8.611-4.228-13.96-12.823-13.96-22.43v-71.603c0-13.785 11.215-25 25-25h272c13.785 0 25 11.215 25 25zm65-30.603h-35v-26h35z"/></g></svg>