<?xml version="1.0" encoding="utf-8"?>
<!-- Generator: Adobe Illustrator 26.1.0, SVG Export Plug-In . SVG Version: 6.00 Build 0)  -->
<svg version="1.1" id="Layer_1" xmlns="http://www.w3.org/2000/svg" xmlns:xlink="http://www.w3.org/1999/xlink" x="0px" y="0px"
	 width="147px" height="31px" viewBox="0 0 147 31" style="enable-background:new 0 0 147 31;" xml:space="preserve">
<style type="text/css">
	.st0{fill:#EA4335;}
	.st1{fill:#FBBC05;}
	.st2{fill:#4285F4;}
	.st3{fill:#34A853;}
</style>
<path class="st0" d="M71,16.3c0,4.3-3.4,7.5-7.6,7.5s-7.6-3.2-7.6-7.5c0-4.3,3.4-7.5,7.6-7.5S71,12,71,16.3z M67.6,16.3
	c0-2.7-2-4.5-4.3-4.5s-4.3,1.8-4.3,4.5c0,2.7,2,4.5,4.3,4.5S67.6,19,67.6,16.3z"/>
<path class="st1" d="M87.3,16.3c0,4.3-3.4,7.5-7.6,7.5s-7.6-3.2-7.6-7.5c0-4.3,3.4-7.5,7.6-7.5S87.3,12,87.3,16.3z M84,16.3
	c0-2.7-2-4.5-4.3-4.5c-2.3,0-4.3,1.8-4.3,4.5c0,2.7,2,4.5,4.3,4.5C82,20.8,84,19,84,16.3z"/>
<path class="st2" d="M103,9.3v13.4c0,5.5-3.3,7.8-7.2,7.8c-3.7,0-5.9-2.4-6.7-4.4l2.9-1.2c0.5,1.2,1.8,2.7,3.8,2.7
	c2.5,0,4-1.5,4-4.4v-1.1h-0.1c-0.7,0.9-2.2,1.7-4,1.7c-3.8,0-7.3-3.3-7.3-7.5c0-4.2,3.5-7.5,7.3-7.5c1.8,0,3.2,0.8,4,1.7h0.1V9.3
	L103,9.3L103,9.3z M100.1,16.3c0-2.6-1.8-4.6-4-4.6c-2.3,0-4.2,1.9-4.2,4.6c0,2.6,1.9,4.5,4.2,4.5C98.3,20.8,100.1,18.9,100.1,16.3z
	"/>
<path class="st3" d="M108.2,1.4v21.9H105V1.4L108.2,1.4z"/>
<path class="st0" d="M120.9,18.8l2.6,1.7c-0.8,1.2-2.8,3.3-6.3,3.3c-4.3,0-7.5-3.3-7.5-7.5c0-4.4,3.2-7.5,7.1-7.5
	c3.9,0,5.9,3.1,6.5,4.8l0.3,0.8l-10.1,4.1c0.8,1.5,2,2.3,3.7,2.3C118.9,20.8,120,20,120.9,18.8L120.9,18.8z M112.9,16.1l6.8-2.8
	c-0.4-0.9-1.5-1.6-2.8-1.6C115.2,11.7,112.9,13.2,112.9,16.1z"/>
<path class="st2" d="M43.5,14.4v-3.2h10.8c0.1,0.6,0.2,1.2,0.2,1.9c0,2.4-0.7,5.3-2.8,7.4c-2.1,2.1-4.7,3.3-8.2,3.3
	c-6.5,0-11.9-5.2-11.9-11.6S37,0.6,43.5,0.6c3.6,0,6.1,1.4,8.1,3.2L49.3,6c-1.4-1.3-3.2-2.3-5.8-2.3c-4.7,0-8.4,3.8-8.4,8.4
	s3.7,8.4,8.4,8.4c3.1,0,4.8-1.2,5.9-2.3c0.9-0.9,1.5-2.2,1.7-3.9L43.5,14.4z"/>
</svg>
