<?xml version="1.0" encoding="utf-8"?>
<!-- Generator: Adobe Illustrator 26.1.0, SVG Export Plug-In . SVG Version: 6.00 Build 0)  -->
<svg version="1.1" id="Layer_1" xmlns="http://www.w3.org/2000/svg" xmlns:xlink="http://www.w3.org/1999/xlink" x="0px" y="0px"
	 viewBox="0 0 350 250" style="enable-background:new 0 0 350 250;" xml:space="preserve">
<style type="text/css">
	.st0{fill:#1C2B50;}
	.st1{fill:#C52127;}
	.st2{fill:#2AA74C;}
</style>
<g>
	<g>
		<g>
			<path class="st0" d="M194.3,54.4c0,1.4-1.2,2.6-2.6,2.6h-21.1c-1.4,0-2.6-1.2-2.6-2.6l0,0c0-1.4,1.2-2.6,2.6-2.6h21.1
				C193.1,51.8,194.3,53,194.3,54.4L194.3,54.4z"/>
			<path class="st0" d="M168.4,64.8c0,1.4-1.2,2.6-2.6,2.6h-6.4c-1.4,0-2.6-1.2-2.6-2.6l0,0c0-1.4,1.2-2.6,2.6-2.6h6.4
				C167.2,62.2,168.4,63.3,168.4,64.8L168.4,64.8z"/>
			<path class="st0" d="M171.3,75.2c0,1.4-1.2,2.6-2.6,2.6h-6.4c-1.4,0-2.6-1.2-2.6-2.6l0,0c0-1.4,1.2-2.6,2.6-2.6h6.4
				C170.1,72.6,171.3,73.8,171.3,75.2L171.3,75.2z"/>
			<path class="st0" d="M282.8,106.4c0,1.4-1.2,2.6-2.6,2.6h-87.3c-1.4,0-2.6-1.2-2.6-2.6l0,0c0-1.4,1.2-2.6,2.6-2.6h87.3
				C281.7,103.8,282.8,104.9,282.8,106.4L282.8,106.4z"/>
			<path class="st0" d="M278.7,116.8c0,1.4-1.2,2.6-2.6,2.6H228c-1.4,0-2.6-1.2-2.6-2.6l0,0c0-1.4,1.2-2.6,2.6-2.6h48.1
				C277.5,114.2,278.7,115.3,278.7,116.8L278.7,116.8z"/>
			<path class="st0" d="M188,116.8c0,1.4-1.2,2.6-2.6,2.6h-48.1c-1.4,0-2.6-1.2-2.6-2.6l0,0c0-1.4,1.2-2.6,2.6-2.6h48.1
				C186.8,114.2,188,115.3,188,116.8L188,116.8z"/>
			<path class="st0" d="M213,116.8c0,1.4-1.2,2.6-2.6,2.6h-15.6c-1.4,0-2.6-1.2-2.6-2.6l0,0c0-1.4,1.2-2.6,2.6-2.6h15.6
				C211.8,114.2,213,115.3,213,116.8L213,116.8z"/>
			<path class="st0" d="M241.3,127.1c0,1.4-1.2,2.6-2.6,2.6h-3.8c-1.4,0-2.6-1.2-2.6-2.6l0,0c0-1.4,1.2-2.6,2.6-2.6h3.8
				C240.1,124.5,241.3,125.7,241.3,127.1L241.3,127.1z"/>
			<path class="st0" d="M210.9,127.1c0,1.4-1.2,2.6-2.6,2.6h-7.2c-1.4,0-2.6-1.2-2.6-2.6l0,0c0-1.4,1.2-2.6,2.6-2.6h7.2
				C209.7,124.5,210.9,125.7,210.9,127.1L210.9,127.1z"/>
			<path class="st0" d="M193.7,127.1c0,1.4-1.2,2.6-2.6,2.6h-55.5c-1.4,0-2.6-1.2-2.6-2.6l0,0c0-1.4,1.2-2.6,2.6-2.6h55.5
				C192.6,124.5,193.7,125.7,193.7,127.1L193.7,127.1z"/>
			<path class="st0" d="M270,127.1c0,1.4-1.2,2.6-2.6,2.6h-6.6c-1.4,0-2.6-1.2-2.6-2.6l0,0c0-1.4,1.2-2.6,2.6-2.6h6.6
				C268.8,124.5,270,125.7,270,127.1L270,127.1z"/>
			<path class="st0" d="M243.1,137.5c0,1.4-1.2,2.6-2.6,2.6h-0.6c-1.4,0-2.6-1.2-2.6-2.6l0,0c0-1.4,1.2-2.6,2.6-2.6h0.6
				C242,134.9,243.1,136.1,243.1,137.5L243.1,137.5z"/>
			<path class="st0" d="M205.5,137.5c0,1.4-1.2,2.6-2.6,2.6h-39c-1.4,0-2.6-1.2-2.6-2.6l0,0c0-1.4,1.2-2.6,2.6-2.6h39
				C204.4,134.9,205.5,136.1,205.5,137.5L205.5,137.5z"/>
			<path class="st0" d="M153.3,137.5c0,1.4-1.2,2.6-2.6,2.6h-9.5c-1.4,0-2.6-1.2-2.6-2.6l0,0c0-1.4,1.2-2.6,2.6-2.6h9.5
				C152.2,134.9,153.3,136.1,153.3,137.5L153.3,137.5z"/>
			<path class="st0" d="M196.1,148.2c0,1.4-1.2,2.6-2.6,2.6h-30.2c-1.4,0-2.6-1.2-2.6-2.6l0,0c0-1.4,1.2-2.6,2.6-2.6h30.2
				C194.9,145.6,196.1,146.7,196.1,148.2L196.1,148.2z"/>
			<path class="st0" d="M196.1,158.6c0,1.4-1.2,2.6-2.6,2.6H168c-1.4,0-2.6-1.2-2.6-2.6l0,0c0-1.4,1.2-2.6,2.6-2.6h25.4
				C194.9,155.9,196.1,157.1,196.1,158.6L196.1,158.6z"/>
			<path class="st0" d="M189,169.5c0,1.4-1.2,2.6-2.6,2.6h-16c-1.4,0-2.6-1.2-2.6-2.6l0,0c0-1.4,1.2-2.6,2.6-2.6h16
				C187.8,166.9,189,168.1,189,169.5L189,169.5z"/>
			<path class="st0" d="M182.9,179.8c0,1.4-1.2,2.6-2.6,2.6h-6.1c-1.4,0-2.6-1.2-2.6-2.6l0,0c0-1.4,1.2-2.6,2.6-2.6h6.1
				C181.7,177.2,182.9,178.4,182.9,179.8L182.9,179.8z"/>
			<g>
				<path class="st0" d="M84.9,106.4c0-1.4-1.2-2.6-2.6-2.6h-9.8c-0.4,1.8-1,3.5-1.3,5.2h11.2C83.7,109,84.9,107.8,84.9,106.4z"/>
				<path class="st0" d="M97.9,85.6c0-1.4-1.2-2.6-2.6-2.6H80.1c-0.8,1.7-1.7,3.4-2.4,5.2h17.7C96.7,88.2,97.9,87,97.9,85.6z"/>
				<path class="st0" d="M102.8,95.9c0-1.4-1.2-2.6-2.6-2.6H75.7c-0.6,1.8-1.3,3.5-1.9,5.2h26.4C101.7,98.6,102.8,97.4,102.8,95.9z"
					/>
				<path class="st0" d="M114.9,169.5c0-1.4-1.2-2.6-2.6-2.6h-38c0.6,1.8,1.3,3.5,1.9,5.2h36.2C113.7,172.1,114.9,170.9,114.9,169.5
					z"/>
				<path class="st0" d="M98.4,187.9H83.5c1,1.8,2.1,3.5,3.2,5.2h11.7c1.4,0,2.6-1.2,2.6-2.6S99.8,187.9,98.4,187.9z"/>
				<path class="st0" d="M116.6,64.8c0-1.4-1.2-2.6-2.6-2.6H92.9c-1.3,1.7-2.7,3.4-3.9,5.2h25C115.4,67.4,116.6,66.2,116.6,64.8z"/>
				<path class="st0" d="M126.4,46.6c1.4,0,2.6-1.2,2.6-2.6c0-1.4-1.2-2.6-2.6-2.6H114c-2.2,1.6-4.4,3.4-6.4,5.2
					C107.6,46.6,126.4,46.6,126.4,46.6z"/>
				<path class="st0" d="M155,85.6c0,1.4,1.2,2.6,2.6,2.6h129.9c-0.7-1.8-1.6-3.5-2.4-5.2H157.7C156.2,83,155,84.2,155,85.6z"/>
				<path class="st0" d="M103,158.6c0-1.4-1.2-2.6-2.6-2.6H71.3c0.4,1.8,0.9,3.5,1.3,5.2h27.8C101.9,161.2,103,160,103,158.6z"/>
				<path class="st0" d="M82.6,150.7c1.4,0,2.6-1.2,2.6-2.6s-1.2-2.6-2.6-2.6H69.7c0.2,1.8,0.5,3.5,0.8,5.2H82.6z"/>
				<path class="st0" d="M112.2,179.8c0-1.4-1.2-2.6-2.6-2.6H78.1c0.7,1.8,1.6,3.5,2.5,5.2h28.9C111,182.4,112.2,181.3,112.2,179.8z
					"/>
				<path class="st0" d="M244.9,44c0,1.4,1.2,2.6,2.6,2.6h10c-2.1-1.8-4.2-3.6-6.4-5.2h-3.6C246.1,41.4,244.9,42.6,244.9,44z"/>
				<path class="st0" d="M291.3,98.6c-0.5-1.8-1.2-3.5-1.9-5.2H182.6c-1.4,0-2.6,1.2-2.6,2.6c0,1.4,1.2,2.6,2.6,2.6H291.3z"/>
				<path class="st0" d="M174.8,75.2c0,1.4,1.2,2.6,2.6,2.6h105.2c-1-1.8-2.1-3.5-3.1-5.2H177.4C176,72.6,174.8,73.8,174.8,75.2z"/>
				<path class="st0" d="M218.4,54.4c0,1.4,1.2,2.6,2.6,2.6h46.9c-1.5-1.8-3.1-3.6-4.7-5.2H221C219.5,51.8,218.4,53,218.4,54.4z"/>
				<path class="st0" d="M128.7,54.4c0-1.4-1.2-2.6-2.6-2.6H102c-1.6,1.6-3.2,3.5-4.7,5.2h28.9C127.6,57,128.7,55.9,128.7,54.4z"/>
				<path class="st0" d="M176.3,64.8c0,1.4,1.2,2.6,2.6,2.6h97.2c-1.2-1.8-2.5-3.5-3.9-5.2h-93.3C177.5,62.2,176.3,63.3,176.3,64.8z
					"/>
			</g>
		</g>
	</g>
	<g>
		<path class="st1" d="M215.4,20c18.8-6.6,37-10.2,53.1-10.2c14.5,0,26.9,2.9,36.5,8.5c-10.4-8.5-25-13-43.1-13
			c-17.6,0-37.4,4.2-58,11.9C207.7,17.9,211.6,18.9,215.4,20z"/>
		<path class="st1" d="M55,229.6c-13.7-18.1-12.5-45.5,3.3-77.2c2.3-4.6,4.9-9.2,7.8-13.8c-0.1-2.2-0.3-4.3-0.3-6.5
			c0-3.3,0.2-6.6,0.5-9.9c-6.5,9.1-12.2,18.2-16.8,27.3c-16,32-17.2,59.7-3.3,78c7.8,10.3,19.9,16.8,35.4,19.3
			C70.2,243.6,61.2,237.8,55,229.6z"/>
	</g>
	<g>
		<path class="st2" d="M75,226.2c-10.6-14-10.9-34-2.9-56.3c-2.8-8.2-4.9-16.8-5.8-25.8c-19.1,33-23.7,64-8.8,83.6
			c13.6,17.9,40.8,22.8,73.6,16.2C106.2,246.3,86,240.7,75,226.2z"/>
		<path class="st2" d="M234,27.3c32.1-10.1,60.6-10.2,78.5,1.1c-17.7-18.3-52.4-19.7-92.1-6.7C225.1,23.2,229.6,25.1,234,27.3z"/>
	</g>
	<g>
		<path class="st0" d="M241.8,31.5c14.7-4.6,28.8-7.1,41.5-7.1c6.7,0,12.8,0.7,18.3,2.1c-6.8-2.4-14.8-3.7-23.7-3.7
			c-12.2,0-25.6,2.3-39.7,6.4C239.4,29.9,240.5,30.7,241.8,31.5z"/>
		<path class="st0" d="M88.1,220.6c-6.3-8.3-8.5-19.1-7.3-31.2c-2.7-4.8-5.1-9.8-7.1-14.9c-6.4,19.8-5.6,37.4,3.8,49.8
			c8.4,11.2,23.4,17.1,43.2,17.1c22.5,0,49.1-7.5,76.2-20.9c-23.7,10.8-46.8,16.8-66.6,16.8C110.9,237.2,96.4,231.5,88.1,220.6z"/>
	</g>
</g>
</svg>
