<svg width="348" height="168" viewBox="0 0 348 168" fill="none" xmlns="http://www.w3.org/2000/svg">
<path d="M0 68.3599V58.4292H39.4917V68.3599H0ZM13.8567 104.041V58.7756H25.404V104.041H13.8567Z" fill="#1E6091"/>
<path d="M43.8796 103.464V72.5169H55.196V103.464H43.8796ZM55.0805 86.951L50.1152 82.6785C51.2699 79.0988 53.002 76.4429 54.965 74.5954C57.0435 72.7478 59.6994 71.9395 63.0481 71.9395C66.3968 71.9395 65.8195 72.1705 66.8587 72.5169C67.898 72.8633 68.9372 73.5561 69.6301 74.3644L63.1636 83.1404C62.8172 82.6785 62.2398 82.332 61.6625 82.1011C61.0851 81.8702 60.3923 81.7547 59.5839 81.7547C58.1983 81.7547 57.0435 82.2166 56.2352 83.0249C55.4269 83.9487 54.965 85.2189 54.965 86.951H55.0805Z" fill="#1E6091"/>
<path d="M94.3412 72.9788V74.7109C93.5329 74.018 92.7246 73.4407 91.6854 72.9788C90.0687 72.2859 88.2212 71.9395 86.2581 71.9395C83.3713 71.9395 80.8309 72.6323 78.5215 74.018C76.212 75.4037 74.4799 77.3667 73.0942 79.7917C71.7086 82.2166 71.1312 85.1034 71.1312 88.2212C71.1312 91.3389 71.824 94.2258 73.0942 96.6507C74.3644 99.0756 76.212 101.039 78.406 102.424C80.7155 103.81 83.2559 104.503 86.2581 104.503C89.2604 104.503 89.9533 104.156 91.5699 103.464C92.6091 103.002 93.5329 102.424 94.3412 101.616V103.81H105.427V63.741L94.3412 72.7478V72.9788ZM88.5676 94.6876C87.4129 94.6876 86.3736 94.4567 85.4498 93.8793C84.526 93.302 83.8332 92.6091 83.2558 91.5699C82.6785 90.5306 82.4475 89.4914 82.4475 88.2212C82.4475 86.951 82.6785 85.9117 83.2558 84.9879C83.8332 84.0641 84.526 83.2558 85.4498 82.6785C86.3736 82.1011 87.4129 81.8702 88.6831 81.8702C89.9533 81.8702 90.9925 82.1011 91.8008 82.6785C92.7246 83.2558 93.4174 83.9487 93.8793 84.9879C94.3412 85.9117 94.6876 87.0664 94.6876 88.2212C94.6876 90.0687 94.1103 91.6854 92.9556 92.8401C91.8008 93.9948 90.4152 94.6876 88.5676 94.6876Z" fill="#1E6091"/>
<path d="M121.362 104.041L108.544 72.5169H120.554L128.752 99.0756H124.133L132.216 72.5169H144.11L131.293 104.041H121.362Z" fill="#1E6091"/>
<path d="M163.163 104.849C159.583 104.849 156.466 104.156 153.81 102.771C151.154 101.385 148.96 99.4221 147.459 96.8817C145.958 94.3413 145.149 91.5699 145.149 88.3367C145.149 85.1034 145.842 82.3321 147.343 79.7917C148.844 77.3667 150.923 75.4037 153.463 73.9026C156.119 72.5169 159.006 71.7086 162.239 71.7086C165.472 71.7086 168.244 72.4014 170.669 73.7871C173.094 75.1728 175.057 77.0203 176.442 79.3298C177.828 81.7547 178.521 84.4106 178.521 87.5284C178.521 90.6461 178.521 88.7985 178.405 89.3759C178.405 90.0687 178.174 90.7616 178.059 91.6854H150.346C150.346 91.8009 150.346 84.6415 150.346 84.6415H173.671C173.671 84.5261 168.706 87.6438 168.706 87.6438C168.706 85.9117 168.359 84.5261 167.897 83.3713C167.436 82.2166 166.743 81.2928 165.819 80.7155C164.895 80.1381 163.74 79.7917 162.355 79.7917C160.969 79.7917 159.814 80.1381 158.66 80.8309C157.505 81.5238 156.812 82.4476 156.235 83.7178C155.657 84.988 155.426 86.4891 155.426 88.2212C155.426 89.9533 155.773 91.5699 156.35 92.8401C156.927 94.1103 157.851 95.0341 158.891 95.6114C160.045 96.1888 161.431 96.5352 163.048 96.5352C164.664 96.5352 165.934 96.3043 167.089 95.8424C168.244 95.3805 169.399 94.5722 170.322 93.5329L176.211 99.3066C174.595 101.154 172.632 102.424 170.438 103.348C168.244 104.272 165.703 104.734 163.048 104.734L163.163 104.849Z" fill="#1E6091"/>
<path d="M1.15473 154.503V108.891H12.702V154.503H1.15473ZM10.2771 118.591V108.891H34.6418V118.591H10.2771ZM10.2771 136.027V126.558H32.6788V136.027H10.2771ZM10.2771 154.503V144.803H34.9882V154.503H10.2771Z" fill="#1E6091"/>
<path d="M39.3762 154.503L52.4246 135.796L58.7756 142.724L51.5008 154.387H39.3762V154.503ZM61.7779 154.503L54.965 142.84L52.4246 141.339L39.9536 122.978H53.002L59.5839 134.41L62.1243 135.68L74.7109 154.503H61.7779ZM61.6624 141.339L55.3114 134.41L62.1243 123.094H74.1335L61.6624 141.339Z" fill="#1E6091"/>
<path d="M77.8286 167.897V122.978H89.145V130.946L87.2974 138.567L88.7985 146.188V167.897H77.8286ZM96.6507 155.195C94.6877 155.195 92.8401 154.849 91.108 154.156C89.3759 153.463 87.9902 152.424 86.8355 151.154C85.6808 149.884 86.2581 148.382 86.0272 146.766L84.757 131.408C84.9879 129.791 85.6808 128.29 86.8355 126.905C87.9902 125.519 89.3759 124.48 91.108 123.671C92.8401 122.863 94.6877 122.517 96.6507 122.517C99.653 122.517 102.424 123.209 104.734 124.595C107.043 125.981 108.891 127.944 110.161 130.369C111.431 132.794 112.124 135.68 112.124 138.798C112.124 141.916 111.431 144.803 110.161 147.228C108.891 149.653 107.043 151.616 104.734 153.001C102.424 154.387 99.7685 155.08 96.6507 155.08V155.195ZM94.4567 145.149C95.7269 145.149 96.7662 144.918 97.6899 144.341C98.6137 143.764 99.3066 143.071 99.8839 142.031C100.346 141.108 100.577 139.953 100.577 138.683C100.577 137.413 100.346 136.373 99.8839 135.45C99.422 134.526 98.7292 133.717 97.8054 133.14C96.8816 132.563 95.8424 132.332 94.5722 132.332C93.302 132.332 92.3782 132.563 91.4544 133.14C90.5306 133.717 89.8378 134.41 89.2604 135.334C88.7985 136.258 88.4521 137.413 88.4521 138.683C88.4521 139.953 88.6831 140.992 89.145 142.031C89.6069 142.955 90.2997 143.764 91.2235 144.341C92.1472 144.918 93.1865 145.149 94.3412 145.149H94.4567Z" fill="#1E6091"/>
<path d="M133.833 155.311C130.253 155.311 127.135 154.618 124.48 153.232C121.824 151.847 119.63 149.884 118.129 147.343C116.627 144.803 115.819 142.031 115.819 138.798C115.819 135.565 116.512 132.794 118.013 130.253C119.514 127.828 121.593 125.865 124.133 124.364C126.789 122.978 129.676 122.17 132.909 122.17C136.142 122.17 138.914 122.863 141.339 124.249C143.764 125.634 145.727 127.482 147.112 129.791C148.498 132.216 149.191 134.872 149.191 137.99C149.191 141.108 149.191 139.26 149.075 139.837C149.075 140.53 148.844 141.223 148.729 142.147H121.015C121.015 142.262 121.015 135.103 121.015 135.103H144.341C144.341 134.988 139.376 138.105 139.376 138.105C139.376 136.373 139.029 134.988 138.567 133.833C138.105 132.678 137.413 131.754 136.489 131.177C135.565 130.6 134.41 130.253 133.025 130.253C131.639 130.253 130.484 130.6 129.329 131.293C128.175 131.985 127.482 132.909 126.905 134.179C126.327 135.45 126.096 136.951 126.096 138.683C126.096 140.415 126.443 142.031 127.02 143.302C127.597 144.572 128.521 145.496 129.56 146.073C130.715 146.65 132.101 146.997 133.717 146.997C135.334 146.997 136.604 146.766 137.759 146.304C138.914 145.842 140.068 145.034 140.992 143.995L146.881 149.768C145.265 151.616 143.302 152.886 141.108 153.81C138.914 154.733 136.373 155.195 133.717 155.195L133.833 155.311Z" fill="#1E6091"/>
<path d="M153.579 154.503V123.094L164.895 122.748V154.503H153.579ZM164.78 137.413L159.814 133.14C160.969 129.56 162.701 126.905 164.664 125.057C166.743 123.209 169.399 122.401 172.747 122.401C176.096 122.401 175.519 122.632 176.558 122.978C177.597 123.325 178.636 124.018 179.329 124.826L172.863 133.602C172.516 133.14 171.939 132.794 171.362 132.563C170.784 132.332 170.091 132.216 169.283 132.216C167.897 132.216 166.743 132.678 165.934 133.486C165.126 134.41 164.664 135.68 164.664 137.413H164.78Z" fill="#1E6091"/>
<path d="M215.126 155.311C211.546 155.311 208.428 154.618 205.772 153.232C203.117 151.847 200.923 149.884 199.421 147.343C197.92 144.803 197.112 142.031 197.112 138.798C197.112 135.565 197.805 132.794 199.306 130.253C200.807 127.828 202.886 125.865 205.426 124.364C208.082 122.978 210.969 122.17 214.202 122.17C217.435 122.17 220.207 122.863 222.631 124.249C225.056 125.634 227.019 127.482 228.405 129.791C229.791 132.216 230.484 134.872 230.484 137.99C230.484 141.108 230.484 139.26 230.368 139.837C230.368 140.53 230.137 141.223 230.022 142.147H202.308C202.308 142.262 202.308 135.103 202.308 135.103H225.634C225.634 134.988 220.668 138.105 220.668 138.105C220.668 136.373 220.322 134.988 219.86 133.833C219.398 132.678 218.705 131.754 217.782 131.177C216.858 130.6 215.703 130.253 214.317 130.253C212.932 130.253 211.777 130.6 210.622 131.293C209.468 131.985 208.775 132.909 208.197 134.179C207.62 135.45 207.389 136.951 207.389 138.683C207.389 140.415 207.735 142.031 208.313 143.302C208.89 144.572 209.814 145.496 210.853 146.073C212.008 146.65 213.394 146.997 215.01 146.997C216.627 146.997 217.897 146.766 219.052 146.304C220.207 145.842 221.361 145.034 222.285 143.995L228.174 149.768C226.558 151.616 224.595 152.886 222.401 153.81C220.207 154.733 217.666 155.195 215.01 155.195L215.126 155.311Z" fill="#1E6091"/>
<path d="M234.872 154.503V122.978H246.188V154.503H234.872ZM255.195 154.503V136.72C255.195 135.334 254.733 134.179 253.925 133.371C253.116 132.563 251.962 132.101 250.691 132.101C249.421 132.101 248.959 132.332 248.266 132.678C247.574 133.025 246.996 133.602 246.65 134.295C246.303 134.988 246.072 135.796 246.072 136.72L241.8 134.641C241.8 132.101 242.377 129.907 243.417 128.059C244.456 126.212 246.072 124.826 248.036 123.787C249.999 122.748 252.193 122.286 254.617 122.286C257.042 122.286 258.89 122.863 260.738 123.902C262.47 124.942 263.971 126.327 265.01 128.175C266.049 129.907 266.511 131.87 266.511 134.064V154.503H255.195Z" fill="#1E6091"/>
<path d="M287.989 155.311C284.64 155.311 281.638 154.618 278.982 153.117C276.326 151.731 274.132 149.768 272.631 147.228C271.13 144.687 270.322 141.916 270.322 138.798C270.322 135.68 271.13 132.794 272.631 130.253C274.132 127.713 276.326 125.75 278.982 124.364C281.638 122.978 284.756 122.17 288.105 122.17C291.453 122.17 292.839 122.632 294.802 123.44C296.88 124.249 298.728 125.519 300.345 127.135L293.301 134.179C292.608 133.486 291.8 133.025 290.991 132.678C290.183 132.332 289.144 132.216 288.105 132.216C287.065 132.216 285.795 132.447 284.871 133.025C283.948 133.602 283.139 134.295 282.562 135.219C281.985 136.142 281.638 137.297 281.638 138.683C281.638 140.068 281.869 140.992 282.562 142.031C283.139 143.071 283.948 143.764 284.871 144.341C285.795 144.918 286.95 145.149 288.105 145.149C289.259 145.149 290.299 144.918 291.222 144.572C292.031 144.225 292.839 143.648 293.532 142.955L300.691 149.999C298.959 151.731 296.996 153.001 295.033 153.925C293.07 154.849 290.645 155.195 288.105 155.195L287.989 155.311Z" fill="#1E6091"/>
<path d="M320.552 155.311C316.973 155.311 313.855 154.618 311.199 153.232C308.543 151.847 306.349 149.884 304.848 147.343C303.347 144.803 302.539 142.031 302.539 138.798C302.539 135.565 303.231 132.794 304.733 130.253C306.234 127.828 308.312 125.865 310.853 124.364C313.509 122.978 316.395 122.17 319.629 122.17C322.862 122.17 325.633 122.863 328.058 124.249C330.483 125.634 332.446 127.482 333.832 129.791C335.217 132.216 335.91 134.872 335.91 137.99C335.91 141.108 335.91 139.26 335.795 139.837C335.795 140.53 335.564 141.223 335.448 142.147H307.735C307.735 142.262 307.735 135.103 307.735 135.103H331.06C331.06 134.988 326.095 138.105 326.095 138.105C326.095 136.373 325.749 134.988 325.287 133.833C324.825 132.678 324.132 131.754 323.208 131.177C322.284 130.6 321.13 130.253 319.744 130.253C318.358 130.253 317.204 130.6 316.049 131.293C314.894 131.985 314.201 132.909 313.624 134.179C313.047 135.45 312.816 136.951 312.816 138.683C312.816 140.415 313.162 142.031 313.739 143.302C314.317 144.572 315.241 145.496 316.28 146.073C317.435 146.65 318.82 146.997 320.437 146.997C322.054 146.997 323.324 146.766 324.478 146.304C325.633 145.842 326.788 145.034 327.712 143.995L333.601 149.768C331.984 151.616 330.021 152.886 327.827 153.81C325.633 154.733 323.093 155.195 320.437 155.195L320.552 155.311Z" fill="#1E6091"/>
<path d="M334.986 101.616C334.64 100.115 333.139 99.1911 331.638 99.5375C326.326 100.808 320.09 100.461 314.086 98.4983C309.005 96.8816 304.04 94.1103 298.843 90.1842L296.996 88.6831C292.146 84.8725 286.719 80.6 279.56 80.1381C275.172 79.9071 271.13 81.0619 267.319 82.3321C263.855 83.3713 260.507 84.4106 257.158 84.2951C251.153 83.9487 246.188 79.9071 241.569 75.8656L241.107 75.4037C236.257 71.2467 228.752 65.8195 220.091 67.3206C214.548 68.2444 210.507 71.7086 206.927 74.8263L205.888 75.7501C202.539 78.5215 198.844 83.1404 193.879 87.9902V95.265C200.114 89.7223 205.08 83.8332 209.468 80.0226L210.507 79.0988C213.74 76.212 216.858 73.5561 220.899 72.9788C225.749 72.1705 230.945 74.3644 237.412 79.7917L237.874 80.2536C243.07 84.6415 248.844 89.6068 256.811 89.9533C261.084 90.1842 265.01 88.914 268.821 87.7593C272.4 86.6046 275.749 85.6808 279.098 85.7962C284.525 86.1427 288.913 89.4914 293.416 93.1865L295.264 94.6876C300.922 99.0756 306.465 102.078 312.123 103.925C316.28 105.311 320.552 106.004 324.709 106.004C328.866 106.004 330.137 105.658 332.677 105.08C334.178 104.734 335.102 103.233 334.755 101.731L334.986 101.616Z" fill="#1E6091"/>
<path d="M346.649 84.0642C338.566 78.1751 331.176 71.2467 324.94 63.3945C324.363 62.7017 323.786 61.8934 323.208 61.2006C322.862 60.7387 322.515 60.3922 322.169 59.9304L318.589 55.6579C317.319 54.2722 315.934 52.8865 314.432 51.6163C309.121 47.4593 303.116 45.8427 297.804 47.2284C296.303 47.6902 294.802 48.2676 293.416 48.845C290.991 49.8842 288.913 50.808 287.296 50.2307C286.257 49.8842 285.333 48.845 284.409 47.6903C278.982 41.3393 273.901 34.6418 269.283 27.7135L268.359 26.3278C262.239 16.3971 257.158 12.0092 253.809 10.0461C250.691 8.31404 248.613 8.42951 247.227 8.54498C244.918 8.77593 243.07 10.0461 241.338 11.3163C237.066 14.5496 232.909 18.1292 229.213 21.8243L228.521 22.5172C224.133 26.9052 219.629 31.2931 214.433 31.1776C213.74 31.1776 212.701 30.6003 211.662 30.1384C209.699 29.2146 207.505 28.1753 205.195 28.7527C202.77 29.2146 200.923 30.6003 199.306 31.6395C197.574 32.9097 195.726 34.2954 193.994 35.6811V42.8404C194.803 42.263 195.611 41.5702 196.304 40.9928C198.382 39.3762 200.576 37.6441 202.539 36.2584C203.809 35.3347 205.08 34.5263 206.35 34.1799C206.927 34.1799 208.313 34.7573 209.352 35.2192C210.853 35.912 212.47 36.7203 214.317 36.7203C221.939 37.0668 227.597 31.4086 232.562 26.4433L233.14 25.8659C236.719 22.2862 240.645 18.9375 244.687 15.8198C245.726 15.0115 246.881 14.3186 247.805 14.2032C248.613 14.2032 249.652 14.4341 250.922 15.2424C256.234 18.4756 260.045 24.0183 263.74 29.4456L264.664 30.8312C269.513 37.8751 274.71 44.8034 280.252 51.2699C281.407 52.5401 283.024 54.5031 285.449 55.4269C289.259 56.9281 292.723 55.4269 295.841 53.9258C297.111 53.3484 298.266 52.8865 299.421 52.5401C302.885 51.6163 307.273 52.8865 311.084 55.8888C314.086 58.1983 316.395 61.316 318.936 64.5493C319.513 65.3576 320.091 66.0504 320.668 66.7433C327.25 74.9418 334.986 82.3321 343.531 88.4521C343.993 88.7985 344.571 89.0295 345.148 89.0295C346.072 89.0295 346.88 88.6831 347.458 87.8748C348.381 86.6046 348.035 84.8725 346.88 83.9487L346.649 84.0642Z" fill="#1E6091"/>
<path d="M0 52.1937V5.77364H8.19856L11.7782 15.3579V52.1937H0ZM32.1014 52.1937L4.96532 17.7828L8.19856 5.77364L35.4501 40.1845L32.1014 52.1937ZM32.1014 52.1937L29.0991 42.3785V5.65816H40.8774V52.0782H32.2169L32.1014 52.1937Z" fill="#1E6091"/>
<path d="M68.7063 53.002C65.1266 53.002 61.8934 52.3092 59.1221 50.808C56.3507 49.4223 54.2722 47.3438 52.6556 44.8034C51.039 42.263 50.3461 39.3762 50.3461 36.143C50.3461 32.9097 51.1544 30.0229 52.6556 27.4825C54.1567 24.9421 56.2352 22.9791 58.8911 21.4779C61.547 19.9768 64.5493 19.284 67.898 19.284C71.2467 19.284 74.018 19.9768 76.5584 21.3625C79.0988 22.7481 81.0619 24.5957 82.4476 27.0206C83.8332 29.4455 84.5261 32.2169 84.5261 35.3347C84.5261 38.4524 84.5261 36.6049 84.4106 37.2977C84.4106 37.9905 84.1796 38.7989 84.0642 39.6072H55.7733C55.7733 39.7226 55.7733 32.4478 55.7733 32.4478H79.4453C79.4453 32.3324 74.3645 35.4501 74.3645 35.4501C74.3645 33.718 74.0181 32.2169 73.5562 31.0622C73.0943 29.9074 72.4014 28.9837 71.4776 28.4063C70.5539 27.8289 69.3991 27.4825 68.0135 27.4825C66.6278 27.4825 65.3576 27.8289 64.3183 28.5218C63.2791 29.2146 62.4708 30.1384 61.8934 31.5241C61.316 32.9097 61.0851 34.2954 61.0851 36.0275C61.0851 37.7596 61.4315 39.4917 62.0089 40.7619C62.5862 42.0321 63.51 42.9559 64.6647 43.6487C65.8195 44.2261 67.2052 44.5725 68.8218 44.5725C70.4384 44.5725 71.7086 44.3415 72.9788 43.7642C74.249 43.3023 75.2882 42.494 76.212 41.3393L82.2166 47.2284C80.6 49.0759 78.637 50.4616 76.3275 51.3854C74.018 52.3092 71.5931 52.7711 68.7063 52.7711V53.002Z" fill="#1E6091"/>
<path d="M151.616 52.8865C148.613 52.8865 145.958 52.1937 143.648 50.6925C141.339 49.3068 139.491 47.2283 138.221 44.8034C136.835 42.263 136.258 39.3762 136.258 36.143C136.258 32.9097 136.951 30.1384 138.221 27.598C139.607 25.0576 141.339 23.0945 143.648 21.7089C145.958 20.3232 148.613 19.5149 151.5 19.5149C154.387 19.5149 155.426 19.8613 157.043 20.5541C158.66 21.247 160.045 22.2862 161.084 23.5564C162.124 24.8266 162.817 26.3278 163.048 28.0599V44.2261C162.817 45.9581 162.124 47.4593 161.084 48.7295C160.045 49.9997 158.66 51.0389 157.043 51.7318C155.426 52.4246 153.579 52.771 151.616 52.771V52.8865ZM154.041 42.7249C155.888 42.7249 157.389 42.1475 158.544 40.8773C159.699 39.6071 160.276 38.106 160.276 36.143C160.276 34.1799 160.045 33.8335 159.468 32.7942C158.89 31.755 158.198 31.0622 157.274 30.4848C156.35 29.9074 155.311 29.6765 154.041 29.6765C152.77 29.6765 151.731 29.9074 150.807 30.4848C149.884 31.0622 149.075 31.8705 148.613 32.7942C148.036 33.718 147.805 34.8728 147.805 36.143C147.805 37.4132 148.036 38.5679 148.613 39.4917C149.191 40.5309 149.884 41.2238 150.807 41.8011C151.731 42.3785 152.886 42.6094 154.041 42.6094V42.7249ZM159.814 52.1937V43.5332L161.431 35.7965L159.814 27.9444V20.0922H171.131V52.0782H159.814V52.1937Z" fill="#1E6091"/>
<path d="M320.206 34.2954C313.047 34.2954 307.158 28.4063 307.158 21.247C307.158 14.0877 313.047 8.19856 320.206 8.19856C327.365 8.19856 333.254 14.0877 333.254 21.247C333.254 28.4063 327.365 34.2954 320.206 34.2954ZM320.206 9.69971C313.855 9.69971 308.543 14.896 308.543 21.3625C308.543 27.8289 313.74 33.0252 320.206 33.0252C326.672 33.0252 331.869 27.8289 331.869 21.3625C331.869 14.896 326.672 9.69971 320.206 9.69971Z" fill="#1E6091"/>
<path d="M315.933 13.8567C316.857 13.7413 318.243 13.5103 319.398 13.5103C321.361 13.5103 322.631 13.8567 323.555 14.665C324.248 15.2424 324.709 16.2817 324.709 17.4364C324.709 19.2839 323.555 20.5542 322.054 21.016C323.093 21.4779 323.786 22.5172 324.132 23.9029C324.594 25.8659 324.94 27.2516 325.287 27.8289H323.439C323.208 27.367 322.862 26.2123 322.515 24.4802C322.054 22.5172 321.361 21.8244 319.629 21.7089H317.897V27.8289H316.049V13.8567H315.933ZM317.781 20.3232H319.629C321.592 20.3232 322.862 19.284 322.862 17.6673C322.862 16.0507 321.476 15.0115 319.629 15.0115C317.781 15.0115 318.127 15.0115 317.781 15.1269V20.3232Z" fill="#1E6091"/>
<path d="M193.879 49.0759L182.447 58.4292V104.618L193.879 95.265V49.0759Z" fill="#1E6091"/>
<path d="M193.879 42.9559V0H182.447V52.3092L193.879 42.9559Z" fill="#1E6091"/>
<path d="M193.879 117.898V101.385L182.447 110.738V117.898H193.879Z" fill="#1E6091"/>
<path d="M193.879 122.978H182.447V154.387H193.879V122.978Z" fill="#1E6091"/>
<path d="M127.02 27.598C125.75 25.0576 123.902 23.0945 121.477 21.7089C119.052 20.3232 116.397 19.6304 113.279 19.6304C110.161 19.6304 109.353 20.0922 107.621 20.9005C106.928 21.247 106.235 21.7089 105.658 22.0553V20.3232H94.2258V67.2051L105.427 58.0828V50.6925C106.119 51.1544 106.928 51.6163 107.736 51.9627C109.468 52.6556 111.316 53.1175 113.394 53.1175C116.512 53.1175 119.283 52.4246 121.593 50.9235C123.902 49.5378 125.75 47.4593 127.136 45.0344C128.521 42.494 129.099 39.6071 129.099 36.3739C129.099 33.1407 128.406 30.3693 127.136 27.8289L127.02 27.598ZM116.627 39.4917C116.166 40.5309 115.357 41.2238 114.434 41.8011C113.51 42.3785 112.355 42.6094 111.085 42.6094C109.815 42.6094 108.891 42.3785 107.852 41.8011C106.812 41.2238 106.235 40.4154 105.658 39.4917C105.196 38.4524 104.849 37.4132 104.849 36.143C104.849 34.8728 105.08 33.718 105.658 32.7942C106.235 31.8705 106.928 31.0622 107.852 30.4848C108.775 29.9074 109.815 29.6765 111.085 29.6765C112.355 29.6765 113.51 29.9074 114.434 30.4848C115.357 31.0622 116.05 31.8705 116.627 32.7942C117.089 33.718 117.436 34.8728 117.436 36.143C117.436 37.4132 117.205 38.5679 116.627 39.4917Z" fill="#1E6091"/>
</svg>
