<?xml version="1.0" encoding="UTF-8"?>
<svg id="Layer_1" xmlns="http://www.w3.org/2000/svg" version="1.1" viewBox="0 0 500 500">
  <!-- Generator: Adobe Illustrator 29.8.2, SVG Export Plug-In . SVG Version: 2.1.1 Build 3)  -->
  <defs>
    <style>
      .st0 {
        fill: #1e6091;
      }
    </style>
  </defs>
  <g>
    <g>
      <g>
        <g>
          <path class="st0" d="M99.4,236.5v-8.6h34.2v8.6h-34.2ZM111.4,267.4v-39.2h10v39.2h-10Z"/>
          <path class="st0" d="M137.4,266.9v-26.8h9.8v26.8h-9.8ZM147.1,252.6l-4.3-3.7c1-3.1,2.5-5.4,4.2-7,1.8-1.6,4.1-2.3,7-2.3s2.4.2,3.3.5c.9.3,1.8.9,2.4,1.6l-5.6,7.6c-.3-.4-.8-.7-1.3-.9-.5-.2-1.1-.3-1.8-.3-1.2,0-2.2.4-2.9,1.1-.7.8-1.1,1.9-1.1,3.4Z"/>
          <path class="st0" d="M181.1,240.5v1.5c-.7-.6-1.4-1.1-2.3-1.5-1.4-.6-3-.9-4.7-.9-2.5,0-4.7.6-6.7,1.8-2,1.2-3.5,2.9-4.7,5s-1.7,4.6-1.7,7.3.6,5.2,1.7,7.3,2.7,3.8,4.6,5c2,1.2,4.2,1.8,6.8,1.8s3.2-.3,4.6-.9c.9-.4,1.7-.9,2.4-1.6v1.9h9.6v-34.7l-9.6,7.8ZM176.1,259.3c-1,0-1.9-.2-2.7-.7-.8-.5-1.4-1.1-1.9-2s-.7-1.8-.7-2.9.2-2,.7-2.8c.5-.8,1.1-1.5,1.9-2,.8-.5,1.7-.7,2.8-.7s2,.2,2.7.7c.8.5,1.4,1.1,1.8,2,.4.8.7,1.8.7,2.8,0,1.6-.5,3-1.5,4-1,1-2.2,1.6-3.8,1.6Z"/>
          <path class="st0" d="M204.5,267.4l-11.1-27.3h10.4l7.1,23h-4l7-23h10.3l-11.1,27.3h-8.6Z"/>
          <path class="st0" d="M240.7,268.1c-3.1,0-5.8-.6-8.1-1.8-2.3-1.2-4.2-2.9-5.5-5.1-1.3-2.2-2-4.6-2-7.4s.6-5.2,1.9-7.4c1.3-2.1,3.1-3.8,5.3-5.1,2.3-1.2,4.8-1.9,7.6-1.9s5.2.6,7.3,1.8,3.8,2.8,5,4.8c1.2,2.1,1.8,4.4,1.8,7.1s0,1.1-.1,1.6c0,.6-.2,1.2-.3,2h-24c0,.1,0-6.1,0-6.1h20.2c0-.1-4.3,2.6-4.3,2.6,0-1.5-.3-2.7-.7-3.7-.4-1-1-1.8-1.8-2.3s-1.8-.8-3-.8-2.2.3-3.2.9-1.6,1.4-2.1,2.5c-.5,1.1-.7,2.4-.7,3.9s.3,2.9.8,4c.5,1.1,1.3,1.9,2.2,2.4,1,.5,2.2.8,3.6.8s2.5-.2,3.5-.6c1-.4,2-1.1,2.8-2l5.1,5c-1.4,1.6-3.1,2.7-5,3.5-1.9.8-4.1,1.2-6.4,1.2Z"/>
          <path class="st0" d="M100.4,311.1v-39.5h10v39.5h-10ZM108.3,280v-8.4h21.1v8.4h-21.1ZM108.3,295.1v-8.2h19.4v8.2h-19.4ZM108.3,311.1v-8.4h21.4v8.4h-21.4Z"/>
          <path class="st0" d="M133.5,311.1l11.3-16.2,5.5,6-6.3,10.1h-10.5ZM152.9,311.1l-5.9-10.1-2.2-1.3-10.8-15.9h11.3l5.7,9.9,2.2,1.1,10.9,16.3h-11.2ZM152.8,299.7l-5.5-6,5.9-9.8h10.4l-10.8,15.8Z"/>
          <path class="st0" d="M166.8,322.7v-38.9h9.8v6.9l-1.6,6.6,1.3,6.6v18.8h-9.5ZM183.1,311.7c-1.7,0-3.3-.3-4.8-.9-1.5-.6-2.7-1.5-3.7-2.6-1-1.1-.5-2.4-.7-3.8l-1.1-13.3c.2-1.4.8-2.7,1.8-3.9,1-1.2,2.2-2.1,3.7-2.8s3.1-1,4.8-1c2.6,0,5,.6,7,1.8,2,1.2,3.6,2.9,4.7,5s1.7,4.6,1.7,7.3-.6,5.2-1.7,7.3-2.7,3.8-4.7,5c-2,1.2-4.3,1.8-7,1.8ZM181.2,303c1.1,0,2-.2,2.8-.7.8-.5,1.4-1.1,1.9-2,.4-.8.6-1.8.6-2.9s-.2-2-.6-2.8c-.4-.8-1-1.5-1.8-2-.8-.5-1.7-.7-2.8-.7s-1.9.2-2.7.7c-.8.5-1.4,1.1-1.9,1.9-.4.8-.7,1.8-.7,2.9s.2,2,.6,2.9c.4.8,1,1.5,1.8,2,.8.5,1.7.7,2.7.7Z"/>
          <path class="st0" d="M215.3,311.8c-3.1,0-5.8-.6-8.1-1.8-2.3-1.2-4.2-2.9-5.5-5.1-1.3-2.2-2-4.6-2-7.4s.6-5.2,1.9-7.4c1.3-2.1,3.1-3.8,5.3-5.1,2.3-1.2,4.8-1.9,7.6-1.9s5.2.6,7.3,1.8,3.8,2.8,5,4.8c1.2,2.1,1.8,4.4,1.8,7.1s0,1.1-.1,1.6c0,.6-.2,1.2-.3,2h-24c0,.1,0-6.1,0-6.1h20.2c0-.1-4.3,2.6-4.3,2.6,0-1.5-.3-2.7-.7-3.7-.4-1-1-1.8-1.8-2.3s-1.8-.8-3-.8-2.2.3-3.2.9-1.6,1.4-2.1,2.5c-.5,1.1-.7,2.4-.7,3.9s.3,2.9.8,4c.5,1.1,1.3,1.9,2.2,2.4,1,.5,2.2.8,3.6.8s2.5-.2,3.5-.6c1-.4,2-1.1,2.8-2l5.1,5c-1.4,1.6-3.1,2.7-5,3.5-1.9.8-4.1,1.2-6.4,1.2Z"/>
          <path class="st0" d="M232.4,311.1v-27.2l9.8-.3v27.5h-9.8ZM242.1,296.3l-4.3-3.7c1-3.1,2.5-5.4,4.2-7,1.8-1.6,4.1-2.3,7-2.3s2.4.2,3.3.5c.9.3,1.8.9,2.4,1.6l-5.6,7.6c-.3-.4-.8-.7-1.3-.9-.5-.2-1.1-.3-1.8-.3-1.2,0-2.2.4-2.9,1.1-.7.8-1.1,1.9-1.1,3.4Z"/>
          <path class="st0" d="M285.7,311.8c-3.1,0-5.8-.6-8.1-1.8-2.3-1.2-4.2-2.9-5.5-5.1-1.3-2.2-2-4.6-2-7.4s.6-5.2,1.9-7.4c1.3-2.1,3.1-3.8,5.3-5.1,2.3-1.2,4.8-1.9,7.6-1.9s5.2.6,7.3,1.8,3.8,2.8,5,4.8c1.2,2.1,1.8,4.4,1.8,7.1s0,1.1-.1,1.6c0,.6-.2,1.2-.3,2h-24c0,.1,0-6.1,0-6.1h20.2c0-.1-4.3,2.6-4.3,2.6,0-1.5-.3-2.7-.7-3.7-.4-1-1-1.8-1.8-2.3s-1.8-.8-3-.8-2.2.3-3.2.9-1.6,1.4-2.1,2.5c-.5,1.1-.7,2.4-.7,3.9s.3,2.9.8,4c.5,1.1,1.3,1.9,2.2,2.4,1,.5,2.2.8,3.6.8s2.5-.2,3.5-.6c1-.4,2-1.1,2.8-2l5.1,5c-1.4,1.6-3.1,2.7-5,3.5-1.9.8-4.1,1.2-6.4,1.2Z"/>
          <path class="st0" d="M302.8,311.1v-27.3h9.8v27.3h-9.8ZM320.4,311.1v-15.4c0-1.2-.4-2.2-1.1-2.9-.7-.7-1.7-1.1-2.8-1.1s-1.5.2-2.1.5c-.6.3-1.1.8-1.4,1.4s-.5,1.3-.5,2.1l-3.7-1.8c0-2.2.5-4.1,1.4-5.7.9-1.6,2.3-2.8,4-3.7,1.7-.9,3.6-1.3,5.7-1.3s3.7.5,5.3,1.4c1.5.9,2.8,2.1,3.7,3.7.9,1.5,1.3,3.2,1.3,5.1v17.7h-9.8Z"/>
          <path class="st0" d="M348.8,311.8c-2.9,0-5.5-.6-7.8-1.9-2.3-1.2-4.2-2.9-5.5-5.1-1.3-2.2-2-4.6-2-7.3s.7-5.2,2-7.4,3.2-3.9,5.5-5.1c2.3-1.2,5-1.9,7.9-1.9s4.1.4,5.8,1.1c1.8.7,3.4,1.8,4.8,3.2l-6.1,6.1c-.6-.6-1.3-1-2-1.3-.7-.3-1.6-.4-2.5-.4s-2,.2-2.8.7c-.8.5-1.5,1.1-2,1.9s-.8,1.8-.8,3,.2,2,.8,2.9c.5.9,1.2,1.5,2,2,.8.5,1.8.7,2.8.7s1.9-.2,2.7-.5c.7-.3,1.4-.8,2-1.4l6.2,6.1c-1.5,1.5-3.2,2.6-4.9,3.4s-3.8,1.1-6,1.1Z"/>
          <path class="st0" d="M377,311.8c-3.1,0-5.8-.6-8.1-1.8-2.3-1.2-4.2-2.9-5.5-5.1-1.3-2.2-2-4.6-2-7.4s.6-5.2,1.9-7.4c1.3-2.1,3.1-3.8,5.3-5.1,2.3-1.2,4.8-1.9,7.6-1.9s5.2.6,7.3,1.8,3.8,2.8,5,4.8c1.2,2.1,1.8,4.4,1.8,7.1s0,1.1-.1,1.6c0,.6-.2,1.2-.3,2h-24c0,.1,0-6.1,0-6.1h20.2c0-.1-4.3,2.6-4.3,2.6,0-1.5-.3-2.7-.7-3.7-.4-1-1-1.8-1.8-2.3s-1.8-.8-3-.8-2.2.3-3.2.9-1.6,1.4-2.1,2.5c-.5,1.1-.7,2.4-.7,3.9s.3,2.9.8,4c.5,1.1,1.3,1.9,2.2,2.4,1,.5,2.2.8,3.6.8s2.5-.2,3.5-.6c1-.4,2-1.1,2.8-2l5.1,5c-1.4,1.6-3.1,2.7-5,3.5-1.9.8-4.1,1.2-6.4,1.2Z"/>
        </g>
        <path class="st0" d="M389.5,265.3c-.3-1.3-1.6-2.1-2.9-1.8-4.6,1.1-10,.8-15.2-.9-4.4-1.4-8.7-3.8-13.2-7.2l-1.6-1.3c-4.2-3.3-8.9-7-15.1-7.4-3.8-.2-7.3.8-10.6,1.9-3,.9-5.9,1.8-8.8,1.7-5.2-.3-9.5-3.8-13.5-7.3l-.4-.4c-4.2-3.6-10.7-8.3-18.2-7-4.8.8-8.3,3.8-11.4,6.5l-.9.8c-2.9,2.4-6.1,6.4-10.4,10.6v6.3c5.4-4.8,9.7-9.9,13.5-13.2l.9-.8c2.8-2.5,5.5-4.8,9-5.3,4.2-.7,8.7,1.2,14.3,5.9l.4.4c4.5,3.8,9.5,8.1,16.4,8.4,3.7.2,7.1-.9,10.4-1.9,3.1-1,6-1.8,8.9-1.7,4.7.3,8.5,3.2,12.4,6.4l1.6,1.3c4.9,3.8,9.7,6.4,14.6,8,3.6,1.2,7.3,1.8,10.9,1.8s4.7-.3,6.9-.8c1.3-.3,2.1-1.6,1.8-2.9Z"/>
        <path class="st0" d="M399.6,250.1c-7-5.1-13.4-11.1-18.8-17.9-.5-.6-1-1.3-1.5-1.9-.3-.4-.6-.7-.9-1.1l-3.1-3.7c-1.1-1.2-2.3-2.4-3.6-3.5-4.6-3.6-9.8-5-14.4-3.8-1.3.4-2.6.9-3.8,1.4-2.1.9-3.9,1.7-5.3,1.2-.9-.3-1.7-1.2-2.5-2.2-4.7-5.5-9.1-11.3-13.1-17.3l-.8-1.2c-5.3-8.6-9.7-12.4-12.6-14.1-2.7-1.5-4.5-1.4-5.7-1.3-2,.2-3.6,1.3-5.1,2.4-3.7,2.8-7.3,5.9-10.5,9.1l-.6.6c-3.8,3.8-7.7,7.6-12.2,7.5-.6,0-1.5-.5-2.4-.9-1.7-.8-3.6-1.7-5.6-1.2-2.1.4-3.7,1.6-5.1,2.5-1.5,1.1-3.1,2.3-4.6,3.5v6.2c.7-.5,1.4-1.1,2-1.6,1.8-1.4,3.7-2.9,5.4-4.1,1.1-.8,2.2-1.5,3.3-1.8.5,0,1.7.5,2.6.9,1.3.6,2.7,1.3,4.3,1.3,6.6.3,11.5-4.6,15.8-8.9l.5-.5c3.1-3.1,6.5-6,10-8.7.9-.7,1.9-1.3,2.7-1.4.7,0,1.6.2,2.7.9,4.6,2.8,7.9,7.6,11.1,12.3l.8,1.2c4.2,6.1,8.7,12.1,13.5,17.7,1,1.1,2.4,2.8,4.5,3.6,3.3,1.3,6.3,0,9-1.3,1.1-.5,2.1-.9,3.1-1.2,3-.8,6.8.3,10.1,2.9,2.6,2,4.6,4.7,6.8,7.5.5.7,1,1.3,1.5,1.9,5.7,7.1,12.4,13.5,19.8,18.8.4.3.9.5,1.4.5.8,0,1.5-.3,2-1,.8-1.1.5-2.6-.5-3.4Z"/>
      </g>
      <g>
        <path class="st0" d="M99.4,222.5v-40.2h7.1l3.1,8.3v31.9h-10.2ZM127.2,222.5l-23.5-29.8,2.8-10.4,23.6,29.8-2.9,10.4ZM127.2,222.5l-2.6-8.5v-31.8h10.2v40.2h-7.5Z"/>
        <path class="st0" d="M158.9,223.2c-3.1,0-5.9-.6-8.3-1.9-2.4-1.2-4.2-3-5.6-5.2s-2-4.7-2-7.5.7-5.3,2-7.5c1.3-2.2,3.1-3.9,5.4-5.2,2.3-1.3,4.9-1.9,7.8-1.9s5.3.6,7.5,1.8c2.2,1.2,3.9,2.8,5.1,4.9,1.2,2.1,1.8,4.5,1.8,7.2s0,1.1-.1,1.7c0,.6-.2,1.3-.3,2h-24.5c0,.1,0-6.2,0-6.2h20.5c0-.1-4.4,2.6-4.4,2.6,0-1.5-.3-2.8-.7-3.8-.4-1-1-1.8-1.8-2.3s-1.8-.8-3-.8-2.3.3-3.2.9c-.9.6-1.6,1.4-2.1,2.6s-.7,2.4-.7,3.9.3,3,.8,4.1c.5,1.1,1.3,1.9,2.3,2.5,1,.5,2.2.8,3.6.8s2.5-.2,3.6-.7c1.1-.4,2-1.1,2.8-2.1l5.2,5.1c-1.4,1.6-3.1,2.8-5.1,3.6s-4.1,1.2-6.6,1.2Z"/>
        <path class="st0" d="M230.7,223.1c-2.6,0-4.9-.6-6.9-1.9-2-1.2-3.6-3-4.7-5.1-1.2-2.2-1.7-4.7-1.7-7.5s.6-5.2,1.7-7.4c1.2-2.2,2.7-3.9,4.7-5.1,2-1.2,4.3-1.9,6.8-1.9s3.4.3,4.8.9c1.4.6,2.6,1.5,3.5,2.6.9,1.1,1.5,2.4,1.7,3.9v14c-.2,1.5-.8,2.8-1.7,3.9-.9,1.1-2.1,2-3.5,2.6-1.4.6-3,.9-4.7.9ZM232.8,214.3c1.6,0,2.9-.5,3.9-1.6,1-1.1,1.5-2.4,1.5-4.1s-.2-2-.7-2.9c-.5-.9-1.1-1.5-1.9-2-.8-.5-1.7-.7-2.8-.7s-2,.2-2.8.7c-.8.5-1.5,1.2-1.9,2-.5.8-.7,1.8-.7,2.9s.2,2.1.7,2.9c.5.9,1.1,1.5,1.9,2,.8.5,1.8.7,2.8.7ZM237.8,222.5v-7.5l1.4-6.7-1.4-6.8v-6.8h9.8v27.7h-9.8Z"/>
      </g>
    </g>
    <g>
      <path class="st0" d="M376.7,207c-6.2,0-11.3-5.1-11.3-11.3s5.1-11.3,11.3-11.3,11.3,5.1,11.3,11.3-5.1,11.3-11.3,11.3ZM376.7,185.7c-5.5,0-10.1,4.5-10.1,10.1s4.5,10.1,10.1,10.1,10.1-4.5,10.1-10.1-4.5-10.1-10.1-10.1Z"/>
      <path class="st0" d="M373,189.3c.8-.1,2-.3,3-.3,1.7,0,2.8.3,3.6,1,.6.5,1,1.4,1,2.4,0,1.6-1,2.7-2.3,3.1h0c.9.4,1.5,1.3,1.8,2.5.4,1.7.7,2.9,1,3.4h-1.6c-.2-.4-.5-1.4-.8-2.9-.4-1.7-1-2.3-2.5-2.4h-1.5v5.3h-1.6v-12.1ZM374.6,194.9h1.6c1.7,0,2.8-.9,2.8-2.3s-1.2-2.3-2.8-2.3-1.3,0-1.6.1v4.5Z"/>
    </g>
    <polygon class="st0" points="267.3 219.8 257.4 227.9 257.4 267.9 267.3 259.8 267.3 219.8"/>
    <polygon class="st0" points="267.3 214.5 267.3 177.3 257.4 177.3 257.4 222.6 267.3 214.5"/>
    <polygon class="st0" points="267.3 279.4 267.3 265.1 257.4 273.2 257.4 279.4 267.3 279.4"/>
    <rect class="st0" x="257.4" y="283.8" width="9.9" height="27.2"/>
  </g>
  <path class="st0" d="M209.4,201.2c-1.1-2.2-2.7-3.9-4.8-5.1-2.1-1.2-4.4-1.8-7.1-1.8s-3.4.4-4.9,1.1c-.6.3-1.2.7-1.7,1v-1.5h-9.9v40.6l9.7-7.9v-6.4c.6.4,1.3.8,2,1.1,1.5.6,3.1,1,4.9,1,2.7,0,5.1-.6,7.1-1.9,2-1.2,3.6-3,4.8-5.1,1.2-2.2,1.7-4.7,1.7-7.5s-.6-5.2-1.7-7.4ZM200.4,211.5c-.4.9-1.1,1.5-1.9,2-.8.5-1.8.7-2.9.7s-1.9-.2-2.8-.7-1.4-1.2-1.9-2c-.4-.9-.7-1.8-.7-2.9s.2-2.1.7-2.9c.5-.8,1.1-1.5,1.9-2,.8-.5,1.7-.7,2.8-.7s2.1.2,2.9.7c.8.5,1.4,1.2,1.9,2,.4.8.7,1.8.7,2.9s-.2,2.1-.7,2.9Z"/>
</svg>