<?xml version="1.0" encoding="utf-8"?>
<!-- Generator: Adobe Illustrator 26.1.0, SVG Export Plug-In . SVG Version: 6.00 Build 0)  -->
<svg version="1.1" id="Layer_1" xmlns="http://www.w3.org/2000/svg" xmlns:xlink="http://www.w3.org/1999/xlink" x="0px" y="0px"
	 width="125px" height="60px" viewBox="0 0 125 60" style="enable-background:new 0 0 125 60;" xml:space="preserve">
<style type="text/css">
	.st0{fill:#1E6091;}
</style>
<g>
	<g>
		<g>
			<g>
				<path class="st0" d="M3.3,24.7v-3.4h13.4v3.4C16.8,24.7,3.3,24.7,3.3,24.7z M8,36.8V21.4H12v15.4H8z"/>
				<path class="st0" d="M18.2,36.6V26.1h3.8v10.5H18.2z M22.1,31l-1.7-1.5c0.4-1.2,1-2.1,1.6-2.7c0.7-0.6,1.6-0.9,2.7-0.9
					c1.1,0,0.9,0.1,1.3,0.2c0.4,0.1,0.7,0.4,0.9,0.6l-2.2,3c-0.1-0.2-0.3-0.3-0.5-0.4c-0.2-0.1-0.4-0.1-0.7-0.1
					c-0.5,0-0.9,0.2-1.1,0.4C22.2,30,22,30.4,22.1,31L22.1,31z"/>
				<path class="st0" d="M35.4,26.3v0.6c-0.3-0.2-0.5-0.4-0.9-0.6c-0.5-0.2-1.2-0.4-1.8-0.4c-1,0-1.8,0.2-2.6,0.7
					c-0.8,0.5-1.4,1.1-1.8,2c-0.5,0.8-0.7,1.8-0.7,2.9c0,1.1,0.2,2,0.7,2.9c0.4,0.8,1.1,1.5,1.8,2c0.8,0.5,1.6,0.7,2.7,0.7
					c1,0,1.3-0.1,1.8-0.4c0.4-0.2,0.7-0.4,0.9-0.6v0.7h3.8V23.1L35.4,26.3L35.4,26.3z M33.4,33.7c-0.4,0-0.7-0.1-1.1-0.3
					c-0.3-0.2-0.5-0.4-0.7-0.8c-0.2-0.4-0.3-0.7-0.3-1.1s0.1-0.8,0.3-1.1c0.2-0.3,0.4-0.6,0.7-0.8c0.3-0.2,0.7-0.3,1.1-0.3
					s0.8,0.1,1.1,0.3c0.3,0.2,0.5,0.4,0.7,0.8c0.2,0.3,0.3,0.7,0.3,1.1c0,0.6-0.2,1.2-0.6,1.6C34.5,33.4,34.1,33.7,33.4,33.7z"/>
				<path class="st0" d="M44.6,36.8l-4.4-10.7h4.1l2.8,9h-1.6l2.7-9h4L48,36.8L44.6,36.8L44.6,36.8z"/>
				<path class="st0" d="M58.8,37.1c-1.2,0-2.3-0.2-3.2-0.7c-0.9-0.5-1.6-1.1-2.2-2s-0.8-1.8-0.8-2.9c0-1.1,0.2-2,0.7-2.9
					c0.5-0.8,1.2-1.5,2.1-2c0.9-0.5,1.9-0.7,3-0.7s2,0.2,2.9,0.7c0.8,0.5,1.5,1.1,2,1.9c0.5,0.8,0.7,1.7,0.7,2.8c0,1.1,0,0.4,0,0.6
					c0,0.2-0.1,0.5-0.1,0.8h-9.4c0,0,0-2.4,0-2.4h7.9c0,0-1.7,1-1.7,1c0-0.6-0.1-1.1-0.3-1.5c-0.2-0.4-0.4-0.7-0.7-0.9
					c-0.3-0.2-0.7-0.3-1.2-0.3c-0.5,0-0.9,0.1-1.3,0.4c-0.4,0.2-0.6,0.5-0.8,1c-0.2,0.4-0.3,0.9-0.3,1.5s0.1,1.1,0.3,1.6
					c0.2,0.4,0.5,0.7,0.9,0.9c0.4,0.2,0.9,0.3,1.4,0.3s1-0.1,1.4-0.2c0.4-0.2,0.8-0.4,1.1-0.8l2,2c-0.5,0.6-1.2,1.1-2,1.4
					C60.5,36.9,59.7,37.1,58.8,37.1L58.8,37.1z"/>
				<path class="st0" d="M3.7,54V38.5h3.9V54H3.7z M6.8,41.8v-3.3h8.3v3.3C15.1,41.8,6.8,41.8,6.8,41.8z M6.8,47.7v-3.2h7.6v3.2H6.8
					z M6.8,54v-3.3h8.4V54C15.2,54,6.8,54,6.8,54z"/>
				<path class="st0" d="M16.7,54l4.4-6.4l2.2,2.4l-2.5,4L16.7,54L16.7,54z M24.3,54L22,50l-0.9-0.5l-4.2-6.2h4.4l2.2,3.9l0.9,0.4
					l4.3,6.4H24.3z M24.3,49.5l-2.2-2.4l2.3-3.8h4.1L24.3,49.5L24.3,49.5z"/>
				<path class="st0" d="M29.8,58.6V43.3h3.8V46L33,48.6l0.5,2.6v7.4H29.8z M36.2,54.2c-0.7,0-1.3-0.1-1.9-0.4s-1.1-0.6-1.5-1
					s-0.2-0.9-0.3-1.5l-0.4-5.2c0.1-0.5,0.3-1.1,0.7-1.5c0.4-0.5,0.9-0.8,1.5-1.1s1.2-0.4,1.9-0.4c1,0,2,0.2,2.7,0.7
					c0.8,0.5,1.4,1.1,1.8,2c0.4,0.8,0.7,1.8,0.7,2.9c0,1.1-0.2,2-0.7,2.9c-0.4,0.8-1.1,1.5-1.8,2C38.2,54,37.3,54.2,36.2,54.2
					L36.2,54.2z M35.4,50.8c0.4,0,0.8-0.1,1.1-0.3c0.3-0.2,0.5-0.4,0.7-0.8c0.2-0.3,0.2-0.7,0.2-1.1s-0.1-0.8-0.2-1.1
					c-0.2-0.3-0.4-0.6-0.7-0.8c-0.3-0.2-0.7-0.3-1.1-0.3s-0.7,0.1-1.1,0.3c-0.3,0.2-0.5,0.4-0.7,0.7c-0.2,0.3-0.3,0.7-0.3,1.1
					s0.1,0.8,0.2,1.1c0.2,0.3,0.4,0.6,0.7,0.8C34.7,50.7,35,50.8,35.4,50.8L35.4,50.8z"/>
				<path class="st0" d="M48.8,54.3c-1.2,0-2.3-0.2-3.2-0.7c-0.9-0.5-1.6-1.1-2.2-2s-0.8-1.8-0.8-2.9c0-1.1,0.2-2,0.7-2.9
					c0.5-0.8,1.2-1.5,2.1-2c0.9-0.5,1.9-0.7,3-0.7s2,0.2,2.9,0.7c0.8,0.5,1.5,1.1,2,1.9c0.5,0.8,0.7,1.7,0.7,2.8c0,1.1,0,0.4,0,0.6
					c0,0.2-0.1,0.5-0.1,0.8h-9.4c0,0,0-2.4,0-2.4h7.9c0,0-1.7,1-1.7,1c0-0.6-0.1-1.1-0.3-1.5c-0.2-0.4-0.4-0.7-0.7-0.9
					c-0.3-0.2-0.7-0.3-1.2-0.3s-0.9,0.1-1.3,0.4c-0.4,0.2-0.6,0.5-0.8,1c-0.2,0.4-0.3,0.9-0.3,1.5s0.1,1.1,0.3,1.6
					c0.2,0.4,0.5,0.7,0.9,0.9c0.4,0.2,0.9,0.3,1.4,0.3c0.5,0,1-0.1,1.4-0.2s0.8-0.4,1.1-0.8l2,2c-0.5,0.6-1.2,1.1-2,1.4
					C50.6,54.1,49.7,54.2,48.8,54.3L48.8,54.3z"/>
				<path class="st0" d="M55.6,54V43.3l3.8-0.1V54H55.6z M59.4,48.2l-1.7-1.5c0.4-1.2,1-2.1,1.6-2.7c0.7-0.6,1.6-0.9,2.7-0.9
					s0.9,0.1,1.3,0.2c0.4,0.1,0.7,0.4,0.9,0.6l-2.2,3c-0.1-0.2-0.3-0.3-0.5-0.4c-0.2-0.1-0.4-0.1-0.7-0.1c-0.5,0-0.9,0.2-1.1,0.4
					C59.5,47.2,59.3,47.6,59.4,48.2L59.4,48.2z"/>
				<path class="st0" d="M76.5,54.3c-1.2,0-2.3-0.2-3.2-0.7c-0.9-0.5-1.6-1.1-2.2-2s-0.8-1.8-0.8-2.9c0-1.1,0.2-2,0.7-2.9
					c0.5-0.8,1.2-1.5,2.1-2c0.9-0.5,1.9-0.7,3-0.7s2,0.2,2.9,0.7c0.8,0.5,1.5,1.1,2,1.9c0.5,0.8,0.7,1.7,0.7,2.8c0,1.1,0,0.4,0,0.6
					c0,0.2-0.1,0.5-0.1,0.8h-9.4c0,0,0-2.4,0-2.4h7.9c0,0-1.7,1-1.7,1c0-0.6-0.1-1.1-0.3-1.5c-0.2-0.4-0.4-0.7-0.7-0.9
					c-0.3-0.2-0.7-0.3-1.2-0.3c-0.5,0-0.9,0.1-1.3,0.4c-0.4,0.2-0.6,0.5-0.8,1s-0.3,0.9-0.3,1.5s0.1,1.1,0.3,1.6s0.5,0.7,0.9,0.9
					c0.4,0.2,0.9,0.3,1.4,0.3c0.5,0,1-0.1,1.4-0.2c0.4-0.2,0.8-0.4,1.1-0.8l2,2c-0.5,0.6-1.2,1.1-2,1.4
					C78.2,54.1,77.4,54.2,76.5,54.3L76.5,54.3z"/>
				<path class="st0" d="M83.2,54V43.3h3.8V54H83.2z M90.1,54v-6c0-0.5-0.2-0.9-0.4-1.1c-0.3-0.3-0.7-0.4-1.1-0.4s-0.6,0.1-0.8,0.2
					c-0.2,0.1-0.4,0.3-0.5,0.5c-0.1,0.2-0.2,0.5-0.2,0.8l-1.5-0.7c0-0.9,0.2-1.6,0.5-2.2c0.4-0.6,0.9-1.1,1.6-1.5
					c0.7-0.4,1.4-0.5,2.2-0.5s1.5,0.2,2.1,0.5c0.6,0.4,1.1,0.8,1.5,1.5c0.4,0.6,0.5,1.3,0.5,2v7L90.1,54L90.1,54z"/>
				<path class="st0" d="M101.3,54.3c-1.1,0-2.2-0.2-3.1-0.7c-0.9-0.5-1.6-1.1-2.2-2c-0.5-0.9-0.8-1.8-0.8-2.9c0-1.1,0.3-2,0.8-2.9
					c0.5-0.9,1.3-1.5,2.2-2c0.9-0.5,2-0.7,3.1-0.7s1.6,0.2,2.3,0.4c0.7,0.3,1.3,0.7,1.9,1.3l-2.4,2.4c-0.2-0.2-0.5-0.4-0.8-0.5
					c-0.3-0.1-0.6-0.2-1-0.2s-0.8,0.1-1.1,0.3c-0.3,0.2-0.6,0.4-0.8,0.7s-0.3,0.7-0.3,1.2s0.1,0.8,0.3,1.1c0.2,0.4,0.5,0.6,0.8,0.8
					s0.7,0.3,1.1,0.3c0.4,0,0.7-0.1,1.1-0.2c0.3-0.1,0.5-0.3,0.8-0.5l2.4,2.4c-0.6,0.6-1.3,1-1.9,1.3
					C103,54.1,102.2,54.2,101.3,54.3L101.3,54.3z"/>
				<path class="st0" d="M112.3,54.3c-1.2,0-2.3-0.2-3.2-0.7c-0.9-0.5-1.6-1.1-2.2-2s-0.8-1.8-0.8-2.9c0-1.1,0.2-2,0.7-2.9
					c0.5-0.8,1.2-1.5,2.1-2c0.9-0.5,1.9-0.7,3-0.7c1.1,0,2,0.2,2.9,0.7c0.8,0.5,1.5,1.1,2,1.9c0.5,0.8,0.7,1.7,0.7,2.8
					c0,1.1,0,0.4,0,0.6c0,0.2-0.1,0.5-0.1,0.8H108c0,0,0-2.4,0-2.4h7.9c0,0-1.7,1-1.7,1c0-0.6-0.1-1.1-0.3-1.5
					c-0.2-0.4-0.4-0.7-0.7-0.9c-0.3-0.2-0.7-0.3-1.2-0.3c-0.5,0-0.9,0.1-1.3,0.4c-0.4,0.2-0.6,0.5-0.8,1c-0.2,0.4-0.3,0.9-0.3,1.5
					s0.1,1.1,0.3,1.6s0.5,0.7,0.9,0.9c0.4,0.2,0.9,0.3,1.4,0.3c0.5,0,1-0.1,1.4-0.2c0.4-0.2,0.8-0.4,1.1-0.8l2,2
					c-0.5,0.6-1.2,1.1-2,1.4C114.1,54.1,113.2,54.2,112.3,54.3L112.3,54.3z"/>
			</g>
			<path class="st0" d="M117.3,36c-0.1-0.5-0.6-0.8-1.1-0.7c-1.8,0.4-3.9,0.3-6-0.4c-1.7-0.5-3.4-1.5-5.2-2.8l-0.6-0.5
				c-1.6-1.3-3.5-2.7-5.9-2.9c-1.5-0.1-2.9,0.3-4.2,0.7c-1.2,0.4-2.3,0.7-3.5,0.7c-2-0.1-3.7-1.5-5.3-2.9l-0.2-0.2
				c-1.6-1.4-4.2-3.3-7.1-2.7c-1.9,0.3-3.3,1.5-4.5,2.6l-0.4,0.3c-1.1,0.9-2.4,2.5-4.1,4.2v2.5c2.1-1.9,3.8-3.9,5.3-5.2l0.4-0.3
				c1.1-1,2.2-1.9,3.5-2.1c1.6-0.3,3.4,0.5,5.6,2.3l0.2,0.2c1.8,1.5,3.7,3.2,6.4,3.3c1.5,0.1,2.8-0.4,4.1-0.7
				c1.2-0.4,2.4-0.7,3.5-0.7c1.8,0.1,3.3,1.3,4.9,2.5l0.6,0.5c1.9,1.5,3.8,2.5,5.7,3.1c1.4,0.5,2.9,0.7,4.3,0.7
				c1.4,0,1.8-0.1,2.7-0.3C117,37.1,117.3,36.6,117.3,36L117.3,36z"/>
			<path class="st0" d="M121.2,30c-2.7-2-5.3-4.4-7.4-7c-0.2-0.2-0.4-0.5-0.6-0.7c-0.1-0.2-0.2-0.3-0.4-0.4l-1.2-1.5
				c-0.4-0.5-0.9-0.9-1.4-1.4c-1.8-1.4-3.8-2-5.7-1.5c-0.5,0.2-1,0.4-1.5,0.5c-0.8,0.4-1.5,0.7-2.1,0.5c-0.4-0.1-0.7-0.5-1-0.9
				c-1.8-2.2-3.6-4.4-5.1-6.8l-0.3-0.5c-2.1-3.4-3.8-4.9-4.9-5.5c-1.1-0.6-1.8-0.5-2.2-0.5c-0.8,0.1-1.4,0.5-2,0.9
				c-1.5,1.1-2.9,2.3-4.1,3.6L81,9.1c-1.5,1.5-3,3-4.8,2.9c-0.2,0-0.6-0.2-0.9-0.4c-0.7-0.3-1.4-0.7-2.2-0.5c-0.8,0.2-1.5,0.6-2,1
				c-0.6,0.4-1.2,0.9-1.8,1.4V16c0.3-0.2,0.5-0.4,0.8-0.6c0.7-0.5,1.5-1.1,2.1-1.6c0.4-0.3,0.9-0.6,1.3-0.7c0.2,0,0.7,0.2,1,0.4
				c0.5,0.2,1.1,0.5,1.7,0.5c2.6,0.1,4.5-1.8,6.2-3.5l0.2-0.2c1.2-1.2,2.6-2.4,3.9-3.4c0.4-0.3,0.7-0.5,1.1-0.5
				c0.3,0,0.6,0.1,1.1,0.4c1.8,1.1,3.1,3,4.4,4.8l0.3,0.5c1.6,2.4,3.4,4.8,5.3,7c0.4,0.4,0.9,1.1,1.8,1.4c1.3,0.5,2.5,0,3.5-0.5
				c0.4-0.2,0.8-0.4,1.2-0.5c1.2-0.3,2.7,0.1,4,1.1c1,0.8,1.8,1.8,2.7,2.9c0.2,0.3,0.4,0.5,0.6,0.7c2.2,2.8,4.9,5.3,7.8,7.4
				c0.2,0.1,0.4,0.2,0.5,0.2c0.3,0,0.6-0.1,0.8-0.4C121.8,30.9,121.7,30.3,121.2,30L121.2,30z"/>
		</g>
		<g>
			<path class="st0" d="M3.3,19.2V3.4h2.8l1.2,3.3v12.5H3.3z M14.2,19.2L5,7.5l1.1-4.1l9.3,11.7C15.4,15.1,14.2,19.2,14.2,19.2z
				 M14.2,19.2l-1-3.3V3.4h4v15.8L14.2,19.2L14.2,19.2z"/>
			<path class="st0" d="M26.7,19.5c-1.2,0-2.3-0.2-3.3-0.7c-0.9-0.5-1.6-1.2-2.2-2c-0.5-0.9-0.8-1.8-0.8-2.9s0.3-2.1,0.8-2.9
				c0.5-0.9,1.2-1.5,2.1-2C24.3,8.2,25.3,8,26.4,8c1.1,0,2.1,0.2,2.9,0.7c0.9,0.5,1.5,1.1,2,1.9c0.5,0.8,0.7,1.8,0.7,2.8
				s0,0.4,0,0.7c0,0.2-0.1,0.5-0.1,0.8h-9.6c0,0,0-2.4,0-2.4h8.1c0,0-1.7,1-1.7,1c0-0.6-0.1-1.1-0.3-1.5c-0.2-0.4-0.4-0.7-0.7-0.9
				c-0.3-0.2-0.7-0.3-1.2-0.3c-0.5,0-0.9,0.1-1.3,0.4c-0.4,0.2-0.6,0.5-0.8,1c-0.2,0.5-0.3,0.9-0.3,1.5s0.1,1.2,0.3,1.6
				c0.2,0.4,0.5,0.7,0.9,1c0.4,0.2,0.9,0.3,1.4,0.3c0.5,0,1-0.1,1.4-0.3c0.4-0.2,0.8-0.4,1.1-0.8l2,2c-0.5,0.6-1.2,1.1-2,1.4
				C28.5,19.2,27.7,19.4,26.7,19.5L26.7,19.5z"/>
			<path class="st0" d="M54.9,19.4c-1,0-1.9-0.2-2.7-0.7c-0.8-0.5-1.4-1.2-1.8-2c-0.5-0.9-0.7-1.8-0.7-2.9s0.2-2,0.7-2.9
				c0.5-0.9,1.1-1.5,1.8-2c0.8-0.5,1.7-0.7,2.7-0.7c1,0,1.3,0.1,1.9,0.4c0.5,0.2,1,0.6,1.4,1c0.4,0.4,0.6,0.9,0.7,1.5v5.5
				c-0.1,0.6-0.3,1.1-0.7,1.5c-0.4,0.4-0.8,0.8-1.4,1C56.2,19.3,55.6,19.4,54.9,19.4L54.9,19.4z M55.7,16c0.6,0,1.1-0.2,1.5-0.6
				c0.4-0.4,0.6-0.9,0.6-1.6c0-0.7-0.1-0.8-0.3-1.1s-0.4-0.6-0.7-0.8c-0.3-0.2-0.7-0.3-1.1-0.3s-0.8,0.1-1.1,0.3
				c-0.3,0.2-0.6,0.5-0.7,0.8c-0.2,0.3-0.3,0.7-0.3,1.1s0.1,0.8,0.3,1.1c0.2,0.4,0.4,0.6,0.7,0.8C54.9,15.9,55.3,15.9,55.7,16
				L55.7,16z M57.7,19.2v-2.9l0.5-2.6L57.7,11V8.3h3.8v10.9L57.7,19.2L57.7,19.2z"/>
		</g>
	</g>
	<g>
		<path class="st0" d="M112.2,13.1c-2.4,0-4.4-2-4.4-4.4s2-4.4,4.4-4.4s4.4,2,4.4,4.4S114.7,13.1,112.2,13.1z M112.2,4.7
			c-2.2,0-4,1.8-4,4s1.8,4,4,4s4-1.8,4-4S114.4,4.7,112.2,4.7z"/>
		<path class="st0" d="M110.8,6.2c0.3,0,0.8-0.1,1.2-0.1c0.7,0,1.1,0.1,1.4,0.4c0.2,0.2,0.4,0.5,0.4,0.9c0,0.6-0.4,1.1-0.9,1.2l0,0
			c0.4,0.2,0.6,0.5,0.7,1c0.2,0.7,0.3,1.1,0.4,1.3h-0.6c-0.1-0.2-0.2-0.5-0.3-1.1c-0.2-0.7-0.4-0.9-1-0.9h-0.6v2.1h-0.6L110.8,6.2
			L110.8,6.2z M111.4,8.4h0.6c0.7,0,1.1-0.4,1.1-0.9s-0.5-0.9-1.1-0.9s-0.5,0-0.6,0V8.4z"/>
	</g>
	<polygon class="st0" points="69.3,18.1 65.4,21.3 65.4,37 69.3,33.8 	"/>
	<polygon class="st0" points="69.3,16.1 69.3,1.4 65.4,1.4 65.4,19.2 	"/>
	<polygon class="st0" points="69.3,41.5 69.3,35.9 65.4,39.1 65.4,41.5 	"/>
	<rect x="65.4" y="43.3" class="st0" width="3.9" height="10.7"/>
</g>
<path class="st0" d="M46.5,10.8c-0.4-0.9-1.1-1.5-1.9-2c-0.8-0.5-1.7-0.7-2.8-0.7s-1.3,0.2-1.9,0.4c-0.2,0.1-0.5,0.3-0.7,0.4V8.4
	h-3.9v15.9l3.8-3.1v-2.5c0.2,0.2,0.5,0.3,0.8,0.4c0.6,0.2,1.2,0.4,1.9,0.4c1.1,0,2-0.2,2.8-0.7c0.8-0.5,1.4-1.2,1.9-2
	c0.5-0.9,0.7-1.8,0.7-2.9S47,11.8,46.5,10.8L46.5,10.8z M43,14.9c-0.2,0.4-0.4,0.6-0.7,0.8c-0.3,0.2-0.7,0.3-1.1,0.3
	c-0.4,0-0.7-0.1-1.1-0.3c-0.4-0.2-0.5-0.5-0.7-0.8c-0.2-0.4-0.3-0.7-0.3-1.1s0.1-0.8,0.3-1.1c0.2-0.3,0.4-0.6,0.7-0.8
	c0.3-0.2,0.7-0.3,1.1-0.3c0.4,0,0.8,0.1,1.1,0.3c0.3,0.2,0.5,0.5,0.7,0.8c0.2,0.3,0.3,0.7,0.3,1.1S43.2,14.6,43,14.9z"/>
</svg>
