<svg fill="none" height="24" viewBox="0 0 24 24" width="24" xmlns="http://www.w3.org/2000/svg"><g fill="#000"><path d="m9 12c-.55228 0-1 .4477-1 1s.44772 1 1 1h6c.5523 0 1-.4477 1-1s-.4477-1-1-1z"/><path clip-rule="evenodd" d="m8 2c.55228 0 1 .44772 1 1v1h6v-1c0-.55228.4477-1 1-1s1 .44772 1 1v1c1.6569 0 3 1.34315 3 3v12c0 1.6569-1.3431 3-3 3h-10c-1.65685 0-3-1.3431-3-3v-12c0-1.65685 1.34315-3 3-3v-1c0-.55228.44772-1 1-1zm7 4v1c0 .55228.4477 1 1 1s1-.44772 1-1v-1c.5523 0 1 .44772 1 1v12c0 .5523-.4477 1-1 1h-10c-.55228 0-1-.4477-1-1v-12c0-.55228.44772-1 1-1v1c0 .55228.44772 1 1 1s1-.44772 1-1v-1z" fill-rule="evenodd"/></g></svg>