<svg width="166" height="106" viewBox="0 0 166 106" fill="none" xmlns="http://www.w3.org/2000/svg">
<path d="M152.54 101.616C152.193 100.115 150.692 99.1911 149.191 99.5375C143.879 100.808 137.644 100.461 131.639 98.4983C126.558 96.8816 121.593 94.1103 116.397 90.1842L114.549 88.6831C109.699 84.8725 104.272 80.6 97.1126 80.1381C92.7246 79.9071 88.6831 81.0619 84.8725 82.3321C81.4083 83.3713 78.0596 84.4106 74.7109 84.2951C68.7063 83.9487 63.741 79.9071 59.122 75.8656L58.6602 75.4037C53.8103 71.2467 46.3046 65.8195 37.6441 67.3206C32.1014 68.2444 28.0599 71.7086 24.4802 74.8263L23.441 75.7501C20.0923 78.5215 16.3971 83.1404 11.4318 87.9902V95.265C17.6673 89.7223 22.6326 83.8332 27.0206 80.0226L28.0599 79.0988C31.2931 76.212 34.4109 73.5561 38.4524 72.9788C43.3023 72.1705 48.4985 74.3644 54.965 79.7917L55.4269 80.2536C60.6232 84.6415 66.3968 89.6068 74.3644 89.9533C78.6369 90.1842 82.563 88.914 86.3736 87.7593C89.9533 86.6046 93.302 85.6808 96.6507 85.7962C102.078 86.1427 106.466 89.4914 110.969 93.1865L112.817 94.6876C118.475 99.0756 124.018 102.078 129.676 103.925C133.833 105.311 138.105 106.004 142.262 106.004C146.419 106.004 147.69 105.658 150.23 105.08C151.731 104.734 152.655 103.233 152.309 101.731L152.54 101.616Z" fill="#1E6091"/>
<path d="M164.202 84.0642C156.119 78.1751 148.729 71.2467 142.493 63.3945C141.916 62.7017 141.339 61.8934 140.761 61.2006C140.415 60.7387 140.068 60.3922 139.722 59.9304L136.142 55.6579C134.872 54.2722 133.487 52.8865 131.985 51.6163C126.674 47.4593 120.669 45.8427 115.357 47.2284C113.856 47.6902 112.355 48.2676 110.969 48.845C108.544 49.8842 106.466 50.808 104.849 50.2307C103.81 49.8842 102.886 48.845 101.963 47.6903C96.5353 41.3393 91.4545 34.6418 86.8356 27.7135L85.9118 26.3278C79.7917 16.3971 74.7109 12.0092 71.3622 10.0461C68.2445 8.31404 66.1659 8.42951 64.7803 8.54498C62.4708 8.77593 60.6232 10.0461 58.8911 11.3163C54.6187 14.5496 50.4616 18.1292 46.7665 21.8243L46.0737 22.5172C41.6857 26.9052 37.1823 31.2931 31.986 31.1776C31.2932 31.1776 30.2539 30.6003 29.2147 30.1384C27.2516 29.2146 25.0576 28.1753 22.7482 28.7527C20.3233 29.2146 18.4757 30.6003 16.8591 31.6395C15.127 32.9097 13.2794 34.2954 11.5473 35.6811V42.8404C12.3556 42.263 13.1639 41.5702 13.8568 40.9928C15.9353 39.3762 18.1293 37.6441 20.0923 36.2584C21.3625 35.3347 22.6327 34.5263 23.9029 34.1799C24.4803 34.1799 25.866 34.7573 26.9052 35.2192C28.4064 35.912 30.023 36.7203 31.8705 36.7203C39.4917 37.0668 45.1499 31.4086 50.1152 26.4433L50.6926 25.8659C54.2722 22.2862 58.1983 18.9375 62.2399 15.8198C63.2791 15.0115 64.4338 14.3186 65.3576 14.2032C66.1659 14.2032 67.2052 14.4341 68.4754 15.2424C73.7872 18.4756 77.5977 24.0183 81.2929 29.4456L82.2167 30.8312C87.0665 37.8751 92.2628 44.8034 97.8055 51.2699C98.9602 52.5401 100.577 54.5031 103.002 55.4269C106.812 56.9281 110.277 55.4269 113.394 53.9258C114.665 53.3484 115.819 52.8865 116.974 52.5401C120.438 51.6163 124.826 52.8865 128.637 55.8888C131.639 58.1983 133.948 61.316 136.489 64.5493C137.066 65.3576 137.644 66.0504 138.221 66.7433C144.803 74.9418 152.54 82.3321 161.085 88.4521C161.546 88.7985 162.124 89.0295 162.701 89.0295C163.625 89.0295 164.433 88.6831 165.011 87.8748C165.934 86.6046 165.588 84.8725 164.433 83.9487L164.202 84.0642Z" fill="#1E6091"/>
<path d="M11.4318 49.0759L0 58.4292V104.618L11.4318 95.265V49.0759Z" fill="#1E6091"/>
<path d="M11.4318 42.9559V0H0V52.3092L11.4318 42.9559Z" fill="#1E6091"/>
</svg>
