<svg id="Layer_1" enable-background="new 0 0 800 800" viewBox="0 0 800 800" xmlns="http://www.w3.org/2000/svg"><g><path d="m566.7 753.2h-333.4c-68.9 0-125-56.1-125-125v-466.6h50v8.3h408.3c68.9 0 125 56.1 125 125v333.3c.1 69-56 125-124.9 125zm-408.4-533.3v408.3c0 41.4 33.6 75 75 75h333.3c41.4 0 75-33.6 75-75v-333.3c0-41.4-33.6-75-75-75z" fill="#1c274d"/><path d="m400 553.2c-68.9 0-125-56.1-125-125s56.1-125 125-125 125 56.1 125 125-56.1 125-125 125zm0-200c-41.4 0-75 33.6-75 75s33.6 75 75 75 75-33.6 75-75c0-41.3-33.6-75-75-75z" fill="#8e93a6"/><path d="m600 194.9v25h25v-25zm-76.1-122.5-3.5-24.7zm-359.9 51.5-3.5-24.7zm5 96h431v-50h-431zm456-25v-56.5h-50v56.5zm-104.6-147.2-359.9 51.4 7.1 49.5 359.9-51.4zm-359.9 51.4c-29.9 4.3-52.1 29.9-52.1 60.1h50c0-5.3 3.9-9.8 9.2-10.6zm464.5 39.3c0-55.8-49.4-98.6-104.6-90.7l7.1 49.5c25.1-3.6 47.6 15.9 47.6 41.2zm-456 31.5c-5.9 0-10.7-4.8-10.7-10.7h-50c0 33.5 27.2 60.7 60.7 60.7z" fill="#1c274d"/><path d="m466.7 653.2h-133.4c-13.8 0-25-11.2-25-25s11.2-25 25-25h133.3c13.8 0 25 11.2 25 25s-11.1 25-24.9 25z" fill="#8e93a6"/></g></svg>