<?xml version="1.0" encoding="UTF-8"?>
<svg xmlns="http://www.w3.org/2000/svg" version="1.1" viewBox="0 0 512 512">
  <!-- Generator: Adobe Illustrator 28.7.1, SVG Export Plug-In . SVG Version: 1.2.0 Build 142)  -->
  <g>
    <g id="Outline">
      <path d="M180.4,224.3c33.6,47.3,72.8,86.7,129.1,108.9,10.3-12.5,20.6-25.1,30.8-37.7,7.8-9.7,16.8-14.3,28.9-8.7,27,12.5,54.2,24.3,80.2,38.2,6,3.2,10.9,13.8,11.3,21.2,2.4,45.5-36.6,87.1-83.2,88.2-66.9,1.6-124.9-24.1-177.4-63.1-45-33.5-79.9-76.6-109.2-124-23.3-37.6-33.3-77.9-18.6-121.6,12.4-36.6,43.9-58.7,82-54.1,8.9,1.1,20,10.5,24.3,18.9,12.1,23.8,22.7,48.5,30.8,74,2.9,8.7-1.6,21.4-6,30.4-5.1,10.1-14.1,18.4-22.7,29.3Z"/>
    </g>
  </g>
</svg>