<svg id="Layer_1" viewBox="0 0 100.1 100.1" xmlns="http://www.w3.org/2000/svg"><path d="m48.23 82.17c8.46 0 16.2-3.12 22.15-8.26l11.16 11.16c.49.49 1.13.73 1.77.73s1.28-.24 1.77-.73c.98-.98.98-2.56 0-3.54l-11.16-11.16c5.14-5.95 8.26-13.69 8.26-22.15 0-18.71-15.23-33.94-33.94-33.94s-33.95 15.24-33.95 33.95 15.23 33.94 33.94 33.94zm0-62.88c15.96 0 28.94 12.98 28.94 28.94 0 7.86-3.15 14.99-8.25 20.21-.09.07-.18.13-.26.21s-.15.17-.21.26c-5.22 5.1-12.35 8.25-20.21 8.25-15.96 0-28.94-12.98-28.94-28.94s12.98-28.94 28.94-28.94z"/></svg>