<svg height="512" viewBox="0 0 32 32" width="512" xmlns="http://www.w3.org/2000/svg" xmlns:xlink="http://www.w3.org/1999/xlink"><clipPath id="clip_1"><path id="artboard_1" clip-rule="evenodd" d="m0 0h32v32h-32z"/></clipPath><g id="share-Copy" clip-path="url(#clip_1)"><path id="Vector" d="m16.7071 2.70711c.0938-.09377.166-.20191.2168-.32443.0507-.12251.0761-.25007.0761-.38268 0-.27614-.0976-.51184-.2929-.70711-.1953-.19526-.431-.29289-.7071-.29289h-12.001c-.82815 0-1.53502.2928-2.12061.87839s-.87839 1.29246-.87839 2.12061v24.002c0 1.9993.99967 2.999 2.999 2.999h24.002c1.9993 0 2.999-.9997 2.999-2.999v-12.001c0-.2761-.0976-.5118-.2929-.7071s-.431-.2929-.7071-.2929c-.1326 0-.2602.0254-.3827.0761-.1225.0508-.2306.123-.3244.2168s-.166.2019-.2168.3244c-.0507.1225-.0761.2501-.0761.3827v12.001c0 .666-.333.999-.999.999h-24.002c-.666 0-.999-.333-.999-.999v-24.002c0-.666.333-.999.999-.999h12.001c.1326 0 .2602-.02537.3827-.07612s.2306-.123.3244-.21677zm4.2929 12.08359c-.0211-.0043-.0422-.0085-.0633-.0127-2.982-.5928-5.7471.0265-8.2955 1.8579-2.6071 1.8736-4.51129 4.6709-5.7125 8.3919-.12312.3814-.23886.7725-.34721 1.1733-.03507.1822-.11972.344-.25395.4852-.01671.0177-.03401.0348-.05191.0512-.18025.167-.3935.2543-.63974.2619-.0295.0011-.05892.0009-.08825-.0006-.164-.0076-.31319-.0509-.44757-.13-.11558-.065-.21412-.1521-.29564-.2615-.08185-.1047-.13911-.2195-.17178-.3446-.02981-.1056-.04064-.2137-.03249-.3243.01136-5.7612 1.61716-10.6617 4.81741-14.7015 3.15643-3.9845 7.01723-6.05986 11.58243-6.22605v-2.01085c0-.27614.0976-.51184.2929-.70711.1953-.19526.431-.29289.7071-.29289.1082 0 .2136.01711.3162.05132.1027.03421.1973.08377.2838.14868l8 6c.2209.16568.3509.38521.3899.65858.0391.27337-.0242.52051-.1899.74142-.0142.01893-.029.03733-.0445.0552s-.0317.03518-.0484.05191l-8 7.99999c-.1953.1953-.431.2929-.7071.2929s-.5118-.0976-.7071-.2929c-.0938-.0938-.166-.2019-.2168-.3244-.0507-.1225-.0761-.2501-.0761-.3827z" fill-rule="evenodd"/></g></svg>