<?xml version="1.0" encoding="utf-8"?>
<!-- Generator: Adobe Illustrator 26.1.0, SVG Export Plug-In . SVG Version: 6.00 Build 0)  -->
<svg version="1.1" id="Layer_1" xmlns="http://www.w3.org/2000/svg" xmlns:xlink="http://www.w3.org/1999/xlink" x="0px" y="0px"
	 viewBox="0 0 512 512" style="enable-background:new 0 0 512 512;" xml:space="preserve">
<g>
	<path d="M478.6,220l-99.7,97.2l23.5,137.2c1.5,8.7-4.4,17-13.1,18.5c-3.5,0.6-7,0-10.1-1.6L256,406.4l-123.2,64.8
		c-7.8,4.1-17.5,1.1-21.6-6.7c-1.6-3.1-2.2-6.7-1.6-10.1l23.5-137.2L33.4,220c-6.3-6.2-6.5-16.3-0.3-22.6c2.5-2.5,5.7-4.2,9.2-4.7
		l137.7-20l61.6-124.8c5.4-10.9,23.3-10.9,28.7,0L332,172.7l137.7,20c8.8,1.3,14.8,9.5,13.5,18.2C482.7,214.4,481.1,217.6,478.6,220
		L478.6,220z"/>
</g>
</svg>
