<?xml version="1.0" encoding="utf-8"?>
<!-- Generator: Adobe Illustrator 28.1.0, SVG Export Plug-In . SVG Version: 6.00 Build 0)  -->
<svg version="1.1" id="Layer_1" xmlns="http://www.w3.org/2000/svg" xmlns:xlink="http://www.w3.org/1999/xlink" x="0px" y="0px"
	 viewBox="0 0 24 24" style="enable-background:new 0 0 24 24;" xml:space="preserve">
<style type="text/css">
	.st0{fill:none;stroke:#424242;stroke-linecap:round;stroke-linejoin:round;stroke-miterlimit:10;}
</style>
<path class="st0" d="M16.6,0.6c-2.7,0-4.9,2.2-4.9,4.9c0,1.6,1.7,4.3,3.1,6.2c0.9,1.3,2.8,1.3,3.7,0c1.4-2,3.1-4.6,3.1-6.2
	C21.5,2.8,19.3,0.6,16.6,0.6z M16.6,6.7c-0.8,0-1.5-0.7-1.5-1.5s0.7-1.5,1.5-1.5c0.8,0,1.5,0.7,1.5,1.5S17.5,6.7,16.6,6.7z"/>
<path class="st0" d="M13.3,9.7H3.6C2,9.7,0.7,11,0.7,12.6V13c0,1.6,1.3,2.9,2.9,2.9h15.1c1.6,0,2.9,1.3,2.9,2.9l0,0
	c0,1.6-1.3,2.9-2.9,2.9h-14"/>
<circle class="st0" cx="2.9" cy="21.5" r="1.8"/>
</svg>
