<?xml version="1.0" encoding="utf-8"?>
<!-- Generator: Adobe Illustrator 28.1.0, SVG Export Plug-In . SVG Version: 6.00 Build 0)  -->
<svg version="1.1" id="Layer_1" xmlns="http://www.w3.org/2000/svg" xmlns:xlink="http://www.w3.org/1999/xlink" x="0px" y="0px"
	 viewBox="0 0 24 24" style="enable-background:new 0 0 24 24;" xml:space="preserve">
<style type="text/css">
	.st0{fill:none;stroke:#424242;stroke-linecap:round;stroke-linejoin:round;stroke-miterlimit:10;}
</style>
<g>
	<path class="st0" d="M12.8,14.5l0.9-4.9c0.3-1.5-0.9-2.8-2.4-2.8h-1.1l-1.8,8.3l4.5,2.1c0.7,0.3,1.2,0.9,1.5,1.6L16,23"/>
	<path class="st0" d="M11.7,8.6c0.1,0.1,2.9,2.9,2.9,2.9l4.3-0.3"/>
	<line class="st0" x1="17.7" y1="8.9" x2="21.7" y2="22.3"/>
	<path class="st0" d="M8.3,13.9l-1.8-1c-0.8-0.5-1.2-1.4-1-2.3l0.7-2.9c0.3-1.4,1.6-2.4,3-2.3h0.9l0.1,1.4"/>
	<polyline class="st0" points="9.7,15.9 8.8,19 6.6,22.9 	"/>
	<circle class="st0" cx="13.2" cy="3.4" r="1.7"/>
</g>
</svg>
