<?xml version="1.0" encoding="utf-8"?>
<!-- Generator: Adobe Illustrator 28.1.0, SVG Export Plug-In . SVG Version: 6.00 Build 0)  -->
<svg version="1.1" id="Layer_1" xmlns="http://www.w3.org/2000/svg" xmlns:xlink="http://www.w3.org/1999/xlink" x="0px" y="0px"
	 viewBox="0 0 24 24" style="enable-background:new 0 0 24 24;" xml:space="preserve">
<style type="text/css">
	.st0{fill:none;stroke:#424242;stroke-linecap:round;stroke-linejoin:round;stroke-miterlimit:10;}
</style>
<g>
	<path class="st0" d="M7.8,19.2c-0.3-0.7-0.5-1.4-0.5-2.2c0-2.6,2.1-4.7,4.7-4.7s4.7,2.1,4.7,4.7c0,0.8-0.2,1.6-0.6,2.2"/>
	<path class="st0" d="M21.5,19.6c0,0,1.1-3,1.1-4.7c0-5.8-4.7-10.6-10.6-10.6C6.2,4.3,1.4,9,1.4,14.9c0,1.7,1.1,4.7,1.1,4.7
		L21.5,19.6z"/>
	<line class="st0" x1="12.1" y1="16.5" x2="14.6" y2="8.9"/>
	<line class="st0" x1="12.1" y1="4.3" x2="12.1" y2="6.6"/>
	<line class="st0" x1="19.2" y1="7.5" x2="17.7" y2="9.2"/>
	<line class="st0" x1="4.4" y1="7.5" x2="6" y2="9.2"/>
</g>
</svg>
