<?xml version="1.0" encoding="utf-8"?>
<!-- Generator: Adobe Illustrator 26.1.0, SVG Export Plug-In . SVG Version: 6.00 Build 0)  -->
<svg version="1.1" id="Layer_1" xmlns="http://www.w3.org/2000/svg" xmlns:xlink="http://www.w3.org/1999/xlink" x="0px" y="0px"
	 width="147px" height="31px" viewBox="0 0 147 31" style="enable-background:new 0 0 147 31;" xml:space="preserve">
<style type="text/css">
	.st0{fill:#34E0A1;}
</style>
<path d="M143.1,20.6c-0.4,0-0.8,0.4-0.8,0.8c0,0.4,0.4,0.8,0.8,0.8c0.4,0,0.8-0.4,0.8-0.8C143.9,21,143.5,20.6,143.1,20.6
	L143.1,20.6z M143.1,22.1c-0.4,0-0.7-0.3-0.7-0.7c0-0.4,0.3-0.7,0.7-0.7c0.4,0,0.7,0.3,0.7,0.7C143.8,21.8,143.5,22.1,143.1,22.1z
	 M143.3,21.3c0-0.1-0.1-0.2-0.3-0.2h-0.3v0.7h0.1v-0.3h0.1l0.1,0.3h0.1l-0.1-0.3C143.3,21.4,143.3,21.4,143.3,21.3L143.3,21.3z
	 M143.1,21.4H143v-0.2h0.1c0.1,0,0.1,0,0.1,0.1C143.2,21.4,143.2,21.4,143.1,21.4L143.1,21.4z M47.8,12.6v-1.9h-2.9v11.4h2.9v-6.8
	c0-1.2,0.8-1.8,2-1.8h1.6v-2.7H50C48.9,10.7,48,11.3,47.8,12.6L47.8,12.6z M54.1,6.2c-1,0-1.8,0.8-1.8,1.8c0,1,0.8,1.8,1.8,1.8
	S55.9,9,55.9,8C55.9,7,55.1,6.2,54.1,6.2z M52.7,22.1h2.9V10.7h-2.9V22.1z M69.5,16.4c0,3.2-2.6,5.9-5.9,5.9c-1.3,0-2.5-0.4-3.5-1.2
	v4.3h-2.9V10.7h2.9v1c1-0.7,2.1-1.2,3.5-1.2C66.9,10.5,69.5,13.1,69.5,16.4z M66.6,16.4c0-1.8-1.4-3.2-3.2-3.2
	c-1.8,0-3.2,1.4-3.2,3.2c0,1.8,1.4,3.2,3.2,3.2C65.2,19.6,66.6,18.2,66.6,16.4z M120.4,15.4l-1.7-0.5c-1.1-0.3-1.6-0.6-1.6-1.2
	c0-0.6,0.6-1,1.5-1c0.8,0,1.5,0.5,1.5,1.3V14h2.7V14c0-2.1-1.7-3.5-4.2-3.5c-2.5,0-4.3,1.4-4.3,3.3c0,1.5,1,2.6,2.7,3.1l1.6,0.4
	c1.2,0.3,1.7,0.7,1.7,1.4c0,0.7-0.7,1.2-1.7,1.2c-1,0-1.7-0.7-1.7-1.6v-0.1h-2.9v0.1c0,2.3,1.9,4,4.6,4c2.6,0,4.5-1.6,4.5-3.8
	C123.2,17.4,122.7,16,120.4,15.4z M79.9,10.7h2.9v11.4h-2.9v-1c-1,0.7-2.1,1.2-3.5,1.2c-3.2,0-5.9-2.6-5.9-5.9s2.6-5.9,5.9-5.9
	c1.3,0,2.5,0.4,3.5,1.2V10.7z M79.9,16.4c0-1.8-1.4-3.2-3.2-3.2s-3.2,1.4-3.2,3.2c0,1.8,1.4,3.2,3.2,3.2
	C78.5,19.6,79.9,18.2,79.9,16.4z M93.4,6.6h2.9v15.4h-2.9v-1c-1,0.7-2.1,1.2-3.5,1.2c-3.3,0-5.9-2.6-5.9-5.9s2.6-5.9,5.9-5.9
	c1.3,0,2.5,0.4,3.5,1.2V6.6z M93.4,16.4c0-1.8-1.4-3.2-3.2-3.2c-1.8,0-3.2,1.4-3.2,3.2c0,1.8,1.4,3.2,3.2,3.2
	C92,19.6,93.4,18.2,93.4,16.4z M109.9,22.1h2.9V10.7h-2.9V22.1z M111.4,6.2c-1,0-1.8,0.8-1.8,1.8c0,1,0.8,1.8,1.8,1.8
	s1.8-0.8,1.8-1.8C113.2,7,112.4,6.2,111.4,6.2z M135.8,16.4c0,3.2-2.6,5.9-5.9,5.9c-3.2,0-5.9-2.6-5.9-5.9s2.6-5.9,5.9-5.9
	C133.2,10.5,135.8,13.1,135.8,16.4z M133.2,16.4c0-1.8-1.4-3.2-3.2-3.2c-1.8,0-3.2,1.4-3.2,3.2c0,1.8,1.4,3.2,3.2,3.2
	C131.7,19.6,133.2,18.2,133.2,16.4z M46.3,6.6H35v2.6h4.2v12.8h2.9V9.3h4.2L46.3,6.6L46.3,6.6z M103,19l-2.6-8.3h-3.1l3.9,11.4h3.5
	l3.9-11.4h-3.1L103,19z M140.1,12.6v-1.9h-2.9v11.4h2.9v-6.8c0-1.2,0.8-1.8,2-1.8h1.6v-2.7h-1.4C141.3,10.7,140.4,11.3,140.1,12.6
	L140.1,12.6z"/>
<circle class="st0" cx="18.1" cy="15.6" r="15"/>
<path d="M27.3,12.7l1.8-2h-4c-2-1.4-4.4-2.2-7-2.2c-2.6,0-5,0.8-7,2.2H7l1.8,2c-1.1,1-1.8,2.5-1.8,4.1c0,3,2.5,5.5,5.5,5.5
	c1.4,0,2.8-0.6,3.8-1.5l1.8,1.9l1.8-1.9c1,0.9,2.3,1.5,3.8,1.5c3,0,5.5-2.5,5.5-5.5C29.1,15.1,28.4,13.7,27.3,12.7z M12.6,20.5
	c-2.1,0-3.7-1.7-3.7-3.7s1.7-3.7,3.7-3.7s3.7,1.7,3.7,3.7S14.6,20.5,12.6,20.5z M18.1,16.6c0-2.5-1.8-4.6-4.1-5.5
	c1.3-0.5,2.7-0.8,4.1-0.8s2.9,0.3,4.1,0.8C19.9,12.1,18.1,14.2,18.1,16.6z M23.6,20.5c-2.1,0-3.7-1.7-3.7-3.7s1.7-3.7,3.7-3.7
	s3.7,1.7,3.7,3.7S25.7,20.5,23.6,20.5z M23.6,14.8c-1.1,0-2,0.9-2,2c0,1.1,0.9,2,2,2c1.1,0,2-0.9,2-2C25.6,15.7,24.7,14.8,23.6,14.8
	L23.6,14.8z M14.5,16.7c0,1.1-0.9,2-2,2s-2-0.9-2-2c0-1.1,0.9-2,2-2C13.7,14.8,14.5,15.7,14.5,16.7z"/>
</svg>
