<?xml version="1.0" encoding="UTF-8"?>
<svg version="1.1" xmlns="http://www.w3.org/2000/svg" width="30" height="29">
<path d="M0 0 C0.66 0 1.32 0 2 0 C2.99 3.63 3.98 7.26 5 11 C8.63 11 12.26 11 16 11 C11.375 15.875 11.375 15.875 8 17 C9.485 22.94 9.485 22.94 11 29 C6.87384964 27.96846241 5.1540179 26.71595986 2 24 C-0.3189679 25.1165401 -2.45488056 26.29242321 -4.625 27.6875 C-5.40875 28.120625 -6.1925 28.55375 -7 29 C-7.66 28.67 -8.32 28.34 -9 28 C-7.515 22.555 -7.515 22.555 -6 17 C-7.32 16.34 -8.64 15.68 -10 15 C-11.37086915 13.70529025 -12.71340837 12.37849103 -14 11 C-10.37 11 -6.74 11 -3 11 C-2.01 7.37 -1.02 3.74 0 0 Z " fill="#00B277" transform="translate(14,0)"/>
</svg>
