<?xml version="1.0" encoding="UTF-8"?>
<svg id="Layer_1" xmlns="http://www.w3.org/2000/svg" version="1.1" viewBox="0 0 24 24">
  <!-- Generator: Adobe Illustrator 29.8.2, SVG Export Plug-In . SVG Version: 2.1.1 Build 3)  -->
  <defs>
    <style>
      .st0 {
        fill: none;
        stroke: #424242;
        stroke-linecap: round;
        stroke-linejoin: round;
        stroke-width: 1.8px;
      }
    </style>
  </defs>
  <path class="st0" d="M11.9,5.9s-2.6-1.4-4-1.2-2.1-.5-2.1-.5"/>
  <path class="st0" d="M12.5,5.9s2.6-1.4,4-1.2,2.1-.5,2.1-.5"/>
  <g>
    <path class="st0" d="M9,1.6s.2,1.2-1.6,1.9S1.6,5.7,1.6,8.5s0,4.1-.2,4.9"/>
    <path class="st0" d="M3.7,8.9s.5,2.4,2.5,3.2,4.8.4,4.8.4"/>
    <path class="st0" d="M4.5,10.7s1.5,6.4,1.6,8.1-.5,3.6-.5,3.6"/>
  </g>
  <g>
    <path class="st0" d="M15.2,1.6s-.2,1.2,1.6,1.9,5.8,2.3,5.8,5,0,4.1.2,4.9"/>
    <path class="st0" d="M20.6,8.9s-.5,2.4-2.5,3.2-4.8.4-4.8.4"/>
    <path class="st0" d="M19.8,10.7s-1.5,6.4-1.6,8.1.5,3.6.5,3.6"/>
  </g>
  <line class="st0" x1="11.9" y1="14.2" x2="11.9" y2="17.5"/>
  <path class="st0" d="M9.3,16.1s2,.7,5.2,0"/>
</svg>