<svg id="Wave_hand" viewBox="0 0 64 64" xmlns="http://www.w3.org/2000/svg" data-name="Wave hand"><path d="m56.75 35.54c-.64-1.62-1.36-3.24-2.15-4.71-2.71-5.04-2.89-9.2-2.84-10.8.02-.62-.29-1.21-.84-1.54-.56-.34-1.26-.26-1.81.1-3.1 2.04-4.75 5.89-3.94 9.69.7 3.25 1.75 6.15 1.75 6.15l-3.49-5.04-10.02-15.98c-.82-1.36-2.54-1.82-3.87-1.03-1.34.79-1.81 2.55-1.06 3.97l8.36 15.72-12.9-12.95c-1.13-1.13-2.92-1.13-4.02 0l-.12.13c-1.1 1.14-1.1 2.98 0 4.15l12.42 13.19-13.79-9.19c-1.33-.89-3.1-.5-3.95.86l-.02.03c-.81 1.31-.49 3.06.74 3.99l13.72 10.36-10.86-5.07c-1.4-.65-3.03.06-3.53 1.55-.42 1.26.12 2.66 1.27 3.29l10.96 6.33c.9.52 1.73 1.16 2.47 1.9l2.73 2.74c6.3 6.33 16.65 6.19 22.34-.72.23-.28.46-.58.68-.88 3.35-4.66 3.9-10.87 1.79-16.24z"/><path d="m38 12c2.21 0 4 1.79 4 4 0 .55.45 1 1 1s1-.45 1-1c0-3.31-2.69-6-6-6-.55 0-1 .45-1 1s.45 1 1 1z"/><path d="m39 8c3.86 0 7 3.14 7 7 0 .55.45 1 1 1s1-.45 1-1c0-4.96-4.04-9-9-9-.55 0-1 .45-1 1s.45 1 1 1z"/><path d="m16 48c-2.21 0-4-1.79-4-4 0-.55-.45-1-1-1s-1 .45-1 1c0 3.31 2.69 6 6 6 .55 0 1-.45 1-1s-.45-1-1-1z"/><path d="m15 52c-3.86 0-7-3.14-7-7 0-.55-.45-1-1-1s-1 .45-1 1c0 4.96 4.04 9 9 9 .55 0 1-.45 1-1s-.45-1-1-1z"/></svg>