<?xml version="1.0" encoding="utf-8"?>
<!-- Generator: Adobe Illustrator 28.1.0, SVG Export Plug-In . SVG Version: 6.00 Build 0)  -->
<svg version="1.1" id="Outline" xmlns="http://www.w3.org/2000/svg" xmlns:xlink="http://www.w3.org/1999/xlink" x="0px" y="0px"
	 viewBox="0 0 512 512" style="enable-background:new 0 0 512 512;" xml:space="preserve">
<g>
	<path d="M294,15.7c93.5,12,158,67.3,191.9,155.6c8,20.8,17.5,53.4,13.1,104.8c-4.6,54.6-27.3,101.4-65.4,140.3
		c-74.3,76-184.7,94.8-280.1,48.6c-3-1.4-7-2.9-9.8-2.1c-41.1,12.9-82.2,26.2-123.2,39.5c-7.4,1.6-10.3-1.3-8.7-8.7
		c12.8-37,25.5-74.1,38.6-111c2.5-7,2.1-12.5-1.5-19.2C24.6,317.9,14.5,269,23.3,218.1c17-98,73.6-163.2,168.5-193.9
		C208.7,18.7,252.3,10.4,294,15.7z M83.8,432c21.4-6.7,40.5-13,59.8-18.3c4.6-1.3,11-0.5,15.1,1.8c37.4,21.7,77,30.9,120.4,27.4
		c90.6-7.4,167.9-83.5,175.1-174.2c9-113-79.5-209-192.8-209.1c-58.9-0.1-108.8,21.8-146.9,66.3c-59.4,69.3-63.5,158-13.6,234.8
		c2.5,3.8,2.9,10.4,1.6,15C97.1,393.9,90.6,411.8,83.8,432z"/>
	<path d="M210.9,234.8c21.2,29.8,45.9,54.7,81.4,68.7c6.5-7.9,13-15.8,19.4-23.8c4.9-6.1,10.6-9,18.2-5.5
		c17,7.9,34.2,15.3,50.6,24.1c3.8,2,6.9,8.7,7.1,13.4c1.5,28.7-23.1,54.9-52.5,55.6c-42.2,1-78.8-15.2-111.9-39.8
		c-28.4-21.1-50.4-48.3-68.9-78.2c-14.7-23.7-21-49.1-11.7-76.7c7.8-23.1,27.7-37,51.7-34.1c5.6,0.7,12.6,6.6,15.3,11.9
		c7.6,15,14.3,30.6,19.4,46.7c1.8,5.5-1,13.5-3.8,19.2C222,222.7,216.3,227.9,210.9,234.8z"/>
</g>
</svg>
