<svg id="Layer_1" data-name="Layer 1" xmlns="http://www.w3.org/2000/svg" viewBox="0 0 71.53 71.52"><path d="M33.94,67.89a33.78,33.78,0,0,0,22.15-8.26L67.25,70.79a2.5,2.5,0,1,0,3.54-3.54L59.63,56.09a33.92,33.92,0,1,0-25.69,11.8ZM33.94,5A28.92,28.92,0,0,1,54.63,54.16a2.65,2.65,0,0,0-.26.21,1.71,1.71,0,0,0-.21.26A28.93,28.93,0,1,1,34,5Z"/><path d="M33.94,55a1,1,0,0,1-1-1V15.48a1,1,0,0,1,2,0V54A1,1,0,0,1,33.94,55Z"/><path d="M33.94,56a2,2,0,0,1-2-2V15.48a2,2,0,1,1,4,0V54A2,2,0,0,1,33.94,56Zm0-40.52v0Z"/><path d="M53.2,35.74H14.69a1,1,0,1,1,0-2H53.2a1,1,0,0,1,0,2Z"/><path d="M53.2,36.74H14.69a2,2,0,1,1,0-4H53.2a2,2,0,0,1,0,4Zm0-2h0Z"/></svg>